<?xml version="1.0" encoding="UTF-8"?>
<svg width="140px" height="140px" viewBox="0 0 140 140" version="1.1" xmlns="http://www.w3.org/2000/svg" xmlns:xlink="http://www.w3.org/1999/xlink">
    <!-- Generator: Sketch 41.1 (35376) - http://www.bohemiancoding.com/sketch -->
    <title>avatar-5</title>
    <desc>Created with Sketch.</desc>
    <defs>
        <circle id="path-1" cx="70" cy="70" r="70"></circle>
    </defs>
    <g id="Page-1" stroke="none" stroke-width="1" fill="none" fill-rule="evenodd">
        <g id="avatar-5">
            <mask id="mask-2" fill="white">
                <use xlink:href="#path-1"></use>
            </mask>
            <use id="Mask" fill="#FFE1D6" xlink:href="#path-1"></use>
            <g id="Group-6" mask="url(#mask-2)">
                <g transform="translate(28.000000, 3.000000)">
                    <path d="M28.5161739,95.1987826 L54.9262609,95.1987826 C54.4088696,106.995304 53.6528696,118.824696 54.9262609,130.365565 C46.1233043,133.955652 37.3191304,133.955652 28.5161739,130.365565 C30.2034783,117.329739 29.1565217,106.424348 28.5161739,95.1987826" id="Fill-178" fill="#E9B782"></path>
                    <path d="M77.5453913,63.090087 C72.4006957,63.196 70.1253913,68.2481739 68.992,74.5737391 C67.8586087,80.898087 69.8514783,86.0549565 73.4281739,86.0549565 C77.006087,86.0549565 79.4895652,80.898087 81.3558261,74.5737391 C83.2196522,68.2481739 82.690087,62.9853913 77.5453913,63.090087" id="Fill-179" fill="#E9B782"></path>
                    <path d="M5.89826087,63.090087 C11.0429565,63.196 13.3182609,68.2481739 14.4516522,74.5737391 C15.5850435,80.898087 13.5921739,86.0549565 10.0142609,86.0549565 C6.43756522,86.0549565 3.95286957,80.898087 2.08782609,74.5737391 C0.222782609,68.2481739 0.753565217,62.9853913 5.89826087,63.090087" id="Fill-180" fill="#E9B782"></path>
                    <path d="M28.5161739,95.1987826 L54.9262609,95.1987826 C54.6925217,100.530957 54.4088696,105.869217 54.2871304,111.184348 C44.6490435,116.837913 38.4975652,117.105739 29.3695652,111.328 C29.2198261,105.846087 28.8217391,100.558957 28.5161739,95.1987826" id="Fill-181" fill="#EB9166"></path>
                    <path d="M41.7224348,114.089043 C34.5203478,114.089043 19.5172174,103.806957 14.4431304,92.7554783 C11.8756522,87.1603478 9.0293913,79.492 7.32747826,71.5655652 C6.61408696,68.2457391 6.10278261,64.8808696 5.89582609,61.6036522 C4.18417391,34.496 13.8892174,9.53704348 41.7224348,9.53704348 C69.5532174,9.53704348 79.2606957,34.496 77.5478261,61.6036522 C76.8478261,72.7050435 72.6441739,84.8168696 69.0005217,92.7554783 C63.9264348,103.806957 48.9245217,114.089043 41.7224348,114.089043" id="Fill-182" fill="#E9B782"></path>
                    <path d="M34.7175652,98.0572174 C35.6622609,97.944 36.5704348,97.7394783 37.3666087,97.44 C38.661913,96.9493913 40.1081739,97.4923478 41.7212174,97.4923478 C43.3342609,97.4923478 44.7793043,96.9493913 46.0758261,97.44 C46.872,97.7394783 47.7801739,97.9427826 48.726087,98.056 C46.9706087,102.221913 37.3142609,102.053913 34.7175652,98.0572174" id="Fill-183" fill="#FFFFFF"></path>
                    <path d="M34.748,97.7686957 C33.8276522,97.8514783 32.9085217,97.9354783 31.9881739,98.0206957 C33.2372174,98.8813913 33.8812174,101.974783 35.812,103.659652 C37.2205217,104.891652 39.6906087,105.183826 41.7224348,105.183826 C43.7530435,105.183826 46.2231304,104.891652 47.6316522,103.659652 C49.5624348,101.974783 50.2064348,98.8813913 51.4554783,98.0206957 C50.5351304,97.9354783 49.616,97.8514783 48.6956522,97.7686957 C45.4866087,100.63687 38.0069565,100.63687 34.748,97.7686957" id="Fill-184" fill="#B9362B"></path>
                    <path d="M47.6925217,85.4304348 C46.6553043,87.6947826 44.3666087,89.2737391 41.7224348,89.2737391 C39.0758261,89.2737391 36.7883478,87.6947826 35.7511304,85.4304348 C37.3617391,86.5126957 39.4471304,87.1676522 41.7224348,87.1676522 C43.9965217,87.1676522 46.081913,86.5126957 47.6925217,85.4304348" id="Fill-185" fill="#EB9166"></path>
                    <path d="M41.7224348,31.8956522 C32.7514783,25.6236522 15.9052174,30.6673043 13.6591304,42.084 C11.2109565,54.5330435 5.89582609,61.6036522 7.32747826,71.5643478 C-1.83217391,40.1946087 8.30869565,0.713391304 41.7224348,0.713391304 C75.1349565,0.713391304 85.2746087,40.1946087 76.1161739,71.5643478 C77.5478261,61.6036522 72.2326957,54.5330435 69.7833043,42.084 C67.5384348,30.6673043 50.6909565,25.6236522 41.7224348,31.8956522" id="Fill-186" fill="#0A0A08"></path>
                    <path d="M62.4107826,72.828 C64.8248696,70.6817391 65.0330435,67.9827826 65.3897391,64.8845217 C64.1126957,65.6393043 62.0078261,64.2904348 60.3631304,65.1986087 C57.7335652,66.6497391 53.8086957,69.5994783 51.457913,73.9991304 C55.8003478,72.0805217 59.4914783,75.4222609 62.4107826,72.828" id="Fill-187" fill="#FFFFFF"></path>
                    <path d="M48.1587826,63.8326957 C47.3321739,64.882087 47.5330435,66.5486957 47.7850435,67.4373913 C54.4271304,62.2342609 61.1471304,57.4109565 64.9441739,56.9227826 C67.06,56.650087 69.664,57.1005217 73.3563478,57.9064348 C70.4735652,55.7626087 67.2815652,54.690087 64.6629565,54.8507826 C61.4393043,55.048 53.8926957,58.2546087 48.1587826,63.8326957" id="Fill-188" fill="#0A0A08"></path>
                    <path d="M55.0772174,69.4984348 C55.6311304,71.1126957 57.1638261,72.2777391 58.961913,72.2777391 C61.2238261,72.2777391 63.0681739,70.4333913 63.0681739,68.1726957 C63.0681739,67.0478261 62.6116522,66.0264348 61.8763478,65.2850435 C61.2956522,65.24 60.7161739,65.2765217 60.1878261,65.5674783 C58.7342609,66.3709565 56.8363478,67.7137391 55.0772174,69.4984348" id="Fill-189" fill="#BE6037"></path>
                    <path d="M56.532,68.1422609 L56.532,68.1726957 C56.532,69.5118261 57.6227826,70.6026087 58.961913,70.6026087 C60.3010435,70.6026087 61.3918261,69.5118261 61.3918261,68.1726957 C61.3918261,67.0867826 60.6747826,66.1652174 59.6911304,65.8535652 C58.7366957,66.422087 57.6373913,67.1926957 56.532,68.1422609" id="Fill-190" fill="#0A0A08"></path>
                    <path d="M54.6572174,69.9354783 C55.3547826,71.6276522 57.0226087,72.8243478 58.961913,72.8243478 C61.5257391,72.8243478 63.6147826,70.734087 63.6147826,68.1714783 C63.6147826,67.1281739 63.2666087,66.1615652 62.6822609,65.3836522 C62.3462609,65.3337391 62.0041739,65.2850435 61.6633043,65.2728696 C62.4412174,65.9972174 62.9281739,67.0295652 62.9281739,68.1714783 C62.9281739,70.3566957 61.1471304,72.1389565 58.961913,72.1389565 C57.2003478,72.1389565 55.7017391,70.9812174 55.1867826,69.3876522 C55.0090435,69.5666087 54.8325217,69.748 54.6572174,69.9354783" id="Fill-191" fill="#0A0A08"></path>
                    <path d="M61.4758261,67.6857391 C60.7867826,67.6857391 60.2255652,68.2469565 60.2255652,68.936 C60.2255652,69.6226087 60.7867826,70.1838261 61.4758261,70.1838261 C62.1636522,70.1838261 62.7248696,69.6226087 62.7248696,68.936 C62.7248696,68.2469565 62.1636522,67.6857391 61.4758261,67.6857391" id="Fill-192" fill="#FFFFFF"></path>
                    <path d="M57.3208696,74.8537391 C61.0485217,75.5147826 64.6166957,73.8274783 65.989913,70.2994783 C66.8445217,68.0996522 67.5591304,64.372 67.7855652,61.7826087 C65.918087,63.9008696 63.594087,61.5196522 60.9523478,62.4497391 C55.4606957,64.3841739 52.0434783,70.021913 50.9344348,74.458087 C53.6017391,73.926087 55.5118261,74.5335652 57.3208696,74.8537391 Z M62.2001739,72.6697391 C64.5972174,70.9556522 64.7384348,67.766087 64.7713043,65.2801739 C63.6074783,65.968 61.6876522,64.7408696 60.1878261,65.5674783 C57.7907826,66.8895652 54.1885217,69.6822609 51.9947826,73.493913 C55.048,72.0683478 59.2492174,74.7806957 62.2001739,72.6697391 L62.2001739,72.6697391 Z" id="Fill-193" fill="#0A0A08"></path>
                    <path d="M68.9226087,63.6026087 C67.4215652,66.7446957 62.950087,66.3478261 62.1636522,64.4584348 C61.4892174,64.4401739 61.0753043,64.5387826 60.2413913,64.6726957 C62.2513043,67.3266087 67.753913,68.3297391 68.9226087,63.6026087" id="Fill-194" fill="#0A0A08"></path>
                    <path d="M70.4784348,63.2653913 C69.2890435,65.5358261 65.7695652,66.1749565 64.7591304,64.1674783 C64.1029565,64.3634783 63.5794783,64.3744348 62.7638261,64.5984348 C65.050087,67.0198261 69.2744348,67.3497391 70.4784348,63.2653913" id="Fill-195" fill="#0A0A08"></path>
                    <path d="M66.0081739,63.9885217 C64.8930435,66.2954783 61.2043478,67.1452174 60.1622609,64.8516522 C59.4172174,65.0695652 59.0848696,65.2253913 58.3410435,65.5711304 C60.7052174,67.9170435 64.938087,68.1093913 66.0081739,63.9885217" id="Fill-196" fill="#0A0A08"></path>
                    <path d="M63.7827826,64.8309565 C62.6676522,67.1366957 59.1384348,67.732 58.0634783,65.7573913 C57.4146087,65.9753043 57.0822609,66.1311304 56.3067826,66.5085217 C58.6697391,68.8544348 62.7114783,68.9518261 63.7827826,64.8309565" id="Fill-197" fill="#0A0A08"></path>
                    <path d="M21.0328696,72.828 C18.6187826,70.6817391 18.4106087,67.9827826 18.053913,64.8845217 C19.3309565,65.6393043 21.4358261,64.2904348 23.0805217,65.1986087 C25.7088696,66.6497391 29.6349565,69.5994783 31.9857391,73.9991304 C27.6433043,72.0805217 23.9521739,75.4222609 21.0328696,72.828" id="Fill-198" fill="#FFFFFF"></path>
                    <path d="M35.2836522,63.8326957 C36.1114783,64.882087 35.9106087,66.5486957 35.6586087,67.4373913 C29.0165217,62.2342609 22.2965217,57.4109565 18.4994783,56.9227826 C16.3836522,56.650087 13.7796522,57.1005217 10.0873043,57.9064348 C12.9688696,55.7626087 16.162087,54.690087 18.7806957,54.8507826 C22.0043478,55.048 29.5509565,58.2546087 35.2836522,63.8326957" id="Fill-199" fill="#0A0A08"></path>
                    <path d="M28.3664348,69.4984348 C27.8125217,71.1126957 26.2786087,72.2777391 24.4817391,72.2777391 C22.2198261,72.2777391 20.3754783,70.4333913 20.3754783,68.1726957 C20.3754783,67.0478261 20.832,66.0264348 21.5673043,65.2850435 C22.148,65.24 22.7274783,65.2765217 23.2558261,65.5674783 C24.7093913,66.3709565 26.6073043,67.7137391 28.3664348,69.4984348" id="Fill-200" fill="#BE6037"></path>
                    <path d="M26.9116522,68.1422609 L26.9116522,68.1726957 C26.9116522,69.5118261 25.8208696,70.6026087 24.4817391,70.6026087 C23.1426087,70.6026087 22.0518261,69.5118261 22.0518261,68.1726957 C22.0518261,67.0867826 22.7688696,66.1652174 23.7525217,65.8535652 C24.7069565,66.422087 25.8050435,67.1926957 26.9116522,68.1422609" id="Fill-201" fill="#0A0A08"></path>
                    <path d="M28.7864348,69.9354783 C28.0888696,71.6276522 26.4210435,72.8243478 24.4817391,72.8243478 C21.917913,72.8243478 19.8288696,70.734087 19.8288696,68.1714783 C19.8288696,67.1281739 20.1770435,66.1615652 20.7613913,65.3836522 C21.0961739,65.3337391 21.4394783,65.2850435 21.7803478,65.2728696 C21.0024348,65.9972174 20.5154783,67.0295652 20.5154783,68.1714783 C20.5154783,70.3566957 22.2965217,72.1389565 24.4817391,72.1389565 C26.242087,72.1389565 27.7406957,70.9812174 28.2568696,69.3876522 C28.4346087,69.5666087 28.6111304,69.748 28.7864348,69.9354783" id="Fill-202" fill="#0A0A08"></path>
                    <path d="M21.9678261,67.6857391 C22.6556522,67.6857391 23.218087,68.2469565 23.218087,68.936 C23.218087,69.6226087 22.6556522,70.1838261 21.9678261,70.1838261 C21.2812174,70.1838261 20.7187826,69.6226087 20.7187826,68.936 C20.7187826,68.2469565 21.2812174,67.6857391 21.9678261,67.6857391" id="Fill-203" fill="#FFFFFF"></path>
                    <path d="M26.1227826,74.8537391 C22.3951304,75.5147826 18.8269565,73.8274783 17.4537391,70.2994783 C16.5991304,68.0996522 15.8845217,64.372 15.6568696,61.7826087 C17.5255652,63.9008696 19.8495652,61.5196522 22.4913043,62.4497391 C27.9829565,64.3841739 31.4001739,70.021913 32.5092174,74.458087 C29.841913,73.926087 27.9318261,74.5335652 26.1227826,74.8537391 Z M21.2434783,72.6697391 C18.8464348,70.9556522 18.7052174,67.766087 18.6723478,65.2801739 C19.8361739,65.968 21.756,64.7408696 23.2558261,65.5674783 C25.6528696,66.8895652 29.2551304,69.6822609 31.4488696,73.493913 C28.3956522,72.0683478 24.1944348,74.7806957 21.2434783,72.6697391 L21.2434783,72.6697391 Z" id="Fill-204" fill="#0A0A08"></path>
                    <path d="M14.5210435,63.6026087 C16.0208696,66.7446957 20.4947826,66.3478261 21.2812174,64.4584348 C21.9544348,64.4401739 22.3683478,64.5387826 23.2022609,64.6726957 C21.1923478,67.3266087 15.6897391,68.3297391 14.5210435,63.6026087" id="Fill-205" fill="#0A0A08"></path>
                    <path d="M12.964,63.2653913 C14.1546087,65.5358261 17.674087,66.1749565 18.6845217,64.1674783 C19.3406957,64.3634783 19.8641739,64.3744348 20.6786087,64.5984348 C18.3935652,67.0198261 14.1692174,67.3497391 12.964,63.2653913" id="Fill-206" fill="#0A0A08"></path>
                    <path d="M17.4342609,63.9885217 C18.5506087,66.2954783 22.2393043,67.1452174 23.2813913,64.8516522 C24.0264348,65.0695652 24.3587826,65.2253913 25.1026087,65.5711304 C22.7384348,67.9170435 18.5055652,68.1093913 17.4342609,63.9885217" id="Fill-207" fill="#0A0A08"></path>
                    <path d="M19.6608696,64.8309565 C20.776,67.1366957 24.3052174,67.732 25.3801739,65.7573913 C26.0290435,65.9753043 26.3613913,66.1311304 27.1368696,66.5085217 C24.773913,68.8544348 20.7321739,68.9518261 19.6608696,64.8309565" id="Fill-208" fill="#0A0A08"></path>
                    <path d="M41.7224348,58.8852174 C42.8728696,58.8852174 43.8066087,59.8189565 43.8066087,60.9706087 C43.8066087,62.1222609 42.8728696,63.056 41.7224348,63.056 C40.5695652,63.056 39.6358261,62.1222609 39.6358261,60.9706087 C39.6358261,59.8189565 40.5695652,58.8852174 41.7224348,58.8852174" id="Fill-209" fill="#D9252A"></path>
                    <path d="M38.9857391,94.3307826 C37.128,93.8121739 34.8356522,95.585913 32.262087,96.4064348 C30.0318261,97.1173913 30.6234783,96.2372174 29.6885217,96.2372174 C29.3853913,96.2372174 29.1370435,96.4855652 29.1370435,96.789913 C29.1370435,97.0942609 29.3853913,97.3426087 29.6885217,97.3426087 C30.694087,97.3426087 31.269913,98.1022609 32.3984348,98.4321739 C34.1892174,98.9568696 36.3549565,99.029913 38.108,98.6695652 C38.7605217,98.5356522 40.2408696,98.8850435 41.7224348,98.8850435 C43.2027826,98.8850435 44.6831304,98.5356522 45.3344348,98.6695652 C47.0886957,99.029913 49.2544348,98.9568696 51.0452174,98.4321739 C52.1737391,98.1022609 52.7495652,97.3426087 53.753913,97.3426087 C54.0582609,97.3426087 54.3066087,97.0942609 54.3066087,96.789913 C54.3066087,96.4855652 54.0582609,96.2372174 53.753913,96.2372174 C52.8201739,96.2372174 53.4118261,97.1173913 51.1815652,96.4064348 C48.608,95.585913 46.3156522,93.8121739 44.457913,94.3307826 C42.4626087,94.8883478 40.9798261,94.8883478 38.9857391,94.3307826" id="Fill-210" fill="#852024"></path>
                    <polyline id="Fill-211" fill="#FFFFFF" points="42.0438261 17.7313043 36.4426087 26.1337391 47.6462609 26.1337391 42.0438261 17.7313043"></polyline>
                    <path d="M50.6410435,29.8102609 C52.1932174,42.762087 31.8944348,42.762087 33.4478261,29.8102609 C37.6064348,34.4144348 46.4824348,34.4144348 50.6410435,29.8102609" id="Fill-212" fill="#FFFFFF"></path>
                    <path d="M35.728,26.2603478 C36.1808696,26.2603478 36.5485217,26.628 36.5485217,27.0808696 C36.5485217,27.5337391 36.1808696,27.9013913 35.728,27.9013913 C35.2751304,27.9013913 34.9074783,27.5337391 34.9074783,27.0808696 C34.9074783,26.628 35.2751304,26.2603478 35.728,26.2603478" id="Fill-213" fill="#FFFFFF"></path>
                    <path d="M34.58,28.0133913 C35.0328696,28.0133913 35.4005217,28.3810435 35.4005217,28.833913 C35.4005217,29.288 35.0328696,29.6532174 34.58,29.6532174 C34.1283478,29.6532174 33.7606957,29.288 33.7606957,28.833913 C33.7606957,28.3810435 34.1283478,28.0133913 34.58,28.0133913" id="Fill-214" fill="#FFFFFF"></path>
                    <path d="M49.3506087,28.329913 C49.8034783,28.329913 50.1711304,28.6975652 50.1711304,29.1492174 C50.1711304,29.6033043 49.8034783,29.9697391 49.3506087,29.9697391 C48.8977391,29.9697391 48.5313043,29.6033043 48.5313043,29.1492174 C48.5313043,28.6975652 48.8977391,28.329913 49.3506087,28.329913" id="Fill-215" fill="#FFFFFF"></path>
                    <path d="M48.2610435,26.5488696 C48.713913,26.5488696 49.0815652,26.9153043 49.0815652,27.3681739 C49.0815652,27.8210435 48.713913,28.1874783 48.2610435,28.1874783 C47.8081739,28.1874783 47.4417391,27.8210435 47.4417391,27.3681739 C47.4417391,26.9153043 47.8081739,26.5488696 48.2610435,26.5488696" id="Fill-216" fill="#FFFFFF"></path>
                    <path d="M33.4222609,35.4553043 C34.0626087,35.4553043 34.5812174,35.9751304 34.5812174,36.6130435 C34.5812174,37.2546087 34.0626087,37.772 33.4222609,37.772 C32.7831304,37.772 32.2645217,37.2546087 32.2645217,36.6130435 C32.2645217,35.9751304 32.7831304,35.4553043 33.4222609,35.4553043" id="Fill-217" fill="#FFFFFF"></path>
                    <path d="M30.9363478,35.7474783 C31.5766957,35.7474783 32.094087,36.2673043 32.094087,36.9064348 C32.094087,37.548 31.5766957,38.0653913 30.9363478,38.0653913 C30.296,38.0653913 29.7773913,37.548 29.7773913,36.9064348 C29.7773913,36.2673043 30.296,35.7474783 30.9363478,35.7474783" id="Fill-218" fill="#FFFFFF"></path>
                    <path d="M32.4471304,37.8 C33.0874783,37.8 33.606087,38.3198261 33.606087,38.9577391 C33.606087,39.598087 33.0874783,40.1166957 32.4471304,40.1166957 C31.808,40.1166957 31.2893913,39.598087 31.2893913,38.9577391 C31.2893913,38.3198261 31.808,37.8 32.4471304,37.8" id="Fill-219" fill="#FFFFFF"></path>
                    <path d="M37.2728696,38.5803478 C37.9132174,38.5803478 38.4318261,39.1001739 38.4318261,39.7405217 C38.4318261,40.3796522 37.9132174,40.8982609 37.2728696,40.8982609 C36.6337391,40.8982609 36.1151304,40.3796522 36.1151304,39.7405217 C36.1151304,39.1001739 36.6337391,38.5803478 37.2728696,38.5803478" id="Fill-220" fill="#FFFFFF"></path>
                    <path d="M34.9330435,39.5092174 C35.5733913,39.5092174 36.092,40.0290435 36.092,40.6681739 C36.092,41.3085217 35.5733913,41.825913 34.9330435,41.825913 C34.293913,41.825913 33.7753043,41.3085217 33.7753043,40.6681739 C33.7753043,40.0290435 34.293913,39.5092174 34.9330435,39.5092174" id="Fill-221" fill="#FFFFFF"></path>
                    <path d="M37.078087,40.9749565 C37.7172174,40.9749565 38.2370435,41.4947826 38.2370435,42.1326957 C38.2370435,42.7742609 37.7172174,43.2916522 37.078087,43.2916522 C36.4389565,43.2916522 35.9203478,42.7742609 35.9203478,42.1326957 C35.9203478,41.4947826 36.4389565,40.9749565 37.078087,40.9749565" id="Fill-222" fill="#FFFFFF"></path>
                    <path d="M41.797913,39.6553043 C42.4370435,39.6553043 42.9568696,40.1751304 42.9568696,40.8142609 C42.9568696,41.4546087 42.4370435,41.972 41.797913,41.972 C41.1587826,41.972 40.6401739,41.4546087 40.6401739,40.8142609 C40.6401739,40.1751304 41.1587826,39.6553043 41.797913,39.6553043" id="Fill-223" fill="#FFFFFF"></path>
                    <path d="M40.5841739,41.950087 C41.2233043,41.950087 41.7431304,42.469913 41.7431304,43.1090435 C41.7431304,43.7481739 41.2233043,44.2667826 40.5841739,44.2667826 C39.9450435,44.2667826 39.4264348,43.7481739 39.4264348,43.1090435 C39.4264348,42.469913 39.9450435,41.950087 40.5841739,41.950087" id="Fill-224" fill="#FFFFFF"></path>
                    <path d="M43.0932174,41.950087 C43.7335652,41.950087 44.2521739,42.469913 44.2521739,43.1090435 C44.2521739,43.7481739 43.7335652,44.2667826 43.0932174,44.2667826 C42.454087,44.2667826 41.9354783,43.7481739 41.9354783,43.1090435 C41.9354783,42.469913 42.454087,41.950087 43.0932174,41.950087" id="Fill-225" fill="#FFFFFF"></path>
                    <path d="M46.4556522,38.8189565 C47.096,38.8189565 47.6146087,39.3375652 47.6146087,39.977913 C47.6146087,40.6170435 47.096,41.1356522 46.4556522,41.1356522 C45.8165217,41.1356522 45.297913,40.6170435 45.297913,39.977913 C45.297913,39.3375652 45.8165217,38.8189565 46.4556522,38.8189565" id="Fill-226" fill="#FFFFFF"></path>
                    <path d="M45.745913,41.2853913 C46.3862609,41.2853913 46.9036522,41.8052174 46.9036522,42.4443478 C46.9036522,43.085913 46.3862609,43.6033043 45.745913,43.6033043 C45.1055652,43.6033043 44.5881739,43.085913 44.5881739,42.4443478 C44.5881739,41.8052174 45.1055652,41.2853913 45.745913,41.2853913" id="Fill-227" fill="#FFFFFF"></path>
                    <path d="M48.2086957,40.5744348 C48.8478261,40.5744348 49.3664348,41.0942609 49.3664348,41.7321739 C49.3664348,42.3737391 48.8478261,42.8911304 48.2086957,42.8911304 C47.5683478,42.8911304 47.0497391,42.3737391 47.0497391,41.7321739 C47.0497391,41.0942609 47.5683478,40.5744348 48.2086957,40.5744348" id="Fill-228" fill="#FFFFFF"></path>
                    <path d="M50.2441739,35.8765217 C50.8833043,35.8765217 51.4031304,36.3951304 51.4031304,37.0354783 C51.4031304,37.6746087 50.8833043,38.1932174 50.2441739,38.1932174 C49.6050435,38.1932174 49.0864348,37.6746087 49.0864348,37.0354783 C49.0864348,36.3951304 49.6050435,35.8765217 50.2441739,35.8765217" id="Fill-229" fill="#FFFFFF"></path>
                    <path d="M50.434087,38.4391304 C51.0732174,38.4391304 51.5918261,38.9577391 51.5918261,39.5968696 C51.5918261,40.2384348 51.0732174,40.7558261 50.434087,40.7558261 C49.7937391,40.7558261 49.2751304,40.2384348 49.2751304,39.5968696 C49.2751304,38.9577391 49.7937391,38.4391304 50.434087,38.4391304" id="Fill-230" fill="#FFFFFF"></path>
                    <path d="M52.5170435,37.0622609 C53.1573913,37.0622609 53.676,37.582087 53.676,38.2212174 C53.676,38.8615652 53.1573913,39.3801739 52.5170435,39.3801739 C51.8766957,39.3801739 51.3593043,38.8615652 51.3593043,38.2212174 C51.3593043,37.582087 51.8766957,37.0622609 52.5170435,37.0622609" id="Fill-231" fill="#FFFFFF"></path>
                    <path d="M41.9695652,26.3784348 C42.6086957,26.3784348 43.1273043,26.8982609 43.1273043,27.5361739 C43.1273043,28.1777391 42.6086957,28.6951304 41.9695652,28.6951304 C41.3292174,28.6951304 40.8106087,28.1777391 40.8106087,27.5361739 C40.8106087,26.8982609 41.3292174,26.3784348 41.9695652,26.3784348" id="Fill-232" fill="#FFFFFF"></path>
                    <path d="M40.6328696,28.5417391 C41.272,28.5417391 41.7906087,29.0615652 41.7906087,29.7006957 C41.7906087,30.3410435 41.272,30.8596522 40.6328696,30.8596522 C39.9925217,30.8596522 39.473913,30.3410435 39.473913,29.7006957 C39.473913,29.0615652 39.9925217,28.5417391 40.6328696,28.5417391" id="Fill-233" fill="#FFFFFF"></path>
                    <path d="M43.1151304,28.6695652 C43.7542609,28.6695652 44.274087,29.1893913 44.274087,29.8285217 C44.274087,30.4676522 43.7542609,30.9862609 43.1151304,30.9862609 C42.476,30.9862609 41.9573913,30.4676522 41.9573913,29.8285217 C41.9573913,29.1893913 42.476,28.6695652 43.1151304,28.6695652" id="Fill-234" fill="#FFFFFF"></path>
                    <path d="M43.4255652,17.1627826 C43.8796522,17.1627826 44.246087,17.5292174 44.246087,17.982087 C44.246087,18.4361739 43.8796522,18.8026087 43.4255652,18.8026087 C42.9726957,18.8026087 42.6062609,18.4361739 42.6062609,17.982087 C42.6062609,17.5292174 42.9726957,17.1627826 43.4255652,17.1627826" id="Fill-235" fill="#FFFFFF"></path>
                    <path d="M40.5817391,17.1627826 C41.0358261,17.1627826 41.4022609,17.5292174 41.4022609,17.982087 C41.4022609,18.4361739 41.0358261,18.8026087 40.5817391,18.8026087 C40.1288696,18.8026087 39.7624348,18.4361739 39.7624348,17.982087 C39.7624348,17.5292174 40.1288696,17.1627826 40.5817391,17.1627826" id="Fill-236" fill="#FFFFFF"></path>
                    <path d="M43.4255652,15.1212174 C43.8796522,15.1212174 44.246087,15.4888696 44.246087,15.9417391 C44.246087,16.3946087 43.8796522,16.7610435 43.4255652,16.7610435 C42.9726957,16.7610435 42.6062609,16.3946087 42.6062609,15.9417391 C42.6062609,15.4888696 42.9726957,15.1212174 43.4255652,15.1212174" id="Fill-237" fill="#FFFFFF"></path>
                    <path d="M40.5817391,15.1212174 C41.0358261,15.1212174 41.4022609,15.4888696 41.4022609,15.9417391 C41.4022609,16.3946087 41.0358261,16.7610435 40.5817391,16.7610435 C40.1288696,16.7610435 39.7624348,16.3946087 39.7624348,15.9417391 C39.7624348,15.4888696 40.1288696,15.1212174 40.5817391,15.1212174" id="Fill-238" fill="#FFFFFF"></path>
                    <path d="M43.4255652,13.0784348 C43.8796522,13.0784348 44.246087,13.4473043 44.246087,13.8989565 C44.246087,14.3518261 43.8796522,14.7194783 43.4255652,14.7194783 C42.9726957,14.7194783 42.6062609,14.3518261 42.6062609,13.8989565 C42.6062609,13.4473043 42.9726957,13.0784348 43.4255652,13.0784348" id="Fill-239" fill="#FFFFFF"></path>
                    <path d="M40.5817391,13.0784348 C41.0358261,13.0784348 41.4022609,13.4473043 41.4022609,13.8989565 C41.4022609,14.3518261 41.0358261,14.7194783 40.5817391,14.7194783 C40.1288696,14.7194783 39.7624348,14.3518261 39.7624348,13.8989565 C39.7624348,13.4473043 40.1288696,13.0784348 40.5817391,13.0784348" id="Fill-240" fill="#FFFFFF"></path>
                    <path d="M43.4255652,11.0368696 C43.8796522,11.0368696 44.246087,11.4045217 44.246087,11.8573913 C44.246087,12.3102609 43.8796522,12.677913 43.4255652,12.677913 C42.9726957,12.677913 42.6062609,12.3102609 42.6062609,11.8573913 C42.6062609,11.4045217 42.9726957,11.0368696 43.4255652,11.0368696" id="Fill-241" fill="#FFFFFF"></path>
                    <path d="M40.5817391,11.0368696 C41.0358261,11.0368696 41.4022609,11.4045217 41.4022609,11.8573913 C41.4022609,12.3102609 41.0358261,12.677913 40.5817391,12.677913 C40.1288696,12.677913 39.7624348,12.3102609 39.7624348,11.8573913 C39.7624348,11.4045217 40.1288696,11.0368696 40.5817391,11.0368696" id="Fill-242" fill="#FFFFFF"></path>
                    <path d="M43.4255652,8.99530435 C43.8796522,8.99530435 44.246087,9.36295652 44.246087,9.8146087 C44.246087,10.2686957 43.8796522,10.6351304 43.4255652,10.6351304 C42.9726957,10.6351304 42.6062609,10.2686957 42.6062609,9.8146087 C42.6062609,9.36295652 42.9726957,8.99530435 43.4255652,8.99530435" id="Fill-243" fill="#FFFFFF"></path>
                    <path d="M40.5817391,8.99530435 C41.0358261,8.99530435 41.4022609,9.36295652 41.4022609,9.8146087 C41.4022609,10.2686957 41.0358261,10.6351304 40.5817391,10.6351304 C40.1288696,10.6351304 39.7624348,10.2686957 39.7624348,9.8146087 C39.7624348,9.36295652 40.1288696,8.99530435 40.5817391,8.99530435" id="Fill-244" fill="#FFFFFF"></path>
                    <path d="M43.4255652,6.95373913 C43.8796522,6.95373913 44.246087,7.3213913 44.246087,7.77426087 C44.246087,8.22713043 43.8796522,8.59478261 43.4255652,8.59478261 C42.9726957,8.59478261 42.6062609,8.22713043 42.6062609,7.77426087 C42.6062609,7.3213913 42.9726957,6.95373913 43.4255652,6.95373913" id="Fill-245" fill="#FFFFFF"></path>
                    <path d="M40.5817391,6.95373913 C41.0358261,6.95373913 41.4022609,7.3213913 41.4022609,7.77426087 C41.4022609,8.22713043 41.0358261,8.59478261 40.5817391,8.59478261 C40.1288696,8.59478261 39.7624348,8.22713043 39.7624348,7.77426087 C39.7624348,7.3213913 40.1288696,6.95373913 40.5817391,6.95373913" id="Fill-246" fill="#FFFFFF"></path>
                    <path d="M43.4255652,4.91095652 C43.8796522,4.91095652 44.246087,5.27982609 44.246087,5.73147826 C44.246087,6.18556522 43.8796522,6.552 43.4255652,6.552 C42.9726957,6.552 42.6062609,6.18556522 42.6062609,5.73147826 C42.6062609,5.27982609 42.9726957,4.91095652 43.4255652,4.91095652" id="Fill-247" fill="#FFFFFF"></path>
                    <path d="M40.5817391,4.91095652 C41.0358261,4.91095652 41.4022609,5.27982609 41.4022609,5.73147826 C41.4022609,6.18556522 41.0358261,6.552 40.5817391,6.552 C40.1288696,6.552 39.7624348,6.18556522 39.7624348,5.73147826 C39.7624348,5.27982609 40.1288696,4.91095652 40.5817391,4.91095652" id="Fill-248" fill="#FFFFFF"></path>
                    <path d="M43.4255652,2.8693913 C43.8796522,2.8693913 44.246087,3.23704348 44.246087,3.68991304 C44.246087,4.14278261 43.8796522,4.51043478 43.4255652,4.51043478 C42.9726957,4.51043478 42.6062609,4.14278261 42.6062609,3.68991304 C42.6062609,3.23704348 42.9726957,2.8693913 43.4255652,2.8693913" id="Fill-249" fill="#FFFFFF"></path>
                    <path d="M40.5817391,2.8693913 C41.0358261,2.8693913 41.4022609,3.23704348 41.4022609,3.68991304 C41.4022609,4.14278261 41.0358261,4.51043478 40.5817391,4.51043478 C40.1288696,4.51043478 39.7624348,4.14278261 39.7624348,3.68991304 C39.7624348,3.23704348 40.1288696,2.8693913 40.5817391,2.8693913" id="Fill-250" fill="#FFFFFF"></path>
                    <path d="M43.4255652,0.829043478 C43.8796522,0.829043478 44.246087,1.19547826 44.246087,1.64713043 C44.246087,2.10243478 43.8796522,2.46765217 43.4255652,2.46765217 C42.9726957,2.46765217 42.6062609,2.10243478 42.6062609,1.64713043 C42.6062609,1.19547826 42.9726957,0.829043478 43.4255652,0.829043478" id="Fill-251" fill="#FFFFFF"></path>
                    <path d="M40.5817391,0.829043478 C41.0358261,0.829043478 41.4022609,1.19547826 41.4022609,1.64713043 C41.4022609,2.10243478 41.0358261,2.46765217 40.5817391,2.46765217 C40.1288696,2.46765217 39.7624348,2.10243478 39.7624348,1.64713043 C39.7624348,1.19547826 40.1288696,0.829043478 40.5817391,0.829043478" id="Fill-252" fill="#FFFFFF"></path>
                    <path d="M31.6448696,26.6815652 C32.2852174,26.6815652 32.8038261,27.2013913 32.8038261,27.8393043 C32.8038261,28.4796522 32.2852174,28.9982609 31.6448696,28.9982609 C31.0057391,28.9982609 30.4871304,28.4796522 30.4871304,27.8393043 C30.4871304,27.2013913 31.0057391,26.6815652 31.6448696,26.6815652" id="Fill-253" fill="#FFFFFF"></path>
                    <path d="M28.5782609,26.8653913 C29.2186087,26.8653913 29.7372174,27.3852174 29.7372174,28.0231304 C29.7372174,28.6646957 29.2186087,29.1833043 28.5782609,29.1833043 C27.937913,29.1833043 27.4193043,28.6646957 27.4193043,28.0231304 C27.4193043,27.3852174 27.937913,26.8653913 28.5782609,26.8653913" id="Fill-254" fill="#FFFFFF"></path>
                    <path d="M25.3886957,27.6652174 C26.0278261,27.6652174 26.5476522,28.1838261 26.5476522,28.8229565 C26.5476522,29.4633043 26.0278261,29.981913 25.3886957,29.981913 C24.7495652,29.981913 24.2309565,29.4633043 24.2309565,28.8229565 C24.2309565,28.1838261 24.7495652,27.6652174 25.3886957,27.6652174" id="Fill-255" fill="#FFFFFF"></path>
                    <path d="M22.5667826,28.7706087 C23.2071304,28.7706087 23.7257391,29.2904348 23.7257391,29.9295652 C23.7257391,30.5686957 23.2071304,31.0873043 22.5667826,31.0873043 C21.9276522,31.0873043 21.4090435,30.5686957 21.4090435,29.9295652 C21.4090435,29.2904348 21.9276522,28.7706087 22.5667826,28.7706087" id="Fill-256" fill="#FFFFFF"></path>
                    <path d="M19.6231304,30.246087 C20.2634783,30.246087 20.7808696,30.7646957 20.7808696,31.4050435 C20.7808696,32.0441739 20.2634783,32.5627826 19.6231304,32.5627826 C18.9827826,32.5627826 18.4653913,32.0441739 18.4653913,31.4050435 C18.4653913,30.7646957 18.9827826,30.246087 19.6231304,30.246087" id="Fill-257" fill="#FFFFFF"></path>
                    <path d="M17.0775652,31.9358261 C17.7166957,31.9358261 18.2365217,32.4556522 18.2365217,33.0947826 C18.2365217,33.7351304 17.7166957,34.2537391 17.0775652,34.2537391 C16.4372174,34.2537391 15.9198261,33.7351304 15.9198261,33.0947826 C15.9198261,32.4556522 16.4372174,31.9358261 17.0775652,31.9358261" id="Fill-258" fill="#FFFFFF"></path>
                    <path d="M14.6086957,33.9177391 C15.2478261,33.9177391 15.7676522,34.4375652 15.7676522,35.0766957 C15.7676522,35.7170435 15.2478261,36.2356522 14.6086957,36.2356522 C13.9695652,36.2356522 13.4509565,35.7170435 13.4509565,35.0766957 C13.4509565,34.4375652 13.9695652,33.9177391 14.6086957,33.9177391" id="Fill-259" fill="#FFFFFF"></path>
                    <path d="M12.3662609,35.8278261 C13.0066087,35.8278261 13.5252174,36.3452174 13.5252174,36.9855652 C13.5252174,37.625913 13.0066087,38.1445217 12.3662609,38.1445217 C11.7271304,38.1445217 11.2085217,37.625913 11.2085217,36.9855652 C11.2085217,36.3452174 11.7271304,35.8278261 12.3662609,35.8278261" id="Fill-260" fill="#FFFFFF"></path>
                    <path d="M10.2686957,38.0215652 C10.9078261,38.0215652 11.4264348,38.5413913 11.4264348,39.1817391 C11.4264348,39.8208696 10.9078261,40.3394783 10.2686957,40.3394783 C9.62834783,40.3394783 9.10973913,39.8208696 9.10973913,39.1817391 C9.10973913,38.5413913 9.62834783,38.0215652 10.2686957,38.0215652" id="Fill-261" fill="#FFFFFF"></path>
                    <path d="M8.2733913,40.5975652 C8.91252174,40.5975652 9.43234783,41.1161739 9.43234783,41.7565217 C9.43234783,42.3956522 8.91252174,42.9142609 8.2733913,42.9142609 C7.63426087,42.9142609 7.11565217,42.3956522 7.11565217,41.7565217 C7.11565217,41.1161739 7.63426087,40.5975652 8.2733913,40.5975652" id="Fill-262" fill="#FFFFFF"></path>
                    <path d="M6.3973913,42.868 C7.03773913,42.868 7.55634783,43.3878261 7.55634783,44.0269565 C7.55634783,44.666087 7.03773913,45.1846957 6.3973913,45.1846957 C5.75826087,45.1846957 5.23965217,44.666087 5.23965217,44.0269565 C5.23965217,43.3878261 5.75826087,42.868 6.3973913,42.868" id="Fill-263" fill="#FFFFFF"></path>
                    <path d="M4.5773913,45.0836522 C5.21773913,45.0836522 5.73634783,45.6034783 5.73634783,46.2413913 C5.73634783,46.8829565 5.21773913,47.4003478 4.5773913,47.4003478 C3.93826087,47.4003478 3.41965217,46.8829565 3.41965217,46.2413913 C3.41965217,45.6034783 3.93826087,45.0836522 4.5773913,45.0836522" id="Fill-264" fill="#FFFFFF"></path>
                    <path d="M51.9278261,26.8045217 C51.2874783,26.8045217 50.7688696,27.3231304 50.7688696,27.9622609 C50.7688696,28.6026087 51.2874783,29.1212174 51.9278261,29.1212174 C52.5669565,29.1212174 53.0855652,28.6026087 53.0855652,27.9622609 C53.0855652,27.3231304 52.5669565,26.8045217 51.9278261,26.8045217" id="Fill-265" fill="#FFFFFF"></path>
                    <path d="M54.9944348,26.9883478 C54.354087,26.9883478 53.8354783,27.5081739 53.8354783,28.146087 C53.8354783,28.7864348 54.354087,29.3050435 54.9944348,29.3050435 C55.6335652,29.3050435 56.1521739,28.7864348 56.1521739,28.146087 C56.1521739,27.5081739 55.6335652,26.9883478 54.9944348,26.9883478" id="Fill-266" fill="#FFFFFF"></path>
                    <path d="M58.184,27.7869565 C57.5448696,27.7869565 57.0250435,28.3067826 57.0250435,28.945913 C57.0250435,29.5862609 57.5448696,30.1036522 58.184,30.1036522 C58.8231304,30.1036522 59.3417391,29.5862609 59.3417391,28.945913 C59.3417391,28.3067826 58.8231304,27.7869565 58.184,27.7869565" id="Fill-267" fill="#FFFFFF"></path>
                    <path d="M61.0046957,28.8935652 C60.3655652,28.8935652 59.8469565,29.4133913 59.8469565,30.0513043 C59.8469565,30.6928696 60.3655652,31.2114783 61.0046957,31.2114783 C61.6450435,31.2114783 62.1636522,30.6928696 62.1636522,30.0513043 C62.1636522,29.4133913 61.6450435,28.8935652 61.0046957,28.8935652" id="Fill-268" fill="#FFFFFF"></path>
                    <path d="M63.9495652,30.3678261 C63.3092174,30.3678261 62.7906087,30.8876522 62.7906087,31.5267826 C62.7906087,32.1671304 63.3092174,32.6857391 63.9495652,32.6857391 C64.5886957,32.6857391 65.1073043,32.1671304 65.1073043,31.5267826 C65.1073043,30.8876522 64.5886957,30.3678261 63.9495652,30.3678261" id="Fill-269" fill="#FFFFFF"></path>
                    <path d="M66.4951304,32.0587826 C65.8547826,32.0587826 65.3361739,32.5786087 65.3361739,33.2177391 C65.3361739,33.8568696 65.8547826,34.3754783 66.4951304,34.3754783 C67.1354783,34.3754783 67.6528696,33.8568696 67.6528696,33.2177391 C67.6528696,32.5786087 67.1354783,32.0587826 66.4951304,32.0587826" id="Fill-270" fill="#FFFFFF"></path>
                    <path d="M68.964,34.041913 C68.3248696,34.041913 67.8050435,34.5605217 67.8050435,35.1996522 C67.8050435,35.84 68.3248696,36.3586087 68.964,36.3586087 C69.6031304,36.3586087 70.1217391,35.84 70.1217391,35.1996522 C70.1217391,34.5605217 69.6031304,34.041913 68.964,34.041913" id="Fill-271" fill="#FFFFFF"></path>
                    <path d="M71.2052174,35.9495652 C70.566087,35.9495652 70.0474783,36.4693913 70.0474783,37.1073043 C70.0474783,37.7488696 70.566087,38.2674783 71.2052174,38.2674783 C71.8455652,38.2674783 72.3629565,37.7488696 72.3629565,37.1073043 C72.3629565,36.4693913 71.8455652,35.9495652 71.2052174,35.9495652" id="Fill-272" fill="#FFFFFF"></path>
                    <path d="M73.304,38.1457391 C72.6648696,38.1457391 72.1450435,38.6643478 72.1450435,39.3034783 C72.1450435,39.9438261 72.6648696,40.4624348 73.304,40.4624348 C73.9431304,40.4624348 74.4617391,39.9438261 74.4617391,39.3034783 C74.4617391,38.6643478 73.9431304,38.1457391 73.304,38.1457391" id="Fill-273" fill="#FFFFFF"></path>
                    <path d="M75.2993043,40.7205217 C74.6601739,40.7205217 74.1403478,41.2403478 74.1403478,41.8782609 C74.1403478,42.5198261 74.6601739,43.0372174 75.2993043,43.0372174 C75.9384348,43.0372174 76.4570435,42.5198261 76.4570435,41.8782609 C76.4570435,41.2403478 75.9384348,40.7205217 75.2993043,40.7205217" id="Fill-274" fill="#FFFFFF"></path>
                    <path d="M77.1753043,42.9897391 C76.5349565,42.9897391 76.0163478,43.5095652 76.0163478,44.149913 C76.0163478,44.7890435 76.5349565,45.3076522 77.1753043,45.3076522 C77.8144348,45.3076522 78.3330435,44.7890435 78.3330435,44.149913 C78.3330435,43.5095652 77.8144348,42.9897391 77.1753043,42.9897391" id="Fill-275" fill="#FFFFFF"></path>
                    <path d="M78.994087,45.2066087 C78.3549565,45.2066087 77.8363478,45.7252174 77.8363478,46.3655652 C77.8363478,47.0046957 78.3549565,47.5233043 78.994087,47.5233043 C79.6344348,47.5233043 80.1530435,47.0046957 80.1530435,46.3655652 C80.1530435,45.7252174 79.6344348,45.2066087 78.994087,45.2066087" id="Fill-276" fill="#FFFFFF"></path>
                    <path d="M47.4405217,81.822087 C48.0686957,81.822087 48.5775652,82.3309565 48.5775652,82.9591304 C48.5775652,83.5873043 48.0686957,84.0961739 47.4405217,84.0961739 C46.8123478,84.0961739 46.3034783,83.5873043 46.3034783,82.9591304 C46.3034783,82.3309565 46.8123478,81.822087 47.4405217,81.822087" id="Fill-277" fill="#FFFFFF"></path>
                    <polyline id="Fill-278" fill="#B9362B" points="61.9542609 136.017913 60.3886957 118.756522 32.4398261 125.637217 24.0069565 123.826957 20.6335652 137.829391 43.6434783 139.037043 61.9542609 136.017913"></polyline>
                </g>
            </g>
        </g>
    </g>
</svg>