<?xml version="1.0" encoding="UTF-8"?>
<svg width="140px" height="140px" viewBox="0 0 140 140" version="1.1" xmlns="http://www.w3.org/2000/svg" xmlns:xlink="http://www.w3.org/1999/xlink">
    <!-- Generator: Sketch 41.1 (35376) - http://www.bohemiancoding.com/sketch -->
    <title>avatar-6</title>
    <desc>Created with Sketch.</desc>
    <defs>
        <circle id="path-1" cx="70" cy="70" r="70"></circle>
    </defs>
    <g id="Page-1" stroke="none" stroke-width="1" fill="none" fill-rule="evenodd">
        <g id="avatar-6">
            <mask id="mask-2" fill="white">
                <use xlink:href="#path-1"></use>
            </mask>
            <use id="Mask" fill="#FFE1D6" xlink:href="#path-1"></use>
            <g id="Group-7" mask="url(#mask-2)">
                <g transform="translate(25.000000, 1.000000)">
                    <path d="M46.7486486,57.6144144 C7.48558559,57.6144144 -7.21567568,108.235135 26.121982,136.981802 C97.1436036,135.507387 104.351712,57.6144144 46.7486486,57.6144144" id="Fill-81" fill="#852024"></path>
                    <path d="M30.5818018,111.484144 L61.0248649,111.484144 C59.0774775,121.328288 59.8569369,129.226306 61.0248649,136.846847 C51.374955,141.085946 41.1171171,140.143784 30.5818018,136.846847 C33.4637838,129.056036 33.4637838,120.601802 30.5818018,111.484144" id="Fill-82" fill="#F8CDA1"></path>
                    <path d="M30.5818018,111.484144 L61.0248649,111.484144 C60.2693694,115.305766 59.9237838,118.833514 59.8531532,122.165766 C52.8922523,126.38973 42.0365766,126.493153 32.7259459,123.560721 C32.6111712,119.673514 31.8985586,115.647568 30.5818018,111.484144" id="Fill-83" fill="#EB9166"></path>
                    <path d="M34.323964,19.9708108 C19.8623423,24.5517117 10.7282883,35.6772973 11.6906306,63.5234234 C12.3136937,81.6099099 20.7654054,123.321081 45.7333333,123.135676 C70.5448649,122.949009 78.8944144,81.6300901 79.5174775,63.5234234 C80.4810811,35.6772973 71.347027,24.5517117 56.8854054,19.9708108 C49.7037838,17.698018 41.5043243,17.698018 34.323964,19.9708108" id="Fill-84" fill="#F8CDA1"></path>
                    <path d="M51.0747748,94.6942342 C50.5942342,97.3327928 48.2747748,99.3457658 45.5012613,99.3457658 C42.7277477,99.3457658 40.4082883,97.3327928 39.9277477,94.6942342 C41.3845045,95.6830631 43.347027,96.2922523 45.5012613,96.2922523 C47.6554955,96.2922523 49.618018,95.6830631 51.0747748,94.6942342" id="Fill-85" fill="#EB9166"></path>
                    <path d="M19.3187387,71.7733333 C21.5221622,77.169009 24.1783784,78.5198198 28.6281081,79.012973 C31.2338739,79.3018018 33.3616216,78.8881081 36.3810811,80.3915315 C32.0057658,74.2353153 25.4055856,71.6648649 19.3187387,71.7733333" id="Fill-86" fill="#0A0A08"></path>
                    <path d="M21.4931532,71.8565766 C22.0720721,75.961982 23.8933333,77.9762162 28.7353153,78.1994595 C31.0774775,78.3079279 32.4282883,77.8954955 34.9823423,78.5273874 C31.1556757,73.3864865 27.3428829,71.7518919 21.4931532,71.8565766" id="Fill-87" fill="#FFFFFF"></path>
                    <path d="M41.043964,72.7369369 C39.6124324,72.5590991 38.7913514,72.5553153 37.327027,72.3787387 C29.7607207,67.1344144 26.0286486,63.694955 16.4657658,64.0544144 C27.0036036,61.4372973 37.4493694,69.4021622 41.043964,72.7369369" id="Fill-88" fill="#0A0A08"></path>
                    <path d="M24.1922523,77.0088288 C25.2832432,77.7176577 26.7576577,78.1086486 28.7353153,78.1994595 C29.5210811,78.236036 30.1945946,78.2133333 30.8403604,78.1906306 C31.5025225,77.4754955 31.9086486,76.5207207 31.9086486,75.4726126 C31.9086486,75.3590991 31.9023423,75.2468468 31.8935135,75.1358559 C30.0066667,73.5163964 27.9987387,72.5868468 25.649009,72.152973 C24.5857658,72.8756757 23.8857658,74.0953153 23.8857658,75.4726126 C23.8857658,76.014955 23.9942342,76.5345946 24.1922523,77.0088288" id="Fill-89" fill="#93B93E"></path>
                    <path d="M27.3088288,78.0682883 C27.4828829,78.0935135 27.6594595,78.1162162 27.8423423,78.1338739 C27.86,78.1338739 27.8789189,78.1351351 27.8965766,78.1351351 C29.3634234,78.1351351 30.5590991,76.9381982 30.5590991,75.4726126 C30.5590991,74.7877477 30.298018,74.1596396 29.8691892,73.6879279 C29.2776577,73.3436036 28.6697297,73.0535135 28.0390991,72.8138739 C27.9911712,72.8113514 27.9445045,72.8088288 27.8965766,72.8088288 C26.430991,72.8088288 25.2340541,74.0057658 25.2340541,75.4726126 C25.2340541,76.7376577 26.1245045,77.8009009 27.3088288,78.0682883" id="Fill-90" fill="#0A0A08"></path>
                    <path d="M22.0745946,70.4767568 C20.8209009,71.5072072 18.4245045,71.6572973 16.2866667,71.2675676 C18.2075676,72.5515315 21.2825225,72.5464865 22.7581982,71.2461261 C22.5299099,70.9900901 22.3028829,70.7327928 22.0745946,70.4767568" id="Fill-91" fill="#0A0A08"></path>
                    <path d="M23.6082883,70.7416216 C22.5210811,71.9473874 20.1738739,72.4481081 18.0007207,72.3774775 C20.0893694,73.3637838 23.1302703,72.9059459 24.4003604,71.4025225 C24.1354955,71.1818018 23.8718919,70.9623423 23.6082883,70.7416216" id="Fill-92" fill="#0A0A08"></path>
                    <path d="M24.9061261,71.3621622 C23.8176577,72.5666667 21.4704505,73.0686486 19.2972973,72.9967568 C21.3872072,73.9843243 24.4268468,73.5252252 25.6969369,72.0230631 C25.4333333,71.8023423 25.1697297,71.5816216 24.9061261,71.3621622" id="Fill-93" fill="#0A0A08"></path>
                    <path d="M26.0551351,72.3383784 C25.0763964,73.4230631 22.9663063,73.8733333 21.0113514,73.8102703 C22.8906306,74.6981982 25.625045,74.2845045 26.7664865,72.9336937 C26.5293694,72.7356757 26.2922523,72.5376577 26.0551351,72.3383784" id="Fill-94" fill="#0A0A08"></path>
                    <path d="M27.8511712,72.8668468 C26.8736937,73.9515315 24.9792793,74.345045 23.0230631,73.9099099 C24.9906306,75.1837838 27.4210811,74.812973 28.5625225,73.4621622 C28.3254054,73.2641441 28.0882883,73.0661261 27.8511712,72.8668468" id="Fill-95" fill="#0A0A08"></path>
                    <path d="M36.7190991,80.9956757 C34.9987387,75.1585586 27.889009,70.6609009 22.1212613,70.4540541 C21.6016216,70.6331532 20.5963964,71.1578378 18.5922523,71.8641441 C29.1414414,71.7392793 35.3481081,79.2526126 36.7190991,80.9956757" id="Fill-96" fill="#0A0A08"></path>
                    <path d="M29.9637838,77.2976577 C29.5072072,77.2976577 29.1326126,76.9243243 29.1326126,76.4664865 C29.1326126,76.0086486 29.5072072,75.6353153 29.9637838,75.6353153 C30.4228829,75.6353153 30.7962162,76.0086486 30.7962162,76.4664865 C30.7962162,76.9243243 30.4228829,77.2976577 29.9637838,77.2976577" id="Fill-97" fill="#FFFFFF"></path>
                    <path d="M71.7266667,71.7733333 C69.5245045,77.169009 66.867027,78.5198198 62.4172973,79.012973 C59.8127928,79.3018018 57.6837838,78.8881081 54.6643243,80.3915315 C59.0409009,74.2353153 65.6410811,71.6648649 71.7266667,71.7733333" id="Fill-98" fill="#0A0A08"></path>
                    <path d="M69.5522523,71.8565766 C68.9745946,75.961982 67.1520721,77.9762162 62.3100901,78.1994595 C59.9679279,78.3079279 58.6171171,77.8954955 56.0643243,78.5273874 C59.8897297,73.3864865 63.7025225,71.7518919 69.5522523,71.8565766" id="Fill-99" fill="#FFFFFF"></path>
                    <path d="M50.0027027,72.7369369 C51.432973,72.5590991 52.2540541,72.5553153 53.7183784,72.3787387 C61.2846847,67.1344144 65.0167568,63.694955 74.5796396,64.0544144 C64.0418018,61.4372973 53.596036,69.4021622 50.0027027,72.7369369" id="Fill-100" fill="#0A0A08"></path>
                    <path d="M66.8544144,77.0088288 C65.7634234,77.7176577 64.289009,78.1086486 62.3100901,78.1994595 C61.5243243,78.236036 60.8508108,78.2133333 60.205045,78.1906306 C59.5441441,77.4754955 59.138018,76.5207207 59.138018,75.4726126 C59.138018,75.3590991 59.1430631,75.2468468 59.1518919,75.1358559 C61.04,73.5163964 63.0466667,72.5868468 65.3976577,72.152973 C66.4596396,72.8756757 67.1609009,74.0953153 67.1609009,75.4726126 C67.1609009,76.014955 67.0511712,76.5345946 66.8544144,77.0088288" id="Fill-101" fill="#93B93E"></path>
                    <path d="M63.7365766,78.0682883 C63.5637838,78.0935135 63.3859459,78.1162162 63.2043243,78.1338739 C63.1866667,78.1338739 63.1677477,78.1351351 63.1488288,78.1351351 C61.6832432,78.1351351 60.4863063,76.9381982 60.4863063,75.4726126 C60.4863063,74.7877477 60.7486486,74.1596396 61.1762162,73.6879279 C61.7677477,73.3436036 62.3756757,73.0535135 63.0075676,72.8138739 C63.0542342,72.8113514 63.1009009,72.8088288 63.1488288,72.8088288 C64.6156757,72.8088288 65.8113514,74.0057658 65.8113514,75.4726126 C65.8113514,76.7376577 64.9221622,77.8009009 63.7365766,78.0682883" id="Fill-102" fill="#0A0A08"></path>
                    <path d="M68.9720721,70.4767568 C70.2245045,71.5072072 72.6209009,71.6572973 74.7587387,71.2675676 C72.8390991,72.5515315 69.7641441,72.5464865 68.2872072,71.2461261 C68.5154955,70.9900901 68.7437838,70.7327928 68.9720721,70.4767568" id="Fill-103" fill="#0A0A08"></path>
                    <path d="M67.4371171,70.7416216 C68.5243243,71.9473874 70.8715315,72.4481081 73.0459459,72.3774775 C70.956036,73.3637838 67.9151351,72.9059459 66.6463063,71.4025225 C66.9099099,71.1818018 67.1735135,70.9623423 67.4371171,70.7416216" id="Fill-104" fill="#0A0A08"></path>
                    <path d="M66.1405405,71.3621622 C67.2277477,72.5666667 69.574955,73.0686486 71.7481081,72.9967568 C69.6594595,73.9843243 66.6185586,73.5252252 65.3497297,72.0230631 C65.6133333,71.8023423 65.8769369,71.5816216 66.1405405,71.3621622" id="Fill-105" fill="#0A0A08"></path>
                    <path d="M64.9902703,72.3383784 C65.969009,73.4230631 68.0803604,73.8733333 70.0340541,73.8102703 C68.1547748,74.6981982 65.4203604,74.2845045 64.2789189,72.9336937 C64.516036,72.7356757 64.7531532,72.5376577 64.9902703,72.3383784" id="Fill-106" fill="#0A0A08"></path>
                    <path d="M63.1942342,72.8668468 C64.1717117,73.9515315 66.0661261,74.345045 68.0223423,73.9099099 C66.0547748,75.1837838 63.6243243,74.812973 62.4828829,73.4621622 C62.7212613,73.2641441 62.9571171,73.0661261 63.1942342,72.8668468" id="Fill-107" fill="#0A0A08"></path>
                    <path d="M54.3263063,80.9956757 C56.0479279,75.1585586 63.1563964,70.6609009 68.9254054,70.4540541 C69.445045,70.6331532 70.449009,71.1578378 72.4531532,71.8641441 C61.9052252,71.7392793 55.6972973,79.2526126 54.3263063,80.9956757" id="Fill-108" fill="#0A0A08"></path>
                    <path d="M61.0816216,77.2976577 C61.5394595,77.2976577 61.9127928,76.9243243 61.9127928,76.4664865 C61.9127928,76.0086486 61.5394595,75.6353153 61.0816216,75.6353153 C60.6225225,75.6353153 60.2504505,76.0086486 60.2504505,76.4664865 C60.2504505,76.9243243 60.6225225,77.2976577 61.0816216,77.2976577" id="Fill-109" fill="#FFFFFF"></path>
                    <path d="M39.1785586,108.885946 C40.0324324,108.785045 40.8522523,108.59964 41.5699099,108.32973 C42.7403604,107.885766 44.0445045,108.377658 45.5012613,108.377658 C46.958018,108.377658 48.2634234,107.885766 49.4326126,108.32973 C50.1502703,108.59964 50.9713514,108.783784 51.8252252,108.884685 C48.2899099,110.388108 42.7138739,110.386847 39.1785586,108.885946" id="Fill-110" fill="#FFFFFF"></path>
                    <path d="M39.2063063,108.232613 C38.3751351,108.307027 37.5452252,108.383964 36.7153153,108.458378 C37.8428829,109.236577 38.4230631,112.029009 40.1661261,113.551351 C41.4387387,114.662523 43.6686486,114.601982 45.5012613,114.601982 C47.3351351,114.601982 49.565045,114.662523 50.8363964,113.551351 C52.5807207,112.029009 53.1596396,109.236577 54.2884685,108.458378 C53.4572973,108.383964 52.6273874,108.307027 51.7974775,108.232613 C48.8776577,110.354054 42.1248649,110.354054 39.2063063,108.232613" id="Fill-111" fill="#B9362B"></path>
                    <path d="M43.0317117,103.835856 C40.8207207,103.216577 37.9273874,107.885766 34.6708108,107.74955 C35.8311712,109.027207 39.8672072,109.425766 42.3645045,108.47982 C43.2978378,108.126667 44.3396396,108.518919 45.5012613,108.518919 C46.6628829,108.518919 47.7046847,108.126667 48.638018,108.47982 C51.1353153,109.425766 55.1713514,109.027207 56.3317117,107.74955 C53.0751351,107.885766 50.1805405,103.20018 47.9708108,103.835856 C45.9830631,104.407207 45.0724324,104.407207 43.0317117,103.835856" id="Fill-112" fill="#852024"></path>
                    <path d="M16.0432432,90.2924324 C7.34936937,80.8455856 0.768108108,67.3778378 0.768108108,52.5668468 C0.768108108,34.1864865 9.14666667,17.9944144 21.7227027,8.81369369 C36.1805405,-1.74306306 55.1347748,-1.70774775 69.5610811,8.88936937 C82.0790991,18.0852252 90.410991,34.2381982 90.410991,52.5668468 C90.410991,67.3778378 84.9661261,80.7673874 76.2735135,90.212973 C81.8028829,76.1259459 75.8736937,66.3133333 76.1587387,60.0234234 C77.1059459,39.1306306 58.1466667,26.4688288 45.5895495,36.9032432 C33.0324324,26.4688288 13.8801802,39.1306306 14.8261261,60.0234234 C15.1111712,66.3133333 10.5138739,76.2041441 16.0432432,90.2924324" id="Fill-113" fill="#852024"></path>
                    <path d="M36.8906306,30.1227027 C4.46990991,39.7423423 28.9156757,115.332252 7.95981982,120.431532 C30.7987387,119.478018 5.39315315,38.1228829 39.9163964,31.4772973 C38.9073874,31.0257658 37.8983784,30.5742342 36.8906306,30.1227027" id="Fill-114" fill="#852024"></path>
                    <path d="M60.0776577,27.6140541 C92.4996396,37.2336937 65.7571171,117.00973 82.2581982,129.94018 C60.7675676,123.722162 88.4699099,36.6951351 53.9479279,30.0495495 C54.9556757,29.598018 59.0699099,28.0668468 60.0776577,27.6140541" id="Fill-115" fill="#852024"></path>
                    <path d="M52.914955,28.5448649 C85.3356757,38.1632432 60.8899099,113.754414 81.847027,118.853694 C59.0055856,117.90018 84.4124324,36.545045 49.8904505,29.8994595 C50.8981982,29.4479279 51.9059459,28.9963964 52.914955,28.5448649" id="Fill-116" fill="#852024"></path>
                    <path d="M31.6551351,29.4718919 C-5.89009009,37.3648649 19.238018,113.145225 2.72432432,119.781982 C25.5645045,118.828468 0.157657658,37.4720721 34.6809009,30.8264865 C33.6718919,30.374955 32.6641441,29.9246847 31.6551351,29.4718919" id="Fill-117" fill="#852024"></path>
                </g>
            </g>
        </g>
    </g>
</svg>