<?xml version="1.0" encoding="UTF-8"?>
<svg width="140px" height="140px" viewBox="0 0 140 140" version="1.1" xmlns="http://www.w3.org/2000/svg" xmlns:xlink="http://www.w3.org/1999/xlink">
    <!-- Generator: Sketch 41.1 (35376) - http://www.bohemiancoding.com/sketch -->
    <title>avatar-8</title>
    <desc>Created with Sketch.</desc>
    <defs>
        <circle id="path-1" cx="70" cy="70" r="70"></circle>
    </defs>
    <g id="Page-1" stroke="none" stroke-width="1" fill="none" fill-rule="evenodd">
        <g id="avatar-8">
            <mask id="mask-2" fill="white">
                <use xlink:href="#path-1"></use>
            </mask>
            <use id="Mask" fill="#FFE1D6" xlink:href="#path-1"></use>
            <g id="Group-9" mask="url(#mask-2)">
                <g transform="translate(16.478632, 5.000000)">
                    <path d="M26.5089744,98.7884615 C38.7205128,100.521795 52.7705128,105.597436 64.9820513,107.332051 C62.3884615,121.503846 61.7269231,133.789744 64.9820513,141.929487 C55.0717949,144.762821 39.3846154,146.35 27.0576923,141.929487 C29.3179487,131.603846 25.8602564,113.89359 26.5089744,98.7884615" id="Fill-712" fill="#EFC283"></path>
                    <path d="M26.5089744,98.7884615 C38.7205128,100.521795 52.7705128,105.598718 64.9820513,107.332051 C64.1538462,111.857692 63.5217949,116.191026 63.1512821,120.257692 C53.2833333,126.982051 39.3948718,131.015385 27.6358974,126.307692 C27.1807692,117.605128 26.124359,107.739744 26.5089744,98.7884615" id="Fill-713" fill="#D5A36B"></path>
                    <path d="M89.65,60.2269231 C88.8525641,77.6576923 112.185897,78.2294872 105.775641,102.438462 C102.898718,113.298718 72.474359,138.997436 102.784615,146.537179 C93.3076923,147.346154 76.5846154,148.616667 68.9538462,141.783333 C57.8961538,121.067949 63.3474359,65.4833333 89.65,60.2269231" id="Fill-714" fill="#FCF6C4"></path>
                    <path d="M89.65,60.2269231 C94.9628205,69.7166667 93.9141026,77.2884615 102.588462,83.8384615 C106.452564,107.082051 79.9794872,118.832051 76.6705128,133.5 C75.6128205,138.185897 75.7397436,144.419231 82.1512821,149.351282 C77.0935897,147.430769 70.6666667,141.657692 71.9628205,132.407692 C74.275641,115.892308 95.7307692,106.187179 96.3641026,85.8410256 C93.3346154,109.05641 60.4153846,114.997436 68.9538462,141.783333 C57.8948718,121.069231 63.3461538,65.4833333 89.65,60.2269231" id="Fill-715" fill="#F4D988"></path>
                    <path d="M89.65,60.2269231 C90.9910256,62.6205128 91.924359,64.8923077 92.7128205,67.0564103 C93.3705128,97.2512821 69.2205128,102.752564 64.7333333,128.416667 C60.3923077,103.419231 67.875641,64.5782051 89.65,60.2269231" id="Fill-716" fill="#BE9352"></path>
                    <polyline id="Fill-717" fill="#BE9352" points="21.1487179 73.6166667 13.125641 80.8910256 18.3961538 93.8512821 23.7576923 98.0051282 28.1974359 100.147436 22.8807692 87.9128205 21.1487179 73.6166667"></polyline>
                    <path d="M47.9769231,7.58333333 C32.2794872,11.025641 20.3269231,21.8871795 18.6628205,51.3589744 C18.2628205,58.4628205 17.2846154,67.3474359 18.2717949,76.7179487 C19.9884615,93.024359 30.1717949,119.632051 49.8782051,121.428205 C60.5217949,122.397436 73.2230769,108.205128 79.6423077,98.9012821 C89.0897436,85.2076923 89.8833333,69.1576923 91.3076923,57.8641026 C94.9987179,28.575641 86.4320513,15.9589744 71.6141026,9.73717949 C64.2384615,6.63974359 55.7910256,5.87051282 47.9769231,7.58333333" id="Fill-718" fill="#EFC283"></path>
                    <path d="M58.3615385,93.9961538 C57.6012821,96.7346154 54.9615385,98.6346154 52.0346154,98.3679487 C49.1076923,98.1012821 46.8551282,95.7551282 46.6012821,92.924359 C48.0435897,94.1076923 50.0551282,94.9397436 52.3282051,95.1461538 C54.6012821,95.3538462 56.7307692,94.9 58.3615385,93.9961538" id="Fill-719" fill="#D5A36B"></path>
                    <path d="M44.3205128,106.644872 C45.2628205,106.617949 46.175641,106.498718 46.9858974,106.274359 C48.3064103,105.90641 49.6807692,106.571795 51.2692308,106.716667 C52.8576923,106.861538 54.3307692,106.45641 55.5628205,107.05641 C56.3192308,107.423077 57.1961538,107.705128 58.1179487,107.9 C54.1115385,109.188462 48.0282051,108.632051 44.3205128,106.644872" id="Fill-720" fill="#FFFFFF"></path>
                    <path d="M44.4166667,105.933333 L41.675641,105.933333 C42.8282051,106.89359 43.1846154,109.997436 44.9346154,111.830769 C46.2115385,113.169231 48.65,113.325641 50.65,113.507692 C52.65,113.689744 55.0769231,113.976923 56.575641,112.892308 C58.6282051,111.403846 59.5384615,108.415385 60.8461538,107.679487 C59.9487179,107.514103 59.0512821,107.348718 58.1512821,107.183333 C54.7564103,109.208974 47.3897436,108.537179 44.4166667,105.933333" id="Fill-721" fill="#E77E64"></path>
                    <path d="M49.0269231,101.517949 C46.675641,100.621795 43.0564103,105.428205 39.5166667,104.955128 C40.6551282,106.466667 45.0192308,107.3 47.8371795,106.517949 C48.8910256,106.224359 49.9884615,106.755128 51.2551282,106.870513 C52.5230769,106.987179 53.6974359,106.662821 54.6807692,107.141026 C57.3102564,108.420513 61.7538462,108.388462 63.1461538,107.108974 C59.5807692,106.933333 56.8884615,101.534615 54.4141026,102.007692 C52.1884615,102.433333 51.1974359,102.34359 49.0269231,101.517949" id="Fill-722" fill="#D8674C"></path>
                    <path d="M24.9820513,66.6064103 C27.5410256,72.8871795 30.6333333,74.4615385 35.8102564,75.0384615 C38.8410256,75.3782051 40.3641026,74.8102564 44.3641026,76.2974359 C39.275641,69.1320513 32.0653846,66.4846154 24.9820513,66.6064103" id="Fill-723" fill="#AC8557"></path>
                    <path d="M27.5128205,66.7038462 C28.1820513,71.4833333 30.3012821,73.8282051 35.9346154,74.0923077 C38.6602564,74.2205128 40.2333333,73.7410256 43.2038462,74.4794872 C38.7564103,68.4923077 34.3205128,66.5871795 27.5128205,66.7038462" id="Fill-724" fill="#FFFFFF"></path>
                    <path d="M50.5076923,69.2820513 C48.8666667,68.9269231 47.9166667,68.8346154 46.2371795,68.475641 C38.0230769,61.6 34.0602564,57.2192308 22.9410256,56.625641 C35.4282051,54.7051282 46.6935897,65.0397436 50.5076923,69.2820513" id="Fill-725" fill="#AC8557"></path>
                    <path d="M30.6487179,72.7012821 C31.9179487,73.5282051 33.6333333,73.9846154 35.9358974,74.0923077 C36.85,74.1346154 37.6346154,74.1089744 38.3858974,74.0833333 C39.1564103,73.2525641 39.6294872,72.1397436 39.6307692,70.9205128 C39.6307692,70.7897436 39.624359,70.6576923 39.6128205,70.5307692 C37.4179487,68.6435897 35.0820513,67.5589744 32.3487179,67.0538462 C31.1102564,67.8935897 30.2948718,69.3115385 30.2935897,70.9141026 C30.2935897,71.5474359 30.4205128,72.15 30.6487179,72.7012821" id="Fill-726" fill="#91C33F"></path>
                    <path d="M34.275641,73.9397436 C34.4782051,73.9666667 34.6833333,73.9935897 34.8961538,74.0153846 C34.9166667,74.0153846 34.9384615,74.0166667 34.9602564,74.0166667 C36.6666667,74.0179487 38.0589744,72.625641 38.0602564,70.9192308 C38.0615385,70.1217949 37.7564103,69.3923077 37.2589744,68.8423077 C36.5705128,68.4423077 35.8641026,68.1038462 35.1294872,67.824359 C35.074359,67.8205128 35.0192308,67.8192308 34.9641026,67.8192308 C33.2576923,67.8179487 31.8653846,69.2089744 31.8641026,70.9153846 C31.8628205,72.3884615 32.8974359,73.625641 34.275641,73.9397436" id="Fill-727" fill="#0A0A08"></path>
                    <path d="M45.7974359,78.6974359 C42.9346154,70.5615385 36.9089744,65.3897436 28.2435897,65.074359 C27.6397436,65.2820513 24.2948718,67.4679487 22.8423077,64.8423077 C23.5961538,67.3461538 25.5653846,66.7217949 26.2551282,66.7641026 C34.8551282,67.3012821 40.9512821,71.7615385 45.7974359,78.6974359" id="Fill-728" fill="#0A0A08"></path>
                    <path d="M37.3666667,73.0448718 C36.8333333,73.0448718 36.4,72.6089744 36.4,72.0769231 C36.4,71.5435897 36.8346154,71.1089744 37.3679487,71.1089744 C37.9012821,71.1102564 38.3346154,71.5448718 38.3346154,72.0782051 C38.3346154,72.6115385 37.9,73.0448718 37.3666667,73.0448718" id="Fill-729" fill="#FFFFFF"></path>
                    <path d="M30.2974359,66.1012821 C28.2230769,67.8064103 24.0807692,68.2 23.8512821,64.6076923 C23.5987179,66.7717949 25.2602564,67.8782051 26.1692308,68.0461538 C28.0307692,68.3884615 29.9858974,67.7897436 31.2064103,66.5679487 C31.0730769,66.4089744 30.5923077,66.1346154 30.2974359,66.1012821" id="Fill-730" fill="#0A0A08"></path>
                    <path d="M32.1192308,66.9935897 C30.0448718,68.6987179 25.9012821,69.0935897 25.6717949,65.5012821 C25.4205128,67.6641026 27.0820513,68.7717949 27.9910256,68.9371795 C29.8525641,69.2807692 31.8064103,68.6820513 33.0282051,67.4602564 C32.8948718,67.3012821 32.4141026,67.0269231 32.1192308,66.9935897" id="Fill-731" fill="#0A0A08"></path>
                    <path d="M34.2346154,67.6397436 C32.1602564,69.3448718 28.0166667,69.7384615 27.7871795,66.1487179 C27.5358974,68.3102564 29.1961538,69.4166667 30.1051282,69.5846154 C31.9679487,69.9282051 33.9217949,69.3294872 35.1435897,68.1076923 C35.0102564,67.9474359 34.5294872,67.674359 34.2346154,67.6397436" id="Fill-732" fill="#0A0A08"></path>
                    <path d="M83.925641,72.2166667 C80.274359,77.9307692 76.95,78.9217949 71.7525641,78.5525641 C68.7102564,78.3384615 67.3141026,77.5064103 63.1128205,78.2448718 C69.4128205,72.1166667 76.9820513,70.8166667 83.925641,72.2166667" id="Fill-733" fill="#AC8557"></path>
                    <path d="M81.4192308,71.8551282 C79.8974359,76.4346154 77.3897436,78.3576923 71.8012821,77.5987179 C69.0974359,77.2320513 67.6371795,76.4769231 64.5820513,76.6666667 C70.0384615,71.5820513 74.7461538,70.5102564 81.4192308,71.8551282" id="Fill-734" fill="#FFFFFF"></path>
                    <path d="M58.3384615,70.2358974 C60.0166667,70.1807692 60.9679487,70.2641026 62.6846154,70.2141026 C72.0064103,64.9346154 76.6948718,61.3435897 87.7384615,62.7692308 C75.8038462,58.624359 62.8564103,66.7512821 58.3384615,70.2358974" id="Fill-735" fill="#AC8557"></path>
                    <path d="M77.2512821,77.1871795 C75.8538462,77.7705128 74.0846154,77.9089744 71.8,77.5987179 C70.8935897,77.4769231 70.1269231,77.3089744 69.3923077,77.1487179 C68.7858974,76.1910256 68.5205128,75.0128205 68.7397436,73.8128205 C68.7641026,73.6846154 68.7935897,73.5564103 68.8269231,73.4307692 C71.3269231,71.9730769 73.8205128,71.3282051 76.6012821,71.325641 C77.6666667,72.374359 78.2128205,73.9166667 77.924359,75.4935897 C77.8102564,76.1153846 77.5769231,76.6858974 77.2512821,77.1871795" id="Fill-736" fill="#91C33F"></path>
                    <path d="M73.4602564,77.7487179 C73.2576923,77.7410256 73.05,77.7294872 72.8371795,77.7115385 C72.8166667,77.7076923 72.7948718,77.7051282 72.774359,77.7012821 C71.0961538,77.3948718 69.9769231,75.7730769 70.2846154,74.0961538 C70.4282051,73.3115385 70.8589744,72.6487179 71.4487179,72.1961538 C72.1974359,71.9269231 72.9538462,71.7230769 73.7269231,71.5807692 C73.7807692,71.5884615 73.8346154,71.5961538 73.8897436,71.6051282 C75.5679487,71.9128205 76.6871795,73.5320513 76.3794872,75.2115385 C76.1141026,76.6589744 74.8730769,77.6897436 73.4602564,77.7487179" id="Fill-737" fill="#0A0A08"></path>
                    <path d="M61.2692308,80.3461538 C65.5551282,72.8628205 72.4153846,68.8641026 80.9948718,70.1192308 C81.5525641,70.4333333 84.4474359,73.1884615 86.35,70.8679487 C85.1551282,73.1948718 83.3320513,72.224359 82.6461538,72.1423077 C74.0910256,71.1166667 67.2884615,74.4 61.2692308,80.3461538" id="Fill-738" fill="#0A0A08"></path>
                    <path d="M70.5833333,76.3102564 C71.1064103,76.4064103 71.6128205,76.0564103 71.7089744,75.5333333 C71.8051282,75.0089744 71.4551282,74.5025641 70.9307692,74.4064103 C70.4064103,74.3115385 69.9012821,74.6602564 69.8051282,75.1846154 C69.7089744,75.7089744 70.0589744,76.2141026 70.5833333,76.3102564" id="Fill-739" fill="#FFFFFF"></path>
                    <path d="M78.7897436,70.7576923 C80.5217949,72.8102564 84.525641,73.9474359 85.4,70.4564103 C85.2576923,72.6294872 83.4230769,73.4179487 82.4987179,73.4179487 C80.6064103,73.4192308 78.7923077,72.475641 77.8115385,71.0551282 C77.9705128,70.9205128 78.4935897,70.7397436 78.7897436,70.7576923" id="Fill-740" fill="#0A0A08"></path>
                    <path d="M76.8371795,71.3064103 C78.5692308,73.3602564 82.5730769,74.4948718 83.4487179,71.0051282 C83.3051282,73.1782051 81.4705128,73.9653846 80.5461538,73.9666667 C78.6538462,73.9666667 76.8397436,73.025641 75.8589744,71.6038462 C76.0179487,71.4692308 76.5410256,71.2871795 76.8371795,71.3064103" id="Fill-741" fill="#0A0A08"></path>
                    <path d="M74.6397436,71.5602564 C76.3717949,73.6128205 80.375641,74.75 81.2512821,71.2589744 C81.1076923,73.4320513 79.274359,74.2205128 78.3487179,74.2205128 C76.4564103,74.2217949 74.6423077,73.2782051 73.6615385,71.8576923 C73.8217949,71.7230769 74.3435897,71.5423077 74.6397436,71.5602564" id="Fill-742" fill="#0A0A08"></path>
                    <path d="M60.274359,6.54102564 C84.9012821,2.09102564 98.2538462,25.85 95.9628205,60.8141026 C94.5564103,82.2692308 116.011538,80.6064103 112.283333,102.14359 C112.976923,84.6064103 89.5166667,82.7076923 85.4730769,67.3141026 C82.2269231,54.9487179 81.1923077,47.1512821 78.9064103,41.4705128 C73.9448718,29.1320513 66.6871795,25.0179487 58.2820513,30.0846154 C57.0846154,31 54.7653846,31.5948718 51.3410256,30.0897436 C46.4653846,23.0602564 35.3512821,25.6769231 32.9102564,35.6961538 C30.8948718,43.9679487 33.5987179,49.0871795 32.5089744,57.5333333 C31.2692308,67.1358974 17.2871795,77.9320513 17.3294872,82.1384615 C17.3910256,88.1282051 18.4705128,92.4923077 23.6923077,98.0128205 C12.9641026,90.7679487 1.13205128,81.2435897 0.352564103,56.4025641 C-0.317948718,35.0474359 34.6461538,-17.5038462 60.274359,6.54102564" id="Fill-743" fill="#F4D988"></path>
                    <path d="M51.3423077,30.0897436 C38.8307692,29.1410256 36.2897436,31.5448718 31.5782051,48.5730769 C24.4987179,35.2615385 38.5987179,11.7205128 51.3423077,30.0897436" id="Fill-744" fill="#BE9352"></path>
                    <path d="M58.2820513,30.0846154 C57.0846154,31 54.7653846,31.5948718 51.3410256,30.0897436 C46.4653846,23.0602564 35.3512821,25.6769231 32.9102564,35.6961538 C30.8948718,43.9679487 33.5987179,49.0871795 32.5089744,57.5333333 C31.2692308,67.1358974 17.2871795,77.9320513 17.3294872,82.1384615 C17.3910256,88.1282051 18.5371795,92.4846154 23.7589744,98.0051282 C20.6141026,96.3551282 16.1615385,91.7269231 15.8615385,81.4064103 C15.7282051,76.8012821 28.3564103,68.3269231 29.724359,57.724359 C30.9282051,48.4038462 27.9064103,42.7397436 30.1679487,33.6192308 C34.5371795,16.0051282 51.0474359,19.0525641 56.5410256,26.1461538 C68.1012821,19.2128205 78.0512821,25.5179487 82.4282051,36.2525641 C85.3666667,43.4602564 86.2666667,56.0820513 90.825641,68.0230769 C95.775641,80.9923077 112.976923,84.6064103 112.283333,102.14359 C112.976923,84.6064103 89.5166667,82.7076923 85.4730769,67.3141026 C82.2269231,54.9487179 81.1923077,47.1512821 78.9064103,41.4705128 C73.9448718,29.1320513 66.6871795,25.0179487 58.2820513,30.0846154" id="Fill-745" fill="#FCF6C4"></path>
                    <path d="M22.9410256,56.625641 C21.8589744,64.1692308 14.8166667,67.6615385 10.5820513,73.4102564 C-2.98076923,91.8217949 23.1089744,107.520513 39.1615385,109.098718 C22.674359,109.85 -8.37948718,91.1615385 8.24871795,71.0435897 C12.975641,65.324359 18.6833333,64.2987179 19.9307692,56.3192308 C22.0512821,42.7692308 19.0525641,25.3179487 31.2679487,15.6782051 C37.3410256,10.8858974 45.975641,10.9294872 55.0705128,19.6230769 C46.8666667,14.0487179 38.2602564,13.7371795 33.0320513,18.1333333 C23.1692308,26.4269231 24.8115385,43.5782051 22.9410256,56.625641" id="Fill-746" fill="#FCF6C4"></path>
                    <path d="M56.0897436,30.6153846 C54.8692308,30.575641 53.9089744,29.7512821 53.8769231,28.3987179 C70.3076923,24.1423077 78.3948718,39.0564103 74.1820513,59.2589744 C75.9666667,36.324359 65.6679487,25.1474359 56.0897436,30.6153846" id="Fill-747" fill="#FCF6C4"></path>
                    <path d="M53.4846154,28.0333333 C54.0551282,26.9666667 53.9692308,26.075641 53.4448718,25.2923077 C38.575641,23.8307692 33.5846154,43.2615385 40.1179487,70.8705128 C35.1897436,42.6115385 43.1769231,24.1089744 53.4846154,28.0333333" id="Fill-748" fill="#FCF6C4"></path>
                </g>
            </g>
        </g>
    </g>
</svg>