<?xml version="1.0" encoding="UTF-8" standalone="no"?>
<svg width="140px" height="140px" viewBox="0 0 140 140" version="1.1" xmlns="http://www.w3.org/2000/svg" xmlns:xlink="http://www.w3.org/1999/xlink">
    <!-- Generator: Sketch 3.6.1 (26313) - http://www.bohemiancoding.com/sketch -->
    <title>Group 13</title>
    <desc>Created with Sketch.</desc>
    <defs>
        <circle id="path-1" cx="70" cy="70" r="70"></circle>
    </defs>
    <g id="Page-1" stroke="none" stroke-width="1" fill="none" fill-rule="evenodd">
        <g id="taurus-man-secrets" transform="translate(-330.000000, -4308.000000)">
            <g id="testimonials" transform="translate(330.000000, 3802.000000)">
                <g id="Group-15" transform="translate(0.000000, 506.000000)">
                    <g id="Group-13">
                        <mask id="mask-2" fill="white">
                            <use xlink:href="#path-1"></use>
                        </mask>
                        <use id="Mask" fill="#FFE1D6" xlink:href="#path-1"></use>
                        <g mask="url(#mask-2)">
                            <g transform="translate(23.000000, 0.000000)">
                                <path d="M88.6962421,33.5995506 C88.5841444,40.7015235 84.4268053,51.0091055 82.9711559,55.5111622 C81.5160467,60.0142991 85.2833398,63.277156 75.7339662,74.2236456 C69.3465582,81.5459686 66.0841099,86.3223829 65.3142823,87.7946246 C64.2737996,89.7812867 60.6023973,90.5476517 56.9728628,88.2531474 C51.8401386,85.0078428 88.7907823,27.6949218 88.6962421,33.5995506" id="Fill-96" stroke="none" fill="#97433C" fill-rule="evenodd"></path>
                                <path d="M85.5310352,18.8441893 C85.5310352,18.8441893 86.5717881,14.4933533 77.8395122,10.1122732 C65.5973628,3.97055185 46.9005467,-8.08335937 29.0829547,8.08537552 C-15.5273384,48.5690512 43.4503685,83.5018465 43.4503685,83.5018465 C43.4503685,83.5018465 86.0064375,55.2551671 92.4084318,37.8569538 C98.3506904,21.7082017 85.5310352,18.8441893 85.5310352,18.8441893" id="Fill-97" stroke="none" fill="#461516" fill-rule="evenodd"></path>
                                <path d="M26.9142019,46.4759945 C26.9142019,46.4759945 33.3315927,56.44414 32.4431846,66.2140784 C31.5069662,76.5332719 28.4527766,101.19656 25.2143685,103.346055 L14.2028628,142.776046 L78.6387823,137.653175 C78.6387823,137.653175 61.5145754,120.257932 52.6656099,110.078887 C51.9708743,109.279848 50.7110582,107.986641 51.4638685,105.64434 C55.5496272,92.9315383 58.5208915,81.9442732 58.5208915,81.9442732 L26.9142019,46.4759945" id="Fill-98" stroke="none" fill="#F1AE86" fill-rule="evenodd"></path>
                                <path d="M46.0672421,37.7286862 C49.7969892,29.1064051 58.4317536,29.5047097 70.1342134,23.7164668 C76.2820295,20.6769304 79.8091904,20.5740463 82.6467478,21.9377331 C86.3894605,23.7372596 88.5646961,27.2472004 88.5622651,33.1537195 C88.5520007,50.5006258 83.8095927,52.5882818 82.8363685,55.0658712 C81.1087134,59.4623435 85.1488226,62.8307849 75.5986386,73.7783546 C69.2117708,81.1001375 65.6654318,86.1835839 64.8945237,87.6558256 C63.8551214,89.6422177 59.7115582,89.2530944 57.8002249,88.0390081 C52.6731731,84.7815518 40.6179432,78.6044557 40.946403,68.0260266 C41.1217076,62.3741523 43.0333111,44.7401967 46.0672421,37.7286862" id="Fill-99" stroke="none" fill="#F1AE86" fill-rule="evenodd"></path>
                                <path d="M44.4832881,41.9137195 C44.4832881,41.9137195 42.0927708,34.5814051 38.9378283,35.6772152 C35.7826157,36.7716752 34.1000697,43.0913509 35.9622421,48.2360956 C37.4873111,52.4500229 41.2108455,57.1278737 43.4398341,54.4067109 C45.3519777,52.071431 44.4832881,41.9137195 44.4832881,41.9137195" id="Fill-100" stroke="none" fill="#F1AE86" fill-rule="evenodd"></path>
                                <path d="M78.0523628,45.669124 C78.0523628,45.669124 74.0614145,49.7261597 73.9241961,53.8725777 C73.8142593,57.2275173 74.8930984,66.3264137 74.4863053,67.3020574 C73.7837363,68.9816875 68.3425409,68.255288 68.3425409,68.255288 L70.2916904,69.2001474 C70.2916904,69.2001474 73.8337076,69.4094261 75.1313398,67.9517664 C76.158857,66.7968182 74.2013341,56.3995839 74.8409662,53.5768872 C75.6912881,49.8287738 78.0523628,45.669124 78.0523628,45.669124" id="Fill-101" stroke="none" fill="#CF6D54" fill-rule="evenodd"></path>
                                <path d="M57.0241846,87.5545617 C57.0241846,87.5545617 46.1255869,80.7174951 43.728857,76.4409193 C41.9093628,73.197505 39.5204662,70.0164692 39.5204662,70.0164692 C39.5204662,70.0164692 41.3323973,75.78878 43.1105639,79.5358133 C52.3487651,99.0057504 57.0241846,87.5545617 57.0241846,87.5545617" id="Fill-102" stroke="none" fill="#972F28" fill-rule="evenodd"></path>
                                <path d="M66.6024605,39.2919304 C66.6024605,39.2919304 71.6638743,39.5935617 69.4951214,49.0021906 C68.9335524,51.4344137 66.5668053,52.363071 66.5668053,52.363071 C66.5668053,52.363071 66.1119318,50.8630155 64.9650237,49.2352325 C63.8197363,47.6085297 62.7327938,46.9218256 62.7327938,46.9218256 C62.7327938,46.9218256 64.6711386,47.9479661 65.783472,46.6809526 C66.5200754,45.8422177 66.6024605,39.2919304 66.6024605,39.2919304" id="Fill-103" stroke="none" fill="#DE9671" fill-rule="evenodd"></path>
                                <path d="M71.3645869,41.2448379 C71.3645869,41.2448379 67.6667134,33.0659575 59.8136616,32.2960821 C56.0579835,31.9266715 50.4479662,35.0728724 50.4479662,35.0728724 C50.4479662,35.0728724 56.9496329,35.901886 59.4498168,34.7941943 C63.9391272,32.8034816 69.1539662,45.6099859 71.3645869,41.2448379" id="Fill-104" stroke="none" fill="#1A1918" fill-rule="evenodd"></path>
                                <path d="M42.4201501,43.2698453 C42.4201501,43.2698453 41.6627478,37.6606369 39.3165295,38.0235666 C36.9700409,38.3867664 37.0680927,43.0800093 37.0680927,43.0800093 C37.0680927,43.0800093 38.23688,37.6052793 39.3889203,38.8134248 C40.5401501,40.0210303 40.4326444,42.3862843 39.7533053,43.81478 C39.073426,45.2435457 40.1093168,47.5804458 41.5579432,46.6080426 C43.0035984,45.6361795 42.650018,44.4909526 42.4201501,43.2698453" id="Fill-105" stroke="none" fill="#CF6D54" fill-rule="evenodd"></path>
                                <path d="M67.3641846,50.7582411 C67.3641846,50.7582411 67.1440409,43.1159242 59.9773513,42.6995272 C57.0795582,42.5312941 54.2101272,43.2855075 54.2101272,43.2855075 C54.2101272,43.2855075 56.3518685,41.0755247 61.0815812,41.7435962 C68.2798743,42.7610956 67.3641846,50.7582411 67.3641846,50.7582411" id="Fill-106" stroke="none" fill="#B2674F" fill-rule="evenodd"></path>
                                <path d="M84.0575582,43.1680414 C84.0575582,43.1680414 78.5942134,43.4683225 76.5664605,47.9271733 C74.5384375,52.3857541 74.5635582,54.5660327 74.5635582,54.5660327 L80.9420524,51.8297479 C80.9420524,51.8297479 80.4885295,49.8333644 80.8458915,47.5288687 C81.2010927,45.2243731 84.0575582,43.1680414 84.0575582,43.1680414" id="Fill-107" stroke="none" fill="#DE9671" fill-rule="evenodd"></path>
                                <path d="M74.6891616,55.0375173 L82.1659432,56.8710685 C82.1602708,56.8208416 83.3838915,55.0772128 82.5330295,54.1415346 C81.6840582,53.2047763 78.2665639,51.8259674 76.7077306,52.538325 C75.1470065,53.2490623 74.443357,54.7291351 74.443357,54.7291351 L74.6891616,55.0375173" id="Fill-108" stroke="none" fill="#FDE5D5" fill-rule="evenodd"></path>
                                <path d="M79.2270927,52.5250932 C79.2270927,52.5250932 81.4725582,52.3306665 80.7915984,54.9554261 C80.3110639,56.8067997 77.5656157,55.9143274 76.3357823,55.4965802 C75.054357,55.0623607 75.089472,53.0343829 76.4451789,52.5180722 C77.8006157,52.0017615 78.6225754,52.4740562 79.2270927,52.5250932" id="Fill-109" stroke="none" fill="#2A2F22" fill-rule="evenodd"></path>
                                <path d="M77.9159547,52.4845876 C78.4197191,52.4527232 79.6965524,52.7119588 79.8605122,53.8218108 C80.0236616,54.9303126 79.1536214,55.7447442 78.0010409,55.6764248 C76.8479203,55.6102658 76.3617134,54.5347084 76.5013628,53.8039883 C76.6707249,52.9163768 77.4840409,52.5132115 77.9159547,52.4845876" id="Fill-110" stroke="none" fill="#1A1918" fill-rule="evenodd"></path>
                                <path d="M83.2907019,57.2556012 C83.2907019,57.2556012 82.7126559,56.4106554 81.4941674,56.3164125 C78.0815352,56.0517763 75.622949,55.2281634 74.4698283,54.9532658 C74.0354835,54.8493015 77.8122306,56.0363842 79.9620754,56.5656567 C82.1111099,57.0951992 83.2907019,57.2556012 83.2907019,57.2556012" id="Fill-111" stroke="none" fill="#1A1918" fill-rule="evenodd"></path>
                                <path d="M74.6167708,53.1461782 C75.2193973,52.8342855 76.9232823,50.9318749 79.7689432,51.2140636 C81.5816846,51.3939082 83.3090697,53.3441153 83.3090697,53.3441153 C83.3090697,53.3441153 83.4095524,47.9306838 79.5020697,48.458066 C74.4004088,49.1477405 74.6167708,53.1461782 74.6167708,53.1461782" id="Fill-112" stroke="none" fill="#B2674F" fill-rule="evenodd"></path>
                                <path d="M74.5751731,54.0764557 C75.1783398,53.7645629 76.8819547,51.8629625 79.7273455,52.144341 C81.5408973,52.3244557 83.2682823,54.2738527 83.2682823,54.2738527 C83.2682823,54.2738527 83.3679547,48.8609612 79.4607421,49.3888835 C74.3593513,50.0777479 74.5751731,54.0764557 74.5751731,54.0764557" id="Fill-113" stroke="none" fill="#DE9671" fill-rule="evenodd"></path>
                                <path d="M82.5932651,53.9592596 C82.5932651,53.9592596 82.4095869,55.560849 83.2952938,56.0925518 C84.4578685,56.7905975 85.9942823,57.3962904 85.9942823,57.3962904 C85.9942823,57.3962904 84.3827766,56.2742867 83.6699432,55.6540118 C82.672949,54.7877331 82.5932651,53.9592596 82.5932651,53.9592596" id="Fill-114" stroke="none" fill="#1A1918" fill-rule="evenodd"></path>
                                <path d="M68.3736042,68.1804877 C68.3736042,68.1804877 71.2465467,68.8955457 72.941518,68.0676123 C73.7977823,67.6501351 71.1050065,65.6305284 69.0415984,64.9748786 C65.1881386,63.751341 65.4771616,66.1633114 65.4771616,66.1633114 L68.3736042,68.1804877" id="Fill-115" stroke="none" fill="#DE9671" fill-rule="evenodd"></path>
                                <path d="M70.7770869,67.5388798 C71.2117019,67.3371622 70.2852076,65.6848059 68.9427363,65.7612263 C67.5994547,65.8384569 66.8604203,66.4112054 66.8604203,66.4112054 C66.8604203,66.4112054 67.8325639,66.6645001 68.8114605,66.8764791 C69.7922478,67.0892682 70.5526214,67.6406838 70.7770869,67.5388798" id="Fill-116" stroke="none" fill="#8B4235" fill-rule="evenodd"></path>
                                <path d="M77.8395122,45.8927146 C77.8395122,45.8927146 86.996949,42.2137306 87.2265467,46.2434927 C87.2759777,47.1130118 88.2862076,43.1683114 85.7800812,42.5248133 C80.9647421,41.289394 77.8395122,45.8927146 77.8395122,45.8927146" id="Fill-117" stroke="none" fill="#1A1918" fill-rule="evenodd"></path>
                                <path d="M57.5268685,61.2178539 C57.5268685,61.2178539 58.5727536,68.6487319 49.3931674,72.949341 C46.7930409,74.1672078 41.070926,51.443865 41.070926,51.443865 L57.5268685,61.2178539" id="Fill-118" stroke="none" fill="#EE9F87" fill-rule="evenodd"></path>
                                <path d="M42.556018,52.699537 C42.3904375,52.0776419 41.7672823,51.7085013 41.1660065,51.8734939 C40.5641904,52.0406468 40.2111501,52.6800944 40.3761904,53.3030697 C40.5431214,53.9249649 41.1654662,54.2951856 41.7653915,54.1280327 C42.3685582,53.96196 42.7218685,53.3222424 42.556018,52.699537" id="Fill-119" stroke="none" fill="#F8F8F6" fill-rule="evenodd"></path>
                                <path d="M82.9989777,59.4121166 C82.9989777,59.4121166 83.3533685,61.400939 82.4706329,64.3745864 C81.9150065,66.2432424 80.9852708,66.9866542 80.9852708,66.9866542 C80.9852708,66.9866542 83.6267249,67.6501351 84.524857,66.5667467 C85.6153111,65.2513965 87.1892708,60.4695814 87.1892708,60.4695814 L82.9989777,59.4121166" id="Fill-120" stroke="none" fill="#D4CCC6" fill-rule="evenodd"></path>
                                <path d="M49.1697823,37.4621597 C49.5860295,37.3276813 57.325903,34.7175038 59.095426,35.3531708 C60.8641386,35.9901881 61.0286386,37.8356209 61.0286386,37.8356209 L49.1697823,37.4621597" id="Fill-121" stroke="none" fill="#F4BC9C" fill-rule="evenodd"></path>
                                <path d="M72.2378685,56.6904137 L72.7678341,64.9681277 L71.77138,65.0861338 L72.2378685,56.6904137" id="Fill-122" stroke="none" fill="#F4BC9C" fill-rule="evenodd"></path>
                                <path d="M60.1437421,81.3628835 C60.1437421,81.3628835 65.5738628,82.5831807 65.3045582,83.5469427 C65.0363341,84.5112448 63.2227823,86.7944076 61.4159835,85.9321795 C59.6091846,85.0691412 59.3974145,82.1289785 60.1437421,81.3628835" id="Fill-123" stroke="none" fill="#F4BC9C" fill-rule="evenodd"></path>
                                <path d="M74.4055409,54.6899797 C74.4055409,54.6899797 76.2636616,52.0581992 79.2270927,52.5250932 C82.1910639,52.991177 82.7229203,55.9237787 82.7229203,55.9237787 C82.7229203,55.9237787 83.5700007,55.0739723 83.4136042,54.3829477 C83.2588283,53.691923 81.6057249,51.9050882 78.8362363,51.9455938 C75.2925984,51.998251 74.4055409,54.6899797 74.4055409,54.6899797" id="Fill-124" stroke="none" fill="#1A1918" fill-rule="evenodd"></path>
                                <path d="M80.9150409,52.4154581 C80.9150409,52.4154581 81.4182651,53.254193 82.7704605,53.1324063 C84.122926,53.0092695 85.0148455,52.6155555 85.0148455,52.6155555 C85.0148455,52.6155555 83.4670869,52.8018811 82.3550237,52.6952165 C81.8045295,52.6414791 80.9150409,52.4154581 80.9150409,52.4154581" id="Fill-125" stroke="none" fill="#1A1918" fill-rule="evenodd"></path>
                                <path d="M82.4862996,53.3065802 C82.4862996,53.3065802 82.9892536,54.1461252 84.3409088,54.0246086 C85.6939145,53.9017417 86.5861042,53.5074877 86.5861042,53.5074877 C86.5861042,53.5074877 85.0378053,53.6943533 83.9257421,53.5860685 C83.3768685,53.5331412 82.4862996,53.3065802 82.4862996,53.3065802" id="Fill-126" stroke="none" fill="#1A1918" fill-rule="evenodd"></path>
                                <path d="M82.806926,53.8793287 C82.806926,53.8793287 83.008972,54.8363398 84.3271329,55.1606542 C85.6461042,55.4855087 86.6177076,55.4020673 86.6177076,55.4020673 C86.6177076,55.4020673 85.0923685,55.0755925 84.0761961,54.611939 C83.5748628,54.3832177 82.806926,53.8793287 82.806926,53.8793287" id="Fill-127" stroke="none" fill="#1A1918" fill-rule="evenodd"></path>
                                <path d="M53.1880122,59.6681116 C51.0738226,57.006357 52.1499605,51.0577121 52.1499605,51.0577121 C52.1499605,51.0577121 68.7477134,55.0221252 69.9291961,55.363992 C69.9291961,55.363992 63.628495,60.6002793 61.4610927,61.2003015 C60.4008915,61.4946419 55.2106329,62.2172608 53.1880122,59.6681116" id="Fill-128" stroke="none" fill="#DE9671" fill-rule="evenodd"></path>
                                <path d="M76.6861214,65.0345568 C74.0392651,62.3601104 75.1299892,57.9374446 74.3995984,56.4344187 C74.3995984,56.4344187 81.8717881,58.5542091 81.9277019,59.2306517 C81.984426,59.9097948 81.4260984,67.4079119 79.9331731,66.8124803 C78.3281501,66.1716825 77.486472,65.8425075 76.6861214,65.0345568" id="Fill-129" stroke="none" fill="#DE9671" fill-rule="evenodd"></path>
                                <path d="M87.3880754,60.2716443 L74.4863053,56.6334359 L86.9775007,61.0898564 L87.3880754,60.2716443" id="Fill-130" stroke="none" fill="#EDE5E1" fill-rule="evenodd"></path>
                                <path d="M68.8363111,56.3985038 C68.8363111,56.3985038 66.9760295,55.0064631 64.9488168,56.6674606 C62.9218743,58.3279181 63.61688,60.3318626 63.61688,60.3318626 L68.8363111,56.3985038" id="Fill-131" stroke="none" fill="#343433" fill-rule="evenodd"></path>
                                <path d="M74.2415812,57.0257997 C74.2415812,57.0257997 75.3555352,58.2609489 75.5597421,60.1320352 C75.7644892,62.0023114 75.1715869,62.4889181 75.1715869,62.4889181 L74.2415812,57.0257997" id="Fill-132" stroke="none" fill="#343433" fill-rule="evenodd"></path>
                                <path d="M43.4503685,39.4242485 L48.6981616,47.2285876 L48.5676961,50.1655099 L44.4973341,42.0870833 L43.4503685,39.4242485" id="Fill-133" stroke="none" fill="#343433" fill-rule="evenodd"></path>
                                <path d="M79.1163455,51.9666567 C79.1163455,51.9666567 80.0722823,52.0360562 80.769449,52.0171536 C82.3844662,51.9720574 83.5621674,51.4157812 83.5621674,51.4157812 C83.5621674,51.4157812 82.2040295,52.3825136 81.0271386,52.3063632 C80.0069145,52.2402041 79.1163455,51.9666567 79.1163455,51.9666567" id="Fill-134" stroke="none" fill="#1A1918" fill-rule="evenodd"></path>
                                <path d="M49.1538455,48.6778761 C49.1538455,48.6778761 49.0987421,49.480156 49.2281272,51.6944594 C49.4285524,55.1379711 50.7161904,56.6272251 50.7161904,56.6272251 C50.7161904,56.6272251 49.8658685,54.9935013 50.1508398,50.9675198 C50.2418685,49.6870044 50.7931731,49.2630463 50.7931731,49.2630463 L49.1538455,48.6778761" id="Fill-135" stroke="none" fill="#F8F8F6" fill-rule="evenodd"></path>
                                <path d="M40.6811501,72.0349957 L34.6440812,103.330123 L38.1277536,104.574453 L48.6981616,88.4092288 C48.6981616,88.4092288 46.1874432,84.8436604 43.8450065,79.1731536 C42.4768743,75.86196 40.6811501,72.0349957 40.6811501,72.0349957" id="Fill-136" stroke="none" fill="#DE9671" fill-rule="evenodd"></path>
                                <path d="M53.0915812,46.7336098 C53.0915812,46.7336098 56.5133973,43.7777849 60.96138,45.8705716 C65.4085524,47.9649785 66.2302421,51.5440488 66.2302421,51.5440488 C66.2302421,51.5440488 65.9971329,52.5202325 64.9085697,52.4813472 C54.4175754,52.1216579 53.0915812,46.7336098 53.0915812,46.7336098" id="Fill-137" stroke="none" fill="#FEE6D0" fill-rule="evenodd"></path>
                                <path d="M54.7730467,45.5243842 C53.9780984,46.1276468 52.6496731,48.3605827 54.2898111,50.4625506 C54.5661386,50.82278 54.7943858,51.487611 57.0190524,52.1894372 C57.7651099,52.4267997 58.9752249,52.2326431 59.1718685,52.1384002 C61.7247249,50.939706 61.7898226,48.2450068 61.0226961,46.8021992 C59.9168455,44.7234544 55.5682651,44.9227417 54.7730467,45.5243842" id="Fill-138" stroke="none" fill="#2A2F22" fill-rule="evenodd"></path>
                                <path d="M54.0901961,47.9814507 C54.0901961,47.9814507 53.9824203,49.0675395 54.2927823,49.6721523 C54.811403,50.6939723 55.6249892,51.2834631 57.2189375,51.7265938 C58.7426559,52.1548724 59.2631674,51.6366715 59.8133915,51.232156 C60.4376272,50.7749834 60.669926,49.8139218 60.669926,49.8139218 C60.669926,49.8139218 60.4414088,48.7745494 57.7929318,48.0970266 C55.6700984,47.5520919 54.0901961,47.9814507 54.0901961,47.9814507" id="Fill-139" stroke="none" fill="#3F4729" fill-rule="evenodd"></path>
                                <path d="M58.0300927,46.0028897 C56.9715122,45.7614766 56.4393858,46.0085605 55.9404835,46.4133459 C55.4402306,46.8170512 54.6714835,50.0086184 57.165995,50.4771326 C60.418449,51.0868761 60.0262421,47.8672251 59.7663915,47.2496505 C59.5057306,46.6342362 59.0889432,46.2451129 58.0300927,46.0028897" id="Fill-140" stroke="none" fill="#1A1918" fill-rule="evenodd"></path>
                                <path d="M62.4969835,49.7258897 C62.1436731,49.4658441 60.432495,48.0543607 59.9889662,48.5812029 C59.5732593,49.0667294 61.4716272,50.538161 61.7800984,50.7776838 C62.6776904,51.4778897 63.3940352,50.3836998 62.4969835,49.7258897" id="Fill-141" stroke="none" fill="#FFFFFF" fill-rule="evenodd"></path>
                                <path d="M81.7405122,55.0537195 C81.4477076,54.8368798 80.0263628,53.6654594 79.6581961,54.1031893 C79.3121789,54.5063546 80.8891099,55.7290821 81.1451789,55.9272892 C81.890426,56.5092189 82.4854892,55.6002744 81.7405122,55.0537195" id="Fill-142" stroke="none" fill="#FFFFFF" fill-rule="evenodd"></path>
                                <path d="M66.1908053,51.2451178 C66.1908053,51.2451178 64.1662938,47.0914088 59.8860524,46.2950697 C54.9823858,45.3839649 53.786857,46.7006653 53.4159892,46.6288354 C52.1569835,46.3790512 50.9547019,45.1954791 50.9547019,45.1954791 C50.9547019,45.1954791 52.2442306,45.8805629 52.4387134,45.6626431 C52.5513513,45.5346456 52.1153858,45.2640685 51.9727651,45.1592941 C51.793949,45.026706 51.3223283,44.4258737 51.3223283,44.4258737 C51.3223283,44.4258737 51.9371099,44.8725149 52.3598398,45.0734224 C52.616449,45.1941289 53.1175122,45.3853151 53.2898455,45.3348182 C53.7104145,45.2081708 53.0513341,45.0040229 52.7893226,44.7177837 C52.4470869,44.3445925 52.3825295,43.9938145 52.3825295,43.9938145 C52.3825295,43.9938145 52.9527421,44.8919575 55.5361214,44.9413743 C57.1743685,44.9724285 60.599426,44.1820303 64.0890409,47.472701 C65.9398685,49.21687 66.1908053,51.2451178 66.1908053,51.2451178" id="Fill-143" stroke="none" fill="#1A1918" fill-rule="evenodd"></path>
                                <path d="M52.6431904,46.8918515 C52.6431904,46.8918515 54.5828858,49.6100438 58.4098743,50.9939834 C61.5569835,52.1316493 66.0511559,52.72087 66.0511559,52.72087 C66.0511559,52.72087 62.2036386,54.4372251 57.502018,52.5337343 C53.1023858,50.7536505 52.6431904,46.8918515 52.6431904,46.8918515" id="Fill-144" stroke="none" fill="#CB8D6F" fill-rule="evenodd"></path>
                                <path d="M52.4903053,48.8436788 C52.4903053,48.8436788 53.3611559,48.8288268 54.2576674,49.0529575 C54.8011386,49.1874359 55.4159203,49.9068145 56.7632536,50.516828 C58.6443341,51.3660944 61.6363973,52.0554988 62.5766674,52.2088798 C63.670903,52.384944 64.5949662,52.4105975 64.5949662,52.4105975 C64.5949662,52.4105975 60.9867708,51.9364125 58.2361904,50.7544606 C55.48588,49.574939 54.4202766,48.5501486 54.1277421,48.5555494 C53.2142134,48.5668909 52.4903053,48.8436788 52.4903053,48.8436788" id="Fill-145" stroke="none" fill="#1A1918" fill-rule="evenodd"></path>
                                <path d="M51.9335984,47.9814507 C51.9335984,47.9814507 52.4878743,47.9158317 53.2390639,48.041669 C53.7206789,48.1229501 54.505903,48.7761696 54.505903,48.7761696 L54.6447421,48.8139748 C54.6447421,48.8139748 53.847903,48.0589514 53.6885352,47.939595 C53.5270065,47.8194285 52.9765122,47.6058293 51.9335984,47.9814507" id="Fill-146" stroke="none" fill="#1A1918" fill-rule="evenodd"></path>
                                <path d="M51.7520812,47.3066283 C51.7520812,47.3066283 52.1378053,47.2069846 52.6958628,47.3933102 C53.1607306,47.5475013 54.1947306,48.3589625 54.1947306,48.3589625 C54.1947306,48.3589625 53.4308455,47.5315691 53.2998398,47.3789982 C53.1680237,47.2256172 52.4297996,46.830283 51.7520812,47.3066283" id="Fill-147" stroke="none" fill="#1A1918" fill-rule="evenodd"></path>
                                <path d="M60.3692881,42.5661289 C60.3692881,42.5661289 60.178857,44.2935555 60.2434145,44.7545087 C60.2839318,45.0450685 60.6615524,45.370193 60.6615524,45.370193 L59.3860697,45.0734224 C59.3860697,45.0734224 59.7420812,44.8833163 59.9287306,44.6405531 C60.1175409,44.3983299 60.3692881,42.5661289 60.3692881,42.5661289" id="Fill-148" stroke="none" fill="#1A1918" fill-rule="evenodd"></path>
                                <path d="M59.2496616,41.7870722 C59.2496616,41.7870722 59.2912593,43.8539353 59.2899088,44.4112917 C59.288018,44.8816961 59.6316042,45.2184322 59.6316042,45.2184322 L58.4328341,45.0013225 C58.4328341,45.0013225 58.745357,44.8765654 58.9430812,44.3651153 C59.1389145,43.8542054 59.2496616,41.7870722 59.2496616,41.7870722" id="Fill-149" stroke="none" fill="#1A1918" fill-rule="evenodd"></path>
                                <path d="M57.4571789,44.8981684 C57.4571789,44.8981684 57.8034662,44.9238219 57.9285295,44.5282177 C58.0327938,44.1987726 57.8915237,42.6806246 57.8915237,42.6806246 C57.8915237,42.6806246 58.1430007,44.2425186 58.2550984,44.5711536 C58.3655754,44.8984384 58.6351501,44.975669 58.6351501,44.975669 L57.4571789,44.8981684" id="Fill-150" stroke="none" fill="#1A1918" fill-rule="evenodd"></path>
                                <path d="M60.1818283,45.3369785 C60.1818283,45.3369785 60.8460409,45.4001671 61.3190122,44.7804322 C61.7214835,44.2546702 62.4526846,42.413288 62.4526846,42.413288 C62.4526846,42.413288 61.8719375,44.4539575 61.8462766,45.078283 C61.818995,45.7242115 62.2376731,46.1376382 62.2376731,46.1376382 L60.1818283,45.3369785" id="Fill-151" stroke="none" fill="#1A1918" fill-rule="evenodd"></path>
                                <path d="M64.0342076,44.749378 C64.0342076,44.749378 63.3192134,46.1719329 62.7606157,46.1846246 C62.4950927,46.1911055 61.9608053,45.9348404 61.9608053,45.9348404 L63.4086214,46.9296567 C63.4086214,46.9296567 63.2389892,46.6488182 63.2976042,46.4705938 C63.4132134,46.1179255 64.0342076,44.749378 64.0342076,44.749378" id="Fill-152" stroke="none" fill="#1A1918" fill-rule="evenodd"></path>
                                <path d="M57.9201559,45.0331869 C57.9201559,45.0331869 57.5039088,44.9497454 57.0825295,44.6505444 C56.8599547,44.493653 56.5133973,43.1666912 56.5133973,43.1666912 C56.5133973,43.1666912 56.7473168,44.3400019 56.6503455,44.625701 C56.594972,44.7890734 56.0976904,44.9951116 56.0976904,44.9951116 L57.9201559,45.0331869" id="Fill-153" stroke="none" fill="#1A1918" fill-rule="evenodd"></path>
                                <path d="M56.6281961,45.0315666 C56.6281961,45.0315666 56.1427996,44.9181511 55.8953743,44.7728712 C55.5072191,44.5436098 54.8886559,43.3586875 54.8886559,43.3586875 C54.8886559,43.3586875 55.4361789,44.5004039 55.6109432,44.902759 C55.6711789,45.0439883 55.3478513,45.1835975 55.3478513,45.1835975 L56.6281961,45.0315666" id="Fill-154" stroke="none" fill="#1A1918" fill-rule="evenodd"></path>
                                <path d="M58.7866846,51.1460142 C58.7866846,51.1460142 58.5176501,51.0884964 58.3685467,51.3814865 C58.324518,51.4678983 58.1432708,52.0309255 58.1432708,52.0309255 C58.1432708,52.0309255 58.3158743,51.3579933 58.2432134,51.2186542 C58.1713628,51.0812054 58.019018,51.0074853 58.019018,51.0074853 L58.7866846,51.1460142" id="Fill-155" stroke="none" fill="#1A1918" fill-rule="evenodd"></path>
                                <path d="M59.311518,51.2853533 C59.311518,51.2853533 59.0735467,51.2475481 59.0497766,51.6601647 C59.0432938,51.7565679 58.9455122,52.392235 58.9455122,52.392235 C58.9455122,52.392235 59.0097996,51.4406246 58.9139088,51.3180278 C58.8188283,51.1959711 58.6567593,51.1530352 58.6567593,51.1530352 L59.311518,51.2853533" id="Fill-156" stroke="none" fill="#1A1918" fill-rule="evenodd"></path>
                                <path d="M87.9083168,59.9737935 L48.1357823,49.341357 C48.1357823,49.341357 47.4545524,58.5552892 51.6405237,60.0529144 C56.1311846,61.6612547 60.4403283,62.7008971 62.9961559,60.8003768 C65.5525237,58.8974261 68.149949,56.5872596 69.7471386,55.9129772 C71.3445984,55.2378848 74.1273226,56.6590895 74.1273226,56.6590895 C74.1273226,56.6590895 74.7026674,63.5366616 76.5040639,65.0545395 C78.3057306,66.5716073 83.1110754,67.9018096 84.8263053,65.8792325 C86.5428858,63.8563854 87.9083168,59.9737935 87.9083168,59.9737935 L87.9083168,59.9737935 Z" id="Stroke-157" stroke="#1A1918" stroke-width="1" fill="none"></path>
                                <path d="M48.275972,50.268124 L52.8344318,51.7433361 C52.8344318,51.7433361 52.6045639,53.6433163 52.6804662,55.4420327 C52.787972,58.0033336 52.9481501,60.16741 52.9481501,60.16741 C52.9481501,60.16741 49.6449145,59.2457738 48.8613111,55.2619181 C48.2632766,52.2213015 48.275972,50.268124 48.275972,50.268124" id="Fill-158" stroke="none" fill="#D4CCC6" fill-rule="evenodd"></path>
                                <path d="M88.3056559,59.6872843 L47.6511961,48.8177553 L48.1125524,49.7612645 C48.1125524,49.7612645 70.6811961,55.8473583 73.1125007,56.3134421 C75.5446157,56.7789859 87.9037249,60.422865 87.9037249,60.422865 L88.3056559,59.6872843" id="Fill-159" stroke="none" fill="#343433" fill-rule="evenodd"></path>
                                <path d="M49.4606961,50.1279748 L66.4201329,54.7815223 L49.2281272,51.6944594 L49.4606961,50.1279748" id="Fill-160" stroke="none" fill="#EDE5E1" fill-rule="evenodd"></path>
                                <path d="M80.1506157,16.476235 C80.1506157,16.476235 74.830972,12.1524026 50.1170754,47.7797331 C40.3359432,61.8810648 40.9193915,77.329071 40.9193915,77.329071 C40.9193915,77.329071 33.8980237,70.197124 27.7334605,60.422865 C21.5156846,50.5635444 19.1678455,29.6904951 43.9981616,17.5671844 C57.3510237,11.0490315 80.1506157,16.476235 80.1506157,16.476235" id="Fill-161" stroke="none" fill="#461516" fill-rule="evenodd"></path>
                                <path d="M79.7486846,20.9248243 C79.7486846,20.9248243 84.5672651,19.2978515 88.357518,23.0826899 C92.1477708,26.8675284 91.6494088,30.8233003 91.069472,35.5392263 C90.5613858,39.668632 87.6160524,44.5346986 87.6160524,44.5346986 C87.6160524,44.5346986 89.2037881,36.9553003 88.4831214,31.2040525 C87.2730065,21.5394285 79.7486846,20.9248243 79.7486846,20.9248243" id="Fill-162" stroke="none" fill="#27030A" fill-rule="evenodd"></path>
                                <path d="M39.7017134,49.7399316 C39.7017134,49.7399316 36.5608168,51.9447837 36.3506674,62.2202313 C36.1364662,72.6874051 39.8502766,76.2748465 39.8502766,76.2748465 C39.8502766,76.2748465 35.6896961,72.6766036 28.9732881,65.758796 C20.9214318,57.4675802 16.9094145,46.1519501 21.0899835,35.9437417 C26.4015237,22.9765654 52.5961904,24.0264692 52.5961904,24.0264692 C52.5961904,24.0264692 34.9158168,39.5268626 34.3491157,47.6949415 C34.0322708,52.2623472 39.7017134,49.7399316 39.7017134,49.7399316" id="Fill-163" stroke="none" fill="#390A0A" fill-rule="evenodd"></path>
                                <path d="M38.7157938,11.2631708 C38.7157938,11.2631708 29.4335639,16.6528391 23.3467938,28.1850389 C20.9443915,32.7381326 20.1561961,43.1502189 20.1561961,43.1502189 C20.1561961,43.1502189 17.3332249,35.9029661 21.5459375,28.1448034 C28.3909203,15.5416369 38.7157938,11.2631708 38.7157938,11.2631708" id="Fill-164" stroke="none" fill="#27030A" fill-rule="evenodd"></path>
                                <path d="M73.0336272,65.2673287 C72.9893283,64.8944076 72.6600582,64.6259908 72.299995,64.6683866 C71.9377708,64.7118626 71.6814318,65.0496788 71.7257306,65.42314 C71.7694892,65.7947109 72.0976789,66.0625876 72.4601731,66.0196517 C72.8205065,65.9769859 73.077926,65.6397097 73.0336272,65.2673287" id="Fill-165" stroke="none" fill="#F8F8F6" fill-rule="evenodd"></path>
                                <path d="M65.9493226,50.8100882 C65.9493226,50.8100882 66.173518,52.4232892 64.5071789,52.4213989 C63.5118053,52.4203188 66.7391386,53.0168305 66.5668053,52.363071 C66.4765869,52.0195839 65.9493226,50.8100882 65.9493226,50.8100882" id="Fill-166" stroke="none" fill="#CF6D54" fill-rule="evenodd"></path>
                                <path d="M60.627518,72.5866813 C63.3003053,73.3770796 69.7382249,74.4974631 69.7382249,74.4974631 C69.7382249,74.4974631 70.4796904,75.5816616 69.0559145,76.0842004 C68.0073283,76.4541511 67.8571444,77.8926382 67.8571444,77.8926382 C67.8571444,77.8926382 60.9400409,76.1163348 60.1448226,74.9746184 C59.0967766,73.4724026 58.0252306,70.4836332 58.0252306,70.4836332 C58.0252306,70.4836332 58.533857,71.971267 60.627518,72.5866813" id="Fill-167" stroke="none" fill="#8D2326" fill-rule="evenodd"></path>
                                <path d="M70.1671674,75.9467516 C71.72438,75.3848046 71.7616559,73.1561893 71.7616559,73.1561893 C71.6779203,72.467595 70.3600295,73.2077664 69.1985352,72.8059514 C67.4044318,72.1856764 67.3836329,71.0777146 65.4471789,71.4403743 C61.1453283,72.248865 58.1945927,70.9327047 58.1945927,70.9327047 C58.1945927,70.9327047 59.055449,72.7111684 61.9194777,73.5461227 C63.8872651,74.1204914 68.3625295,74.628161 69.0329547,74.9692177 C70.1320524,75.5325149 69.6558398,76.1298367 70.1671674,75.9467516" id="Fill-168" stroke="none" fill="none"></path>
                                <path d="M58.5208915,71.7757602 C58.5208915,71.7757602 60.7976904,76.9531795 62.784926,78.3789748 C65.5101157,80.3332325 67.3328513,80.5184779 68.0586501,80.2287282 C69.0021616,79.8525666 71.096903,78.226944 69.888949,75.8795124 C69.8338455,75.7693373 69.7117536,76.4560414 67.4822249,75.912997 C66.7331961,75.7301819 63.4707478,74.9370833 61.9921386,74.0632436 C59.7496444,72.7381721 58.5208915,71.7757602 58.5208915,71.7757602" id="Fill-170" stroke="none" fill="none"></path>
                                <path id="Fill-172" stroke="none" fill="#FFFFFF" fill-rule="evenodd" d="M63.8640352,72.7387916 C64.7621674,72.7888125 65.5973628,72.8434596 65.5973628,72.8434596 C65.4190869,73.4408189 65.3526386,73.2011234 63.7770582,72.9932331 C62.3673283,72.8076065 62.1766272,72.7593204 62.1766272,72.7593204 C62.1766272,72.7593204 62.9667134,72.6896381 63.8640352,72.7387916"></path>
                                <path d="M64.4461329,77.059304 C64.7759432,77.4584187 64.2351731,78.0184754 63.8375639,77.3668761 C63.2154892,76.351537 62.5850409,75.7717676 62.5850409,75.7717676 C62.5850409,75.7717676 63.9145467,76.4203965 64.4461329,77.059304" id="Fill-173" stroke="none" fill="#FFFFFF" fill-rule="evenodd"></path>
                                <path d="M66.2837249,73.3417047 C67.8193283,73.0084791 69.3073915,73.7435198 69.3073915,73.7435198 C70.6204203,74.1237319 70.941857,74.8123262 70.8232766,75.2511363 C70.6555352,75.8716813 69.3254892,76.6304853 68.9173455,76.0904113 C68.5435065,75.5967837 64.1681846,74.3386813 62.5634318,73.7138157 C62.4232421,73.6579181 65.1108858,73.5952695 66.2837249,73.3417047" id="Fill-174" stroke="none" fill="#CD5E62" fill-rule="evenodd"></path>
                                <path d="M68.2088341,76.1203854 C69.5912823,76.0463952 69.7374145,77.6188206 69.371949,78.4807787 C69.0580754,79.2177097 67.6488858,79.6300562 66.6219088,78.8585605 C65.8507306,78.2796012 65.8177766,77.650685 64.9825812,76.6437171 C64.3840065,75.9181277 63.2184605,74.6913496 63.2184605,74.6913496 C63.2184605,74.6913496 66.2580639,76.2238096 68.2088341,76.1203854" id="Fill-175" stroke="none" fill="#CD5E62" fill-rule="evenodd"></path>
                                <path d="M66.9352421,72.2315827 C66.8696042,72.0355358 66.6589145,71.9083484 66.4668628,71.9466936 C66.27238,71.9850389 66.1673053,72.1740648 66.2326731,72.3693015 C66.2969605,72.5653484 66.5071099,72.6917257 66.7007823,72.6528404 C66.8933743,72.6144951 66.9987191,72.4254692 66.9352421,72.2315827" id="Fill-176" stroke="none" fill="#FFFFFF" fill-rule="evenodd"></path>
                                <path d="M69.4135467,79.2603755 C69.4135467,79.2603755 68.7612191,80.0205297 67.5589375,80.2408798 C66.3577363,80.4620401 64.1960065,79.3751412 63.2492536,78.701669 C61.43138,77.409812 59.2437191,73.2882374 59.2437191,73.2882374 C59.2437191,73.2882374 61.2179892,77.3992806 63.1722708,78.8164347 C65.1273628,80.2357491 66.8020754,80.5500722 67.6218743,80.3321523 C68.9862249,79.9667923 69.4135467,79.2603755 69.4135467,79.2603755" id="Fill-177" stroke="none" fill="#C95141" fill-rule="evenodd"></path>
                                <path d="M59.0405927,72.0349957 C58.9995352,72.0158231 57.4498858,71.3669242 57.7886099,70.3367331 C57.899357,69.9989168 58.3093915,70.2738145 58.3704375,70.9432362 C58.4266214,71.5689119 59.0405927,72.0349957 59.0405927,72.0349957" id="Fill-178" stroke="none" fill="#8D2326" fill-rule="evenodd"></path>
                                <path d="M34.7483455,35.9799267 C34.7483455,35.9799267 43.7153513,24.8079563 39.9329318,20.2780858 C38.0332134,18.0027541 31.320857,21.7125223 31.320857,21.7125223 C31.320857,21.7125223 36.4889662,15.3420796 36.4873455,12.782939 C36.4827536,5.66152349 26.9366214,14.3577948 26.9366214,14.3577948 C26.9366214,14.3577948 28.712357,8.81690573 37.0675524,4.16794889 C41.7640409,1.55399081 49.3540007,0.561604867 49.3540007,0.561604867 C49.3540007,0.561604867 40.4145467,3.85740635 42.7615754,8.09563693 C43.9876272,10.3091301 50.611926,8.08294519 50.611926,8.08294519 C50.611926,8.08294519 42.7310524,11.1154606 44.6064605,15.0931055 C46.5010467,19.1112559 58.5425007,13.709706 58.5425007,13.709706 C58.5425007,13.709706 50.1057306,19.0675099 51.2002363,21.0987282 C52.2955524,23.1294063 71.3645869,18.7404951 71.3645869,18.7404951 C71.3645869,18.7404951 61.9564835,25.5400266 57.0090582,29.8916727 C51.4012019,34.8238983 46.3065639,46.5937306 46.7403685,45.3904458 C47.3797306,43.6168428 49.1422306,33.2614643 46.9896846,31.098198 C44.2593628,28.3543521 34.7483455,35.9799267 34.7483455,35.9799267" id="Fill-179" stroke="none" fill="#88352F" fill-rule="evenodd"></path>
                                <path d="M32.6752134,9.15634223 C32.6752134,9.15634223 36.8182363,5.73686381 38.9748341,11.5013435 C40.866449,16.5577861 46.3565352,25.097706 47.3532593,25.9764063 C50.7931731,29.0091918 48.6981616,40.6637183 48.6981616,40.6637183 C48.6981616,40.6637183 51.4952019,32.2847405 55.4234835,27.8464125 C58.3261386,24.5670833 62.7327938,23.0189612 62.7327938,23.0189612 C62.7327938,23.0189612 49.2335295,24.4976838 44.6802019,20.0283015 C42.2183743,17.6117405 41.8963973,14.2478897 41.110903,11.2475087 C39.4388915,4.86248403 42.7999318,2.76159624 42.7999318,2.76159624 C42.7999318,2.76159624 37.6302019,4.35778489 36.0046501,5.78925098 C34.3799088,7.21936689 32.6752134,9.15634223 32.6752134,9.15634223" id="Fill-180" stroke="none" fill="#AD4C3C" fill-rule="evenodd"></path>
                                <path d="M21.8187536,109.216929 C21.8187536,109.216929 43.6896904,132.109315 47.6933341,151.336489 C51.697518,170.563933 49.1422306,218.701267 49.1422306,218.701267 C49.1422306,218.701267 13.253949,219.413085 13.9400409,217.940843 C14.626403,216.468601 7.45431106,172.385062 1.61631681,148.697687 C-4.22140733,125.010583 6.49891451,105.695917 21.8187536,109.216929" id="Fill-181" stroke="none" fill="#F6EB3D" fill-rule="evenodd"></path>
                                <path d="M62.08938,120.429135 C62.08938,120.429135 80.3259203,151.234685 78.8483915,159.804309 C77.3708628,168.373933 68.8727766,215.352538 68.8727766,215.352538 L82.3690697,215.352538 C82.3690697,215.352538 95.7192306,153.323421 90.7223743,147.712593 C85.7257881,142.101764 62.08938,120.429135 62.08938,120.429135" id="Fill-182" stroke="none" fill="#F6EB3D" fill-rule="evenodd"></path>
                            </g>
                        </g>
                    </g>
                </g>
            </g>
        </g>
    </g>
</svg>