<?xml version="1.0" encoding="UTF-8"?>
<svg width="140px" height="140px" viewBox="0 0 140 140" version="1.1" xmlns="http://www.w3.org/2000/svg" xmlns:xlink="http://www.w3.org/1999/xlink">
    <!-- Generator: Sketch 41.1 (35376) - http://www.bohemiancoding.com/sketch -->
    <title>avatar-7</title>
    <desc>Created with Sketch.</desc>
    <defs>
        <circle id="path-1" cx="70" cy="70" r="70"></circle>
    </defs>
    <g id="Page-1" stroke="none" stroke-width="1" fill="none" fill-rule="evenodd">
        <g id="avatar-7">
            <mask id="mask-2" fill="white">
                <use xlink:href="#path-1"></use>
            </mask>
            <use id="Mask" fill="#FFE1D6" xlink:href="#path-1"></use>
            <g id="Group-8" mask="url(#mask-2)">
                <g transform="translate(31.000000, 3.000000)">
                    <path d="M60.9564912,69.9078947 C59.9261404,82.2573684 74.7477193,115.443509 92.4270175,97.2422807 C84.5415789,119.756491 62.9521053,108.776316 53.5598246,100.765614 C56.0257895,90.4805263 58.4917544,80.1942105 60.9564912,69.9078947" id="Fill-149" fill="#461718"></path>
                    <path d="M72.5163158,52.0050877 C74.7145614,52.85 78.1961404,56.2849123 79.2964912,58.3664912 C86.7201754,72.4266667 87.99,89.8898246 97.1219298,92.3324561 C100.437719,93.2178947 109.915965,94.3317544 110.300351,84.822807 C111.677018,88.9847368 111.184561,93.257193 109.401404,95.7366667 C96.9107018,113.096667 79.4684211,102.557368 63.6349123,89.0535088 C66.5957895,76.7040351 69.5566667,64.3533333 72.5163158,52.0050877" id="Fill-150" fill="#461718"></path>
                    <path d="M13.9914035,106.403684 C20.4301754,114.849123 22.3287719,124.811228 17.5589474,131.891053 C10.1782456,142.845439 66.9163158,142.042281 59.1708772,131.227895 C51.8994737,121.081579 56.9849123,114.16386 62.7384211,106.237895 C70.1964912,95.9626316 6.29385965,96.3064912 13.9914035,106.403684" id="Fill-151" fill="#A6BAD6"></path>
                    <path d="M66.3366667,38.4926316 C101.109474,49.2247368 85.6394737,76.5529825 106.528947,88.2626316 C115.722281,93.415614 134.413509,88.2994737 125.765439,75.1873684 C138.11,85.8126316 118.690526,100.378772 104.664737,92.8863158 C84.9308772,82.3457895 93.9166667,52.8819298 65.887193,45.8757895 C66.0370175,43.4147368 66.1868421,40.9549123 66.3366667,38.4926316" id="Fill-152" fill="#461718"></path>
                    <path d="M38.9949123,117.235263 C31.5564912,117.235263 15.0733333,103.401053 11.2675439,96.8296491 C7.95789474,91.1129825 5.61350877,79.1650877 5.61350877,69.6131579 C5.61350877,41.8354386 8.0045614,13.6880702 38.9949123,13.6880702 C69.9852632,13.6880702 72.3775439,41.8354386 72.3775439,69.6131579 C72.3775439,79.1650877 70.0319298,91.1129825 66.7222807,96.8296491 C62.9164912,103.401053 46.4333333,117.235263 38.9949123,117.235263" id="Fill-153" fill="#F7C995"></path>
                    <path d="M33.0363158,87.9212281 C33.9807018,89.7989474 36.3201754,91.1363158 39.0477193,91.1363158 C41.7740351,91.1363158 44.1147368,89.7989474 45.0578947,87.9212281 C43.2759649,88.4210526 41.2263158,88.707193 39.0477193,88.707193 C36.8678947,88.707193 34.8182456,88.4210526 33.0363158,87.9212281" id="Fill-154" fill="#DA845B"></path>
                    <path d="M47.6908772,113.982105 C55.2938596,109.483684 64.0757895,101.400526 66.7222807,96.8296491 C69.7335088,91.6287719 71.9452632,81.2724561 72.3198246,72.2510526 C68.0129825,86.7521053 60.1533333,100.700526 47.6908772,113.982105" id="Fill-155" fill="#E9B278"></path>
                    <path d="M30.2989474,113.982105 C22.6959649,109.483684 13.9152632,101.400526 11.2675439,96.8296491 C8.25631579,91.6287719 6.0445614,81.2724561 5.67,72.2510526 C9.97807018,86.7521053 17.8364912,100.700526 30.2989474,113.982105" id="Fill-156" fill="#E9B278"></path>
                    <path d="M45.8757895,99.1470175 C45.4864912,99.0684211 45.0984211,98.9849123 44.7164912,98.8977193 C42.4973684,98.402807 41.3601754,98.7982456 39.0391228,98.7982456 C36.7180702,98.7982456 35.5821053,98.402807 33.3629825,98.8977193 C33.0080702,98.9775439 32.6507018,99.0561404 32.2908772,99.1310526 C33.862807,99.6873684 35.5931579,100.695614 39.0391228,100.695614 C42.5477193,100.695614 44.2805263,99.7107018 45.8757895,99.1470175" id="Fill-157" fill="#FFFFFF"></path>
                    <path d="M46.0329825,98.9333333 C46.9564912,99.0070175 47.8812281,99.0819298 48.8047368,99.155614 C44.7324561,101.890526 46.8938596,105.563684 39.0464912,105.563684 C31.2003509,105.563684 33.3617544,101.890526 29.2894737,99.155614 C30.2142105,99.0819298 31.1352632,98.9198246 32.0612281,98.9333333 C33.9352632,98.9615789 35.1731579,100.51386 39.0464912,100.51386 C42.9222807,100.51386 44.1614035,99.05 46.0329825,98.9333333" id="Fill-158" fill="#E26060"></path>
                    <path d="M40.4870175,94.0726316 C42.9149123,94.1622807 46.3142105,96.9892982 48.0249123,98.0650877 C48.5885965,98.4212281 49.594386,98.6263158 50.6050877,98.3892982 C51.6894737,98.1338596 52.0333333,97.93 52.0333333,97.0691228 C52.0333333,96.7412281 52.3010526,96.4747368 52.6289474,96.4747368 C52.9568421,96.4747368 53.2135088,96.7412281 53.2245614,97.0691228 C53.2466667,97.7261404 51.4278947,98.7491228 51.1675439,98.9235088 C49.3684211,100.124561 46.3829825,99.6321053 43.715614,99.0352632 C41.8894737,98.6275439 40.9561404,98.9529825 39.0464912,98.9529825 C37.1392982,98.9529825 36.2047368,98.6275439 34.3785965,99.0352632 C31.7124561,99.6321053 28.7257895,100.124561 26.9266667,98.9235088 C26.6675439,98.7491228 24.8463158,97.7261404 24.8708772,97.0691228 C24.8819298,96.7412281 25.1373684,96.4747368 25.4652632,96.4747368 C25.7931579,96.4747368 26.0608772,96.7412281 26.0608772,97.0691228 C26.0608772,97.93 26.4059649,98.1338596 27.4891228,98.3892982 C28.5010526,98.6263158 29.505614,98.4212281 30.0692982,98.0650877 C31.78,96.9892982 35.1805263,94.1622807 37.607193,94.0726316 C38.184386,94.0517544 38.4054386,94.3980702 39.0464912,94.3980702 C39.6875439,94.3980702 39.9098246,94.0517544 40.4870175,94.0726316" id="Fill-159" fill="#B9362B"></path>
                    <path d="M64.6714035,63.8719298 C63.7085965,66.2568421 62.5787719,71.8052632 59.5085965,73.9003509 C56.1596491,76.1857895 51.1736842,75.2536842 48.2729825,76.9729825 C48.8329825,67.5266667 52.867193,62.0961404 64.6714035,63.8719298" id="Fill-160" fill="#FFFFFF"></path>
                    <path d="M56.1473684,65.3824561 C53.6052632,65.3824561 51.5433333,67.444386 51.5433333,69.9864912 C51.5433333,72.5298246 53.6052632,74.5917544 56.1473684,74.5917544 C58.6919298,74.5917544 60.7526316,72.5298246 60.7526316,69.9864912 C60.7526316,67.444386 58.6919298,65.3824561 56.1473684,65.3824561" id="Fill-161" fill="#0A0A08"></path>
                    <path d="M56.4077193,66.8622807 C54.547193,66.8622807 53.0391228,68.3703509 53.0391228,70.2308772 C53.0391228,72.0914035 54.547193,73.6007018 56.4077193,73.6007018 C58.2682456,73.6007018 59.7763158,72.0914035 59.7763158,70.2308772 C59.7763158,68.3703509 58.2682456,66.8622807 56.4077193,66.8622807" id="Fill-162" fill="#AFCF5C"></path>
                    <path d="M56.4077193,68.0510526 C55.2042105,68.0510526 54.2278947,69.0273684 54.2278947,70.2308772 C54.2278947,71.435614 55.2042105,72.4107018 56.4077193,72.4107018 C57.6124561,72.4107018 58.5875439,71.435614 58.5875439,70.2308772 C58.5875439,69.0273684 57.6124561,68.0510526 56.4077193,68.0510526" id="Fill-163" fill="#0A0A08"></path>
                    <path d="M58.3603509,68.6577193 C57.5289474,68.6577193 56.8547368,69.3319298 56.8547368,70.1633333 C56.8547368,70.9947368 57.5289474,71.6689474 58.3603509,71.6689474 C59.1917544,71.6689474 59.8659649,70.9947368 59.8659649,70.1633333 C59.8659649,69.3319298 59.1917544,68.6577193 58.3603509,68.6577193" id="Fill-164" fill="#FFFFFF"></path>
                    <path d="M64.6714035,63.8719298 C56.892807,63.9849123 51.1564912,67.3866667 48.2729825,76.9729825 C48.8329825,67.5266667 52.867193,62.0961404 64.6714035,63.8719298" id="Fill-165" fill="#EB9166"></path>
                    <path d="M66.1414035,63.8301754 C62.1526316,64.8642105 51.7398246,66.3931579 48.2029825,77.4298246 C48.8317544,69.0040351 56.9431579,62.2754386 66.1414035,63.8301754" id="Fill-166" fill="#0A0A08"></path>
                    <path d="M70.472807,52.9126316 C62.0592982,52.7689474 50.9931579,57.4233333 46.4738596,65.7754386 C46.5070175,57.1629825 61.7780702,50.4429825 70.472807,52.9126316" id="Fill-167" fill="#0A0A08"></path>
                    <path d="M13.4215789,63.8719298 C14.385614,66.2568421 15.5142105,71.8052632 18.584386,73.9003509 C21.9345614,76.1857895 26.9192982,75.2536842 29.8212281,76.9729825 C29.2612281,67.5266667 25.2257895,62.0961404 13.4215789,63.8719298" id="Fill-168" fill="#FFFFFF"></path>
                    <path d="M21.945614,65.3824561 C24.4877193,65.3824561 26.5496491,67.444386 26.5496491,69.9864912 C26.5496491,72.5298246 24.4877193,74.5917544 21.945614,74.5917544 C19.4022807,74.5917544 17.3415789,72.5298246 17.3415789,69.9864912 C17.3415789,67.444386 19.4022807,65.3824561 21.945614,65.3824561" id="Fill-169" fill="#0A0A08"></path>
                    <path d="M21.6852632,66.8622807 C23.5457895,66.8622807 25.0550877,68.3703509 25.0550877,70.2308772 C25.0550877,72.0914035 23.5457895,73.6007018 21.6852632,73.6007018 C19.8247368,73.6007018 18.3166667,72.0914035 18.3166667,70.2308772 C18.3166667,68.3703509 19.8247368,66.8622807 21.6852632,66.8622807" id="Fill-170" fill="#AFCF5C"></path>
                    <path d="M21.6852632,68.0510526 C22.89,68.0510526 23.8663158,69.0273684 23.8663158,70.2308772 C23.8663158,71.435614 22.89,72.4107018 21.6852632,72.4107018 C20.4817544,72.4107018 19.5054386,71.435614 19.5054386,70.2308772 C19.5054386,69.0273684 20.4817544,68.0510526 21.6852632,68.0510526" id="Fill-171" fill="#0A0A08"></path>
                    <path d="M19.7326316,68.6577193 C20.5640351,68.6577193 21.2382456,69.3319298 21.2382456,70.1633333 C21.2382456,70.9947368 20.5640351,71.6689474 19.7326316,71.6689474 C18.9012281,71.6689474 18.2270175,70.9947368 18.2270175,70.1633333 C18.2270175,69.3319298 18.9012281,68.6577193 19.7326316,68.6577193" id="Fill-172" fill="#FFFFFF"></path>
                    <path d="M13.4215789,63.8719298 C21.2001754,63.9849123 26.9377193,67.3866667 29.8212281,76.9729825 C29.2612281,67.5266667 25.2257895,62.0961404 13.4215789,63.8719298" id="Fill-173" fill="#EB9166"></path>
                    <path d="M11.9515789,63.8301754 C15.9403509,64.8642105 26.354386,66.3931579 29.89,77.4298246 C29.2612281,69.0040351 21.1498246,62.2754386 11.9515789,63.8301754" id="Fill-174" fill="#0A0A08"></path>
                    <path d="M7.62263158,52.9126316 C16.0361404,52.7689474 27.1010526,57.4233333 31.6215789,65.7754386 C31.5884211,57.1629825 16.3173684,50.4429825 7.62263158,52.9126316" id="Fill-175" fill="#0A0A08"></path>
                    <path d="M40.3335088,23.4991228 C70.7896491,23.6047368 58.9707018,62.8354386 80.5257895,73.2691228 C89.7191228,77.7196491 107.226491,79.2719298 107.492982,63.84 C109.944211,77.332807 93.2535088,83.0040351 78.8064912,76.142807 C58.5985965,66.5442105 62.1735088,23.3333333 38.9949123,30.7852632 C38.6449123,28.1584211 39.3510526,25.6814035 40.3335088,23.4991228" id="Fill-176" fill="#461718"></path>
                    <path d="M38.9949123,0.243157895 C2.3922807,0.243157895 0.580877193,36.6615789 0.580877193,55.6008772 C0.580877193,74.5389474 2.91666667,75.2733333 6.91894737,83.2054386 C6.09122807,78.715614 5.61350877,73.9212281 5.61350877,69.6131579 C5.61350877,41.8354386 12.7449123,19.2524561 38.9949123,30.7852632 C65.1761404,19.1996491 72.3775439,41.8354386 72.3775439,69.6131579 C72.3775439,73.9212281 71.8985965,78.7168421 71.0721053,83.2054386 C75.0731579,75.2733333 77.4089474,74.5389474 77.4089474,55.6008772 C77.4089474,49.2345614 77.2026316,40.8922807 75.5398246,32.6224561 C83.2877193,44.2154386 88.7857895,59.9249123 102.726842,67.3707018 C116.752632,74.8631579 133.028246,61.215614 129.676842,49.8080702 C129.36,65.8085965 113.271053,69.8894737 104.078947,64.7364912 C75.6466667,48.7985965 78.4319298,0.243157895 38.9949123,0.243157895" id="Fill-177" fill="#461718"></path>
                </g>
            </g>
        </g>
    </g>
</svg>