<?xml version="1.0" encoding="UTF-8" standalone="no"?>
<svg width="140px" height="140px" viewBox="0 0 140 140" version="1.1" xmlns="http://www.w3.org/2000/svg" xmlns:xlink="http://www.w3.org/1999/xlink">
    <!-- Generator: Sketch 3.6.1 (26313) - http://www.bohemiancoding.com/sketch -->
    <title>Group 12</title>
    <desc>Created with Sketch.</desc>
    <defs>
        <circle id="path-1" cx="70" cy="70" r="70"></circle>
        <path id="path-3" d="M0.0159512195,0.0742917543 L0.0159512195,39.0223145 L108.875008,39.0223145 L108.875008,0.0742917543 L0.0159512195,0.0742917543 L0.0159512195,0.0742917543 Z"></path>
        <path d="M38.3625731,0.20783247 C58.8488837,0.207820773 68.8728463,12.0539814 68.8728463,12.0539814 L68.8728463,0.20783247 L38.3625933,0.20783247 L38.3625731,0.20783247 Z M10.0692073,55.8020559 C10.0692073,55.8020559 -3.69004878,43.5539125 1.25296829,23.0723435 C3.91203659,12.054247 13.160022,4.43464972 25.180861,1.73497436 C29.9747895,0.658317653 34.3676099,0.207834751 38.3625731,0.20783247 L10.0692073,55.8020559 Z" id="path-5"></path>
        <path id="path-7" d="M6.25181464,21.8927628 C6.25203744,21.8926425 21.0529424,13.9004836 19.8829293,10.041443 C18.880661,6.73829832 7.30778537,12.9137659 7.30778537,12.9137659 C7.30778537,12.9137659 12.2484098,5.51436049 23.3108463,2.21573119 C33.6294244,-0.860846894 42.856939,0.531488625 42.856939,0.531488625 C42.856939,0.531488625 32.0683317,1.49831451 35.9928634,5.74331761 C39.3011463,9.32057339 45.138761,5.52737546 45.138761,5.52737546 C45.138761,5.52737546 38.9215073,11.7838545 41.7964488,12.7517428 C47.5473518,14.6890986 57.7352857,10.7562628 57.735439,10.7562036 L57.735439,30.0297714 L14.3401463,30.0297714 C-4.49292683,149.831451 -4.49292683,149.831451 14.3401463,30.0297714 C14.3401463,30.0297714 29.0500951,17.6490878 33.9433976,22.5488233 C35.9886098,24.5972192 31.7953,27.2764425 31.7953,27.2764425 C31.7953,27.2764425 40.061222,22.0502705 46.3316463,18.378457 C51.4293902,15.3937805 57.735439,10.7562036 57.735439,10.7562036 L6.25181464,21.8927628 Z"></path>
        <path d="M0.0265853659,126.72325 C0.0265853659,126.72325 0.0265853659,126.72325 53.3549683,3.70979592 L53.3549683,3.70979592 L0.0265853659,126.72325 Z M48.5826293,0.79045974 C48.5828157,0.790131309 49.0226841,0.0151376046 49.3389829,0.00451539562 C49.6542854,-0.00717151069 49.2180195,1.54001552 49.2180195,1.54001552 C49.2180195,1.54001552 49.9959073,0.753274234 50.6182707,0.452867619 C51.2401024,0.152992228 50.4824195,2.18704515 50.4824195,2.18704515 C50.4824195,2.18704515 51.4341756,0.866955959 51.9342463,0.85659711 C52.4340512,0.845441426 51.4995756,2.56660399 51.4995756,2.56660399 C51.4995756,2.56660399 52.3059098,1.83245379 52.9774561,1.53682818 C53.6503317,1.24014013 52.8756341,2.82451276 52.8756341,2.82451276 C52.8756341,2.82451276 53.4187732,2.2691191 53.8850805,2.05636429 C54.3505824,1.84414429 53.355002,3.70973273 53.3549683,3.70979592 L48.5826293,0.79045974 Z" id="path-9"></path>
    </defs>
    <g id="Page-1" stroke="none" stroke-width="1" fill="none" fill-rule="evenodd">
        <g id="taurus-man-secrets" transform="translate(-330.000000, -4004.000000)">
            <g id="testimonials" transform="translate(330.000000, 3802.000000)">
                <g id="Group-14" transform="translate(0.000000, 202.000000)">
                    <g id="Group-12">
                        <mask id="mask-2" fill="white">
                            <use xlink:href="#path-1"></use>
                        </mask>
                        <use id="Mask" fill="#FFE1D6" xlink:href="#path-1"></use>
                        <g mask="url(#mask-2)">
                            <g transform="translate(16.000000, -8.000000)">
                                <g id="Group-341" stroke-width="1" fill="none" fill-rule="evenodd" transform="translate(0.000000, 114.478226)">
                                    <mask id="mask-4" fill="white">
                                        <use xlink:href="#path-3"></use>
                                    </mask>
                                    <g id="Clip-340"></g>
                                    <path d="M107.339212,38.8087629 C107.339212,38.8087629 108.738666,23.5331795 108.873454,12.3711215 C108.968363,4.52734814 104.715768,-1.18914272 96.6053707,0.31554647 C73.0478122,4.68538698 34.8438439,14.0460677 14.7389268,12.7190726 C-1.32953415,11.6582203 0.0284463415,39.0223145 0.0284463415,39.0223145 L107.339212,38.8087629" id="Fill-339" fill="#F6C49C" mask="url(#mask-4)"></path>
                                </g>
                                <path d="M52.7738122,84.5950722 C52.7738122,84.5950722 82.8325561,79.2812483 87.3813122,52.0672246 C89.5485512,39.1024613 78.9907049,37.7180941 74.7838366,36.0118058 C69.8655439,34.0189227 62.2049707,36.0118058 62.2049707,36.0118058 L52.7738122,84.5950722" id="Fill-342" fill="#AD602E" fill-rule="evenodd"></path>
                                <path d="M76.4911488,56.5765111 C76.4911488,56.5765111 81.005078,51.2159397 83.1350976,56.5666835 C84.9367878,61.0887194 79.639122,68.5885259 76.2120024,72.6247584 C74.1024537,75.1100852 71.7044537,74.0641071 71.7044537,74.0641071 L76.4911488,56.5765111" id="Fill-343" fill="#F6C49C" fill-rule="evenodd"></path>
                                <path d="M81.6194659,59.6780567 C81.6194659,59.6780567 82.004422,56.4883281 79.2105659,57.4429359 C77.9280878,57.8809292 76.6442805,61.4966987 76.6442805,61.4966987 C76.6442805,61.4966987 78.7647293,60.5346538 78.7647293,63.7265073 C78.7647293,65.6431599 74.9484,69.7277337 74.9484,69.7277337 C74.9484,69.7277337 81.2007463,65.6243015 81.6194659,59.6780567" id="Fill-344" fill="#CB8461" fill-rule="evenodd"></path>
                                <path d="M18.7001463,48.3452105 C18.7001463,48.3452105 15.6672878,42.0289689 12.2688805,46.680092 C9.39500244,50.6098142 12.6527732,59.1930501 14.963839,63.95573 C16.386422,66.8883467 18.9694561,66.4729303 18.9694561,66.4729303 L18.7001463,48.3452105" id="Fill-345" fill="#F6C49C" fill-rule="evenodd"></path>
                                <path d="M12.9595683,50.0706229 C12.9595683,50.0706229 13.383339,46.8859409 15.850461,48.5061711 C16.9832634,49.2501489 17.3235561,53.0715017 17.3235561,53.0715017 C17.3235561,53.0715017 15.5104341,51.6117008 14.7134049,54.7026219 C14.2348683,56.5587152 16.9109512,61.4650909 16.9109512,61.4650909 C16.9109512,61.4650909 11.8807341,55.9332001 12.9595683,50.0706229" id="Fill-346" fill="#CB8461" fill-rule="evenodd"></path>
                                <path d="M45.4604439,81.5745381 C51.4945244,82.2019125 59.0710878,84.9058376 59.0710878,84.9058376 C59.0710878,84.9058376 58.0730732,100.651553 62.024722,110.124853 C66.791478,121.55332 78.8131146,119.354056 80.6416561,119.460301 C83.0021707,119.597888 19.9828902,141.783886 24.4191902,136.300602 C25.4413976,135.037353 35.0849732,129.772933 38.3507195,121.680548 C40.3409,116.748673 23.9467683,70.7375886 23.9467683,70.7375886 C23.9467683,70.7375886 39.4242366,80.9463669 45.4604439,81.5745381" id="Fill-347" fill="#F6C49C" fill-rule="evenodd"></path>
                                <path d="M71.9519634,13.2810387 L67.6087122,19.4650058 L88.8012366,53.3174579 C88.8012366,53.3174579 97.131761,49.7301089 94.7045171,33.7479989 C91.6437439,13.597382 73.6209927,14.0515776 71.9519634,13.2810387" id="Fill-348" fill="#FFEFA7" fill-rule="evenodd"></path>
                                <path d="M72.9824122,13.0005529 L60.2926854,21.3133962 C60.2926854,21.3133962 71.5396244,40.5564187 80.0482707,44.8625124 C91.2332659,50.5226937 83.3488439,63.7265073 83.3488439,63.7265073 C83.3488439,63.7265073 92.6601024,58.2928927 93.6081366,44.7419248 C95.5424878,17.0859235 74.6511756,13.7705607 72.9824122,13.0005529" id="Fill-349" fill="none"></path>
                                <path d="M57.875278,87.149458 C57.875278,87.149458 52.5544829,100.05499 44.3146146,100.494843 C35.5313415,100.964709 26.5218268,79.7240227 26.5218268,79.7240227 C26.5218268,79.7240227 35.3218488,91.0398698 44.0617878,90.6255158 C52.6089829,90.2193958 57.875278,87.149458 57.875278,87.149458" id="Fill-351" fill="#B24E40" fill-rule="evenodd"></path>
                                <path d="M36.2031537,38.4886331 C36.2031537,38.4886331 35.3223805,38.572832 34.6082976,40.0398043 C33.6703659,41.9646909 33.9402073,43.0608696 33.9402073,43.0608696 C33.9402073,43.0608696 31.4996707,39.2968889 32.5628195,38.7667284 C34.2672073,37.919162 36.2031537,38.4886331 36.2031537,38.4886331" id="Fill-352" fill="#EFE7DE" fill-rule="evenodd"></path>
                                <path d="M50.3556073,26.8373188 C24.5569024,25.4104537 22.0336854,43.2563597 19.4506512,48.0185084 C12.3683098,61.0749076 26.5228902,91.6425423 42.8428488,94.7066366 C50.9317122,96.2251376 81.8374659,79.0331672 77.3761756,47.0243245 C76.8197439,43.0409487 74.6184756,28.1810474 50.3556073,26.8373188" id="Fill-353" fill="none"></path>
                                <path d="M52.7738122,21.3673154 C28.1174805,20.0020722 22.3367585,44.9504299 20.0302122,49.5866787 C15.0406707,59.6167004 25.0604293,91.4499739 43.3870512,93.6139109 C53.7027049,94.8320052 80.6110829,77.167512 76.3486512,46.5773003 C75.8174756,42.7694938 75.9591756,22.6512814 52.7738122,21.3673154" id="Fill-355" fill="#F8CEA2" fill-rule="evenodd"></path>
                                <path d="M52.2833122,70.3582954 C52.1993024,70.048858 51.7252854,69.6669086 51.1747024,69.6225515 C50.2801049,69.555883 49.1853195,69.7290617 48.9952341,70.2661282 C48.9375439,70.4254951 50.6903171,70.7739774 51.117278,70.8942994 C51.6753049,71.0496821 52.4295317,70.8937682 52.2833122,70.3582954" id="Fill-356" fill="#932827" fill-rule="evenodd"></path>
                                <path d="M43.1576195,69.4913394 C43.2926732,69.2055414 43.8286341,68.9027443 44.3784195,68.9516168 C45.2716878,69.0291754 46.3218098,69.3824387 46.4246951,69.9418165 C46.4496854,70.1102142 44.715522,70.1867103 44.2189073,70.2159276 C43.6786927,70.2459417 42.9247317,69.9991886 43.1576195,69.4913394" id="Fill-357" fill="#932827" fill-rule="evenodd"></path>
                                <g id="Group-361" stroke-width="1" fill="none" fill-rule="evenodd" transform="translate(5.317073, 2.124559)">
                                    <path d="M45.4333268,63.1406362 C44.4938,56.063152 41.9942439,55.5951445 39.815839,61.9735392 C38.2337439,66.60846 45.9240927,66.8576036 45.4333268,63.1406362" id="Fill-358" fill="#F9D4B7"></path>
                                    <path d="M68.4450878,11.9145354 C68.4450878,11.9145354 57.7373,-1.73922415 29.5980195,0.371324887 C10.4028537,1.81093925 4.51206829,12.2494715 2.38045366,17.1622219 C-6.09416341,36.6936985 10.8667683,56.5455025 10.8667683,56.5455025 C10.8667683,56.5455025 9.47077073,50.1973875 23.6639,30.9934099 C34.5083366,16.3207647 68.4450878,11.9145354 68.4450878,11.9145354" id="Fill-360" fill="#F0DD8D"></path>
                                </g>
                                <g id="Group-364" stroke-width="1" fill="none" fill-rule="evenodd" transform="translate(6.114634, 2.655782)">
                                    <mask id="mask-6" fill="white">
                                        <use xlink:href="#path-5"></use>
                                    </mask>
                                    <g id="Clip-363"></g>
                                    <path d="M68.8728463,12.0539814 C68.8728463,12.0539814 54.558222,-4.86281547 25.180861,1.73497436 C13.160022,4.43464972 3.91203659,12.054247 1.25296829,23.0723435 C-3.69004878,43.5539125 10.0692073,55.8020559 10.0692073,55.8020559 C10.0692073,55.8020559 11.7153732,42.2779148 22.0028463,34.4115644 C40.6064878,20.1859433 68.8728463,12.0539814 68.8728463,12.0539814" id="Fill-362" mask="url(#mask-6)"></path>
                                </g>
                                <path d="M72.524878,15.1166798 C72.524878,15.1166798 70.6450268,6.96532825 53.5958317,1.4613266 C36.5705634,-4.0347067 18.7533171,7.74250752 18.7533171,7.74250752 C18.7533171,7.74250752 32.8276098,0.0533200064 45.6390976,3.60667075 C59.8649268,7.55179846 72.524878,15.1166798 72.524878,15.1166798" id="Fill-365" fill="#EB8B2D" fill-rule="evenodd"></path>
                                <path d="M57.1005805,45.6718307 C57.1492317,45.8442126 61.0065024,42.9633902 66.8342805,42.8510365 C71.0283878,42.7702906 74.9874805,43.5259553 74.9874805,43.5259553 C74.9874805,43.5259553 70.2816049,40.2804483 65.3122683,40.1232063 C61.4813171,40.0031499 56.024139,41.8268385 57.1005805,45.6718307" id="Fill-366" fill="#B96F41" fill-rule="evenodd"></path>
                                <path d="M40.3020854,43.0574166 C40.2034537,43.2061591 37.4037488,39.2921079 31.884361,37.4179531 C27.9125073,36.0699747 27.1295683,34.9405946 27.1295683,34.9405946 C27.1295683,34.9405946 29.3797537,33.9235681 34.1627268,35.2808429 C37.8509146,36.3265554 42.4969732,39.7194768 40.3020854,43.0574166" id="Fill-367" fill="#B96F41" fill-rule="evenodd"></path>
                                <path d="M73.762161,14.9626251 C73.762161,14.9626251 64.2174829,20.9957249 57.2289878,28.5473256 C50.2423537,36.0986608 43.8140122,50.1186986 43.8140122,50.1186986 C43.8140122,50.1186986 41.1573366,32.7046769 51.1241902,21.5139329 C55.8678171,16.1855005 73.762161,14.9626251 73.762161,14.9626251" id="Fill-368" fill="#EB8B2D" fill-rule="evenodd"></path>
                                <path d="M70.5740439,16.9387747 C70.5740439,16.9387747 62.1382415,33.1554197 75.7781293,40.9168535 C88.0406293,47.894999 85.7487049,57.2647105 85.7487049,57.2647105 C85.7487049,57.2647105 92.7640512,45.1522946 77.2328805,36.1547048 C68.2690927,30.961203 70.5740439,16.9387747 70.5740439,16.9387747" id="Fill-369" fill="#F2AE47" fill-rule="evenodd"></path>
                                <path d="M36.1723146,76.4038789 C36.2616415,76.8665741 37.0953585,78.7949137 38.3759756,80.5561836 C39.9330805,82.6980748 41.391022,83.867031 44.666339,84.1074094 C48.830139,84.4120658 50.0995902,83.6425893 52.1642098,81.0653608 C53.5179366,79.3771341 53.6981854,78.4554622 53.6981854,78.4554622 C53.6981854,78.4554622 47.8462146,78.6631704 45.4904854,78.4921166 C42.1479073,78.2520038 36.0845829,75.9427773 36.1723146,76.4038789" id="Fill-370" fill="#DF615A" fill-rule="evenodd"></path>
                                <path d="M45.7092829,79.6005134 C42.8694341,79.3641191 41.4415341,78.5795027 40.7343634,79.6833842 C40.1130634,80.6541942 41.3790585,82.6481398 44.6171561,82.9628894 C48.6097463,83.3520103 50.0514707,81.7094687 49.958422,80.6985513 C49.8143293,79.1370213 46.8338439,79.7505839 45.7092829,79.6005134" id="Fill-371" fill="#E7817E" fill-rule="evenodd"></path>
                                <path d="M42.0617707,79.4092731 C41.7089829,79.2647804 41.2495878,79.4724886 41.1352707,79.9479332 C41.0228146,80.4236434 41.636139,80.6855364 41.9155512,80.5986814 C42.1928366,80.5091703 42.3978098,80.3492722 42.4103049,80.0132737 C42.4238634,79.7094141 42.3494244,79.5261422 42.0617707,79.4092731" id="Fill-372" fill="#FFFFFF" fill-rule="evenodd"></path>
                                <path d="M45.6276659,75.6131534 C43.0433024,75.2771549 44.2252878,74.629594 41.6372024,74.9910913 C39.710561,75.2601557 37.8809561,76.6503664 35.764761,76.4038789 C35.764761,76.4038789 38.0846,78.7505566 45.4540634,79.291076 C53.7965512,79.9038417 55.2882561,78.0023289 55.0707878,77.9967511 C51.8677829,77.9141459 51.7614415,76.3749272 50.2630902,75.7642864 C48.5765146,75.0739621 48.4677805,75.6333399 45.6276659,75.6131534" id="Fill-373" fill="#CF5457" fill-rule="evenodd"></path>
                                <path d="M55.1877634,77.6108176 C54.7807415,78.1938348 54.4407146,78.9054081 51.3996146,78.6655609 C46.0899854,78.247754 41.0180293,77.9114898 39.3713317,77.6990006 C37.9787902,77.5186504 37.0241098,77.3452061 36.0361976,76.4038789 C35.3978829,75.7948317 35.646722,75.6237779 35.2399659,75.3337301 C34.8659098,75.0686498 34.6755585,75.2835296 34.6755585,75.2835296 C34.2924634,75.912232 34.8693659,76.2067952 35.5914244,76.6381482 C36.4320537,77.1393572 37.8368244,77.6472064 38.8284585,78.0302181 C42.8574707,79.586436 48.6217098,79.7519119 51.8414634,79.1088665 C53.7090854,78.7362135 55.3996488,78.7425882 55.7282439,78.1603678 C55.9504976,77.7669971 55.5884049,77.2758815 55.1877634,77.6108176" id="Fill-374" fill="#932827" fill-rule="evenodd"></path>
                                <path d="M45.6218171,75.9600421 C45.0994146,75.8939048 43.966878,75.6471517 43.5407146,75.5021278 C43.0627098,75.3390424 43.9365707,77.6519874 45.4718756,77.7967456 C47.0010659,77.9412383 48.0921293,75.9364026 47.7972976,75.8588441 C47.2743634,75.7215229 46.2330146,76.0285698 45.6218171,75.9600421" id="Fill-375" fill="#E8847F" fill-rule="evenodd"></path>
                                <path d="M47.8632293,62.5471922 C47.8632293,62.5471922 55.4504268,67.0230117 53.3212049,70.1689144 C51.8135488,72.3931451 41.4699805,70.556176 41.1554756,68.8884013 C40.3704098,64.7190975 47.8632293,62.5471922 47.8632293,62.5471922" id="Fill-376" fill="none"></path>
                                <path d="M47.4742854,66.9279228 C47.4742854,66.9279228 54.3957854,69.0610488 52.9088659,70.6273598 C51.7752659,71.8212836 41.8964098,70.408496 41.4830073,69.3242698 C40.789661,67.5181115 47.4742854,66.9279228 47.4742854,66.9279228" id="Fill-378" fill="#CB8461" fill-rule="evenodd"></path>
                                <path d="M51.934778,70.1343849 C51.8600732,69.8236194 51.3985512,69.427327 50.8490317,69.3667676 C49.9626756,69.2759285 48.9697122,69.4711529 48.7636756,70.0005167 C48.6972122,70.1598836 50.334339,70.5019912 50.7567805,70.6332033 C51.3041732,70.8047883 52.0634512,70.671717 51.934778,70.1343849" id="Fill-379" fill="#932827" fill-rule="evenodd"></path>
                                <path d="M42.5676902,68.955601 C42.7093902,68.6748497 43.2501366,68.3901141 43.7991244,68.4554545 C44.686278,68.5587774 45.6755195,68.9789748 45.7589976,69.5383527 C45.7784049,69.7080784 44.0979439,69.6963915 43.6005317,69.7107345 C43.0629756,69.7264056 42.3191171,69.4541538 42.5676902,68.955601" id="Fill-380" fill="#932827" fill-rule="evenodd"></path>
                                <path d="M47.451422,54.1907886 C47.451422,54.1907886 46.3218098,59.6815096 44.457378,64.2370126 C43.1145512,67.5167835 51.7553268,68.61854 50.7729976,64.634633 C49.614939,59.9311845 49.7624878,54.509788 49.7624878,54.509788 C49.7624878,54.509788 49.2020683,52.7442683 47.451422,54.1907886" id="Fill-381" fill="#F7D1AE" fill-rule="evenodd"></path>
                                <path d="M49.6045707,65.9722526 C49.6651854,65.6495346 49.4559585,65.340894 49.1340098,65.2795378 C48.8136561,65.2171191 48.5023415,65.4266865 48.4406634,65.747014 C48.3784537,66.0699976 48.5898073,66.379435 48.9114902,66.4415881 C49.2326415,66.5034756 49.5428927,66.2920488 49.6045707,65.9722526" id="Fill-382" fill="#FFF1E0" fill-rule="evenodd"></path>
                                <path d="M6.89331951,28.2554186 C6.89331951,28.2554186 8.76200488,22.3808889 14.3305756,18.9178461 C22.2982098,13.9633946 37.7615878,14.7634165 48.5081902,12.8196715 C56.0217463,11.4597406 68.5524927,12.3280246 68.5524927,12.3280246 C68.5524927,12.3280246 60.2926854,1.38934589 36.3759585,3.16416198 C28.5138683,3.74797607 15.8704,7.96376191 11.1374073,14.9995451 C7.21952195,20.8230774 6.89331951,28.2554186 6.89331951,28.2554186" id="Fill-383" fill="#EB8B2D" fill-rule="evenodd"></path>
                                <g id="Group-386" stroke-width="1" fill="none" fill-rule="evenodd" transform="translate(4.519512, 3.718228)">
                                    <mask id="mask-8" fill="white">
                                        <use xlink:href="#path-7"></use>
                                    </mask>
                                    <g id="Clip-385"></g>
                                    <path d="M42.856939,0.531488625 C42.856939,0.531488625 33.6294244,-0.860846894 23.3108463,2.21573119 C12.2484098,5.51436049 7.30778537,12.9137659 7.30778537,12.9137659 C7.30778537,12.9137659 18.880661,6.73829832 19.8829293,10.041443 C21.0529512,13.9005126 6.25181463,21.8927628 6.25181463,21.8927628 C6.25181463,21.8927628 18.1354732,18.4897482 21.1685976,19.3410331 C22.1519902,19.6178003 19.9618878,21.3418846 18.760761,23.1190912 C16.6517439,26.2408232 14.3401463,30.0297714 14.3401463,30.0297714 C14.3401463,30.0297714 29.0500951,17.6490878 33.9433976,22.5488233 C35.9886098,24.5972192 31.7953,27.2764425 31.7953,27.2764425 C31.7953,27.2764425 40.061222,22.0502705 46.3316463,18.378457 C51.4293902,15.3937805 57.735439,10.7562036 57.735439,10.7562036 C57.735439,10.7562036 47.5473951,14.6891132 41.7964488,12.7517428 C38.9215073,11.7838545 45.138761,5.52737546 45.138761,5.52737546 C45.138761,5.52737546 39.3011463,9.32057339 35.9928634,5.74331761 C32.0683317,1.49831451 42.856939,0.531488625 42.856939,0.531488625" id="Fill-384" mask="url(#mask-8)"></path>
                                </g>
                                <path d="M69.7007146,62.0608575 C72.6609951,62.4505096 74.5972073,67.4809259 71.4029756,72.7801411 C65.2261317,83.026105 57.7729244,77.5821315 59.2803146,71.5724056 C61.3529098,63.3023257 63.1171146,61.1931047 69.7007146,62.0608575" id="Fill-387" fill="none"></path>
                                <path d="M24.521278,57.141998 C21.6660098,57.06683 16.964122,60.7434244 21.373039,70.4881794 C23.8492,75.9619013 35.1530317,75.6166064 35.8139439,69.7277337 C36.8962341,60.0809893 30.8719902,57.3069428 24.521278,57.141998" id="Fill-389" fill="none"></path>
                                <path d="M73.8270293,13.2810387 C73.8270293,13.2810387 78.8298634,15.9105926 83.5652488,20.9011672 C87.4557512,25.0006152 83.7851098,33.7950122 78.6544,27.6073265 C73.5250195,21.4207033 71.3070024,15.2146904 71.3070024,15.2146904 L73.8270293,13.2810387" id="Fill-391" fill="#EB8B2D" fill-rule="evenodd"></path>
                                <g id="Group-394" stroke-width="1" fill="none" fill-rule="evenodd" transform="translate(0.000000, 26.826429)">
                                    <mask id="mask-10" fill="white">
                                        <use xlink:href="#path-9"></use>
                                    </mask>
                                    <g id="Clip-393"></g>
                                    <path d="M61.7790732,-5.04847791 C61.7790732,-5.04847791 58.7175024,-1.65077552 57.5862951,-0.593376106 C56.454822,0.464023303 53.3549683,3.70979592 53.3549683,3.70979592 C53.3549683,3.70979592 54.3505902,1.84414069 53.8850805,2.05636429 C53.4187732,2.2691191 52.8756341,2.82451276 52.8756341,2.82451276 C52.8756341,2.82451276 53.6503317,1.24014013 52.9774561,1.53682818 C52.3059098,1.83245379 51.4995756,2.56660399 51.4995756,2.56660399 C51.4995756,2.56660399 52.4340512,0.845441426 51.9342463,0.85659711 C51.4341756,0.866955959 50.4824195,2.18704515 50.4824195,2.18704515 C50.4824195,2.18704515 51.2401024,0.152992228 50.6182707,0.452867619 C49.9959073,0.753274234 49.2180195,1.54001552 49.2180195,1.54001552 C49.2180195,1.54001552 49.6542854,-0.00717151069 49.3389829,0.00451539562 C49.0226171,0.0151398559 48.5826293,0.790459845 48.5826293,0.790459845 C48.5826293,0.790459845 51.6333,-3.36529779 53.0923049,-4.98473115 C54.5510439,-6.60363328 57.4344927,-7.51999298 57.4344927,-7.51999298 C57.4344927,-7.51999298 55.5586293,-5.88754466 56.125961,-5.49390841 C56.6943561,-5.09947532 58.1281049,-6.83073112 58.1281049,-6.83073112 C58.1281049,-6.83073112 57.1782098,-4.91301604 57.5559878,-4.63359274 C57.9332341,-4.35470066 59.1114976,-6.00574178 59.1114976,-6.00574178 C59.1114976,-6.00574178 58.4572317,-4.51406756 59.0939512,-4.41286958 C60.0180585,-4.26731447 60.3527683,-5.61715215 60.3527683,-5.61715215 C60.3527683,-5.61715215 60.2578585,-4.67396569 60.5986829,-4.57807993 C60.9379122,-4.48219418 61.7790732,-5.04847791 61.7790732,-5.04847791" id="Fill-392" mask="url(#mask-10)"></path>
                                </g>
                                <path d="M26.4843415,28.3712252 C26.4843415,28.3712252 23.2520927,31.6517929 19.7609024,41.3455505 C15.5149537,53.1355141 16.210161,58.8113663 16.210161,58.8113663 C16.210161,58.8113663 7.70071707,50.5272091 7.69752683,42.0605767 C7.69247561,29.0870482 10.2680659,25.3796428 10.2680659,25.3796428 C10.2680659,25.3796428 9.11745122,30.3378128 11.125178,31.8268309 C13.1318415,33.3155834 16.6599854,26.8373188 16.6599854,26.8373188 C16.6599854,26.8373188 15.1395683,32.2191391 17.0909341,33.7931529 C19.0292732,35.3557454 26.4843415,28.3712252 26.4843415,28.3712252" id="Fill-395" fill="#CA732E" fill-rule="evenodd"></path>
                                <path d="M40.9552878,23.7456008 C40.9552878,23.7456008 23.3307854,32.8183587 18.2769073,46.8771757 C13.9873585,58.808179 16.3149073,64.4787191 16.3149073,64.4787191 C16.3149073,64.4787191 11.4027293,57.1504976 17.5516585,42.9655151 C27.5650366,19.8658135 46.2864512,19.3874472 46.2864512,19.3874472 L40.9552878,23.7456008" id="Fill-396" fill="#F1AD2B" fill-rule="evenodd"></path>
                                <path d="M48.0397561,22.0969502 C48.0397561,22.0969502 32.8143171,14.7371209 22.2325439,35.3376838 C17.5484683,44.4547988 16.1838415,59.0517448 16.1838415,59.0517448 C16.1838415,59.0517448 15.7667171,45.6577533 21.3751659,32.5883391 C31.3026732,9.4501239 59.9691415,15.2497512 59.9691415,15.2497512 L48.0397561,22.0969502" id="Fill-397" fill="#F9CA6D" fill-rule="evenodd"></path>
                                <path d="M27.226339,52.8401541 C26.1544171,51.7747863 26.0533927,50.6363754 26.0533927,50.6363754 C26.0533927,50.6363754 29.7386561,47.248235 35.067161,48.8886517 C40.3964634,50.5311932 41.8118683,54.3427183 41.8118683,54.3427183 C41.8118683,54.3427183 41.6762829,55.4213667 40.4384683,55.5693123 C33.1865122,56.4317529 28.7079415,54.310845 27.226339,52.8401541" id="Fill-398" fill="#FEE6D0" fill-rule="evenodd"></path>
                                <path d="M30.1645537,48.8671371 C29.4140488,49.5813665 28.0212415,52.174266 29.9853683,54.066748 C30.316622,54.3918565 30.6351146,55.0287929 33.034178,55.4338504 C33.8386512,55.5701091 34.6877878,55.3520421 34.9007366,55.2710306 C37.5762878,54.2579883 37.4236878,50.8424899 36.936378,50.2289273 C36.2946073,49.4209371 30.9166537,48.1529078 30.1645537,48.8671371" id="Fill-399" fill="#204A61" fill-rule="evenodd"></path>
                                <path d="M29.469878,51.5957641 C29.469878,51.5957641 29.491678,52.7049578 29.8899268,53.2709759 C30.5550927,54.2285054 31.4725537,54.7111215 33.1854488,54.9406099 C34.8201829,55.1653172 35.3997439,54.5897371 35.9213488,54.108449 C36.5147341,53.5639454 36.7468244,52.6215558 36.7468244,52.6215558 C36.7468244,52.6215558 36.1672634,51.5330798 33.3316683,51.2100962 C31.0583537,50.951125 29.469878,51.5957641 29.469878,51.5957641" id="Fill-400" fill="#266782" fill-rule="evenodd"></path>
                                <path d="M33.5480732,49.3696741 C32.4179293,49.2698042 31.989639,49.6382073 31.520939,50.1125895 C31.0519732,50.586706 30.4016951,53.7801532 33.2037927,53.9889238 C35.9947244,54.1963664 35.853822,50.9750301 35.5052878,50.3874974 C35.1594122,49.8044801 34.6771537,49.469544 33.5480732,49.3696741" id="Fill-401" fill="#1A1918" fill-rule="evenodd"></path>
                                <path d="M28.9929366,51.1447558 C29.4456854,51.1245693 31.7197976,50.8948154 31.8210878,51.597889 C31.9229098,52.2499653 29.4510024,52.4242064 29.0495634,52.4528925 C27.8776805,52.5405443 27.847639,51.1968157 28.9929366,51.1447558" id="Fill-402" fill="#FFFFFF" fill-rule="evenodd"></path>
                                <path d="M41.9155512,54.1907886 C41.9155512,54.1907886 39.5356293,51.8791716 37.5582098,50.6852479 C31.9428488,47.2965763 26.2753805,50.0658419 26.2753805,50.0658419 C26.2753805,50.0658419 24.8352512,50.1380882 26.0775854,48.4657981 C28.1499146,45.6678465 32.6630463,44.0855988 37.0735585,46.9324229 C41.6425195,49.8815075 41.9155512,54.1907886 41.9155512,54.1907886" id="Fill-403" fill="#CB8461" fill-rule="evenodd"></path>
                                <path d="M26.5228902,52.6821152 C26.5228902,52.6821152 28.7276146,54.3161572 32.4333488,55.1809883 C36.140678,56.0458193 40.8880268,55.6444803 40.8880268,55.6444803 C40.8880268,55.6444803 36.3445878,57.8474622 31.581022,56.7621736 C26.3250951,55.5647969 26.5228902,52.6821152 26.5228902,52.6821152" id="Fill-404" fill="none"></path>
                                <path d="M36.1805561,53.3535811 C36.3286366,53.041222 36.7018951,52.9068225 37.014539,53.0547682 C37.3290439,53.2043074 37.4606415,53.5769604 37.3130927,53.8890539 C37.1650122,54.2024755 36.7922854,54.3358125 36.4777805,54.1868044 C36.1640732,54.0385932 36.0327415,53.6656746 36.1805561,53.3535811" id="Fill-406" fill="#FFFFFF" fill-rule="evenodd"></path>
                                <path d="M25.7263927,53.7774971 C25.7263927,53.7774971 26.7132415,53.6338012 27.7609707,53.7448268 C28.3947659,53.8128234 29.733339,54.5347555 31.3441463,55.0046222 C33.5922049,55.6606826 34.6617341,55.6551048 35.5071488,55.7350539 C36.7670293,55.8559071 37.7315463,55.7815359 37.7315463,55.7815359 C37.7315463,55.7815359 34.7829634,55.6665261 32.5045976,55.0256055 C29.2327366,54.1052617 27.8771488,53.1689811 27.5450976,53.2167912 C26.5109268,53.3660648 25.7263927,53.7774971 25.7263927,53.7774971" id="Fill-407" fill="#1A1918" fill-rule="evenodd"></path>
                                <path d="M24.521278,52.6292585 C24.521278,52.6292585 25.1399195,52.4752038 26.0100585,52.5025618 C26.5680854,52.519561 27.4669366,53.3838608 27.4669366,53.3838608 L28.4468732,53.7628884 C28.4468732,53.7628884 26.7034049,52.4300499 26.5056098,52.321946 C26.3064854,52.214639 25.6532829,52.0605843 24.521278,52.6292585" id="Fill-408" fill="#1A1918" fill-rule="evenodd"></path>
                                <path d="M23.8906732,51.7851451 C23.8906732,51.7851451 24.3136463,51.6194036 24.9742927,51.7413193 C25.5219512,51.8425172 26.8062902,52.5801204 26.8062902,52.5801204 C26.8062902,52.5801204 25.8260878,51.7830203 25.6559415,51.6358715 C25.4842,51.4868634 24.5949195,51.163083 23.8906732,51.7851451" id="Fill-409" fill="#1A1918" fill-rule="evenodd"></path>
                                <path d="M36.464222,47.9135918 C36.464222,47.9135918 35.7831049,49.1152183 35.7163756,49.3736583 C35.6483171,49.6315671 36.0441732,49.7471081 36.0441732,49.7471081 L34.9150927,49.3792361 C34.9150927,49.3792361 35.3005805,49.4188122 35.5223024,49.2328842 C35.7450878,49.0474873 36.464222,47.9135918 36.464222,47.9135918" id="Fill-410" fill="#1A1918" fill-rule="evenodd"></path>
                                <path d="M35.3590683,47.0211372 C35.3590683,47.0211372 34.7492,48.439237 34.6715707,48.8639498 C34.5942073,49.2876001 35.0424366,49.3994226 35.0424366,49.3994226 L33.5735951,49.0806888 C33.5735951,49.0806888 34.1212537,49.1720591 34.3653073,48.7375187 C34.609361,48.3032439 35.3590683,47.0211372 35.3590683,47.0211372" id="Fill-411" fill="#1A1918" fill-rule="evenodd"></path>
                                <path d="M32.0850805,48.8278266 C32.0850805,48.8278266 32.5575024,48.7494712 32.6893659,48.4650013 C32.821761,48.1797346 33.1410512,46.9324229 33.1410512,46.9324229 C33.1410512,46.9324229 32.8927439,48.2639334 32.9166707,48.5885107 C32.9411293,48.9149472 33.5735951,49.0806888 33.5735951,49.0806888 L32.0850805,48.8278266" id="Fill-412" fill="#1A1918" fill-rule="evenodd"></path>
                                <path d="M35.7509366,49.6950482 C35.7509366,49.6950482 36.3807439,49.7564045 37.0304902,49.3250514 C37.7488268,48.8477475 38.3791659,48.1770784 38.3791659,48.1770784 C38.3791659,48.1770784 37.1573024,49.6368793 37.1846854,49.9787213 C37.2070171,50.2525668 37.6597659,50.530662 37.6597659,50.530662 L35.7509366,49.6950482" id="Fill-413" fill="#1A1918" fill-rule="evenodd"></path>
                                <path d="M39.5042585,49.7927932 C39.5042585,49.7927932 38.6303976,50.4945388 38.344339,50.5585512 C37.9322659,50.6512496 37.0735585,50.2185685 37.0735585,50.2185685 L38.5094341,51.2523285 C38.5094341,51.2523285 38.4209049,50.9822016 38.6051415,50.7819305 C38.7215854,50.6565619 39.5042585,49.7927932 39.5042585,49.7927932" id="Fill-414" fill="#1A1918" fill-rule="evenodd"></path>
                                <path d="M32.2193366,48.8442945 C32.2193366,48.8442945 31.6767293,48.7064422 31.1798488,48.4057699 C30.9174512,48.2485279 30.4359902,47.1550054 30.4359902,47.1550054 C30.4359902,47.1550054 30.9331366,48.2007179 30.8201488,48.4899688 C30.763522,48.6355239 30.3716537,48.7367219 30.3716537,48.7367219 L32.2193366,48.8442945" id="Fill-415" fill="#1A1918" fill-rule="evenodd"></path>
                                <path d="M30.5245195,48.6565072 C30.5245195,48.6565072 30.1385,48.6596945 29.8372878,48.5377789 C29.3635366,48.346273 28.4447463,47.1815665 28.4447463,47.1815665 C28.4447463,47.1815665 29.2720829,48.2145297 29.5440512,48.5794799 C29.638961,48.7064422 29.3114293,48.8554502 29.3114293,48.8554502 L30.5245195,48.6565072" id="Fill-416" fill="#2E2324" fill-rule="evenodd"></path>
                                <path d="M33.9285098,55.4407563 C33.9285098,55.4407563 33.6525537,55.4354441 33.6802024,55.8904366 C33.6863171,55.9988061 33.6615927,56.7111762 33.6615927,56.7111762 C33.6615927,56.7111762 33.6052317,55.6551048 33.4802805,55.535314 C33.3553293,55.4152576 33.1663073,55.391087 33.1663073,55.391087 L33.9285098,55.4407563" id="Fill-417" fill="#1A1918" fill-rule="evenodd"></path>
                                <path d="M41.8661024,54.126245 C41.8661024,54.126245 37.1793683,50.198382 33.1663073,49.6275829 C27.5291463,48.826233 26.4838098,50.660546 26.0533927,50.6363754 C24.5896024,50.5508485 24.0374244,49.8764609 24.0374244,49.8764609 C24.0374244,49.8764609 25.3063439,50.559348 25.5357756,50.1742114 C25.634939,50.0103291 25.5963902,49.9874865 25.1526805,49.7452488 C24.7608122,49.5303691 24.1440317,48.7869225 24.1440317,48.7869225 C24.1440317,48.7869225 24.9025122,49.2798974 25.2486537,49.4474983 C25.5756537,49.6055371 25.9747,49.9356922 26.2554415,49.8097924 C26.7159,49.6081932 26.330678,49.3534718 25.9518366,49.1425763 C25.3454244,48.8047184 25.0577707,48.3794744 25.0577707,48.3794744 C25.0577707,48.3794744 26.079978,49.187199 28.4048683,48.8437633 C30.2584,48.5688554 35.1142171,48.5510594 38.0558878,50.8276157 C40.3143146,52.5764018 41.8661024,54.126245 41.8661024,54.126245" id="Fill-418" fill="#1A1918" fill-rule="evenodd"></path>
                                <path d="M70.7000585,55.686447 C70.7000585,55.686447 68.0056317,51.6350746 62.4655073,52.261121 C56.9240537,52.8871673 54.7283683,56.3417106 54.7283683,56.3417106 C54.7283683,56.3417106 54.9891707,57.8854446 56.1948171,58.2001943 C69.3210756,61.6356135 70.7000585,55.686447 70.7000585,55.686447" id="Fill-419" fill="#FEE6D0" fill-rule="evenodd"></path>
                                <path d="M65.9612171,52.5182329 C66.693378,53.2159943 67.6140293,55.6351839 65.9274537,57.492074 C65.6227854,57.8259477 65.2915317,58.4286202 62.9522854,58.8203971 C62.1672195,58.9521404 61.2385927,58.5160063 61.0349488,58.4272921 C58.1177366,57.1621845 58.9679366,54.2401923 59.3138122,53.3780174 C59.6905268,52.4433305 65.2306512,51.8204715 65.9612171,52.5182329" id="Fill-420" fill="#204A61" fill-rule="evenodd"></path>
                                <path d="M66.6348902,55.0245431 C66.6348902,55.0245431 66.611761,56.1053163 66.2233488,56.6575226 C65.5736024,57.589819 64.6771439,58.0591546 63.0065195,58.2809402 C61.4119293,58.4971479 60.8975024,57.8992564 60.389722,57.4291241 C59.8114902,56.8971042 59.6001366,55.9440901 59.6001366,55.9440901 C59.6001366,55.9440901 60.1036634,54.9530936 62.8685415,54.6423281 C65.087622,54.3931845 66.6348902,55.0245431 66.6348902,55.0245431" id="Fill-421" fill="#266782" fill-rule="evenodd"></path>
                                <path d="M62.7116878,53.0614084 C63.8144488,52.967382 64.2310415,53.3264887 64.6888415,53.789184 C65.145578,54.2532073 65.7748537,57.3685646 63.0416122,57.5683045 C60.3190049,57.7667163 60.4617683,54.6234697 60.8015293,54.0534674 C61.1404927,53.4845276 61.6107878,53.1564974 62.7116878,53.0614084" id="Fill-422" fill="#1A1918" fill-rule="evenodd"></path>
                                <path d="M66.9361024,56.3111652 C66.5322707,56.1329399 64.5468756,55.1185696 64.2052537,55.7217733 C63.8817098,56.2779638 66.0659634,57.3114582 66.4206122,57.4798559 C67.4555805,57.9738933 67.9604366,56.7642985 66.9361024,56.3111652" id="Fill-423" fill="#FFFFFF" fill-rule="evenodd"></path>
                                <path d="M54.7504341,56.203327 C54.7504341,56.203327 57.5054756,53.8154795 59.7184415,53.1514507 C66.9828927,50.9705147 70.6341268,55.1209601 70.6341268,55.1209601 C70.6341268,55.1209601 71.9990195,55.2750147 71.0905976,53.4008599 C69.572839,50.2687691 65.5906171,47.9760105 60.7273561,49.9558787 C55.6907585,52.0063995 54.7504341,56.203327 54.7504341,56.203327" id="Fill-424" fill="#CB8461" fill-rule="evenodd"></path>
                                <path d="M69.2274951,57.73139 C69.2274951,57.73139 67.333022,58.7707278 63.5305171,58.9343445 C59.7266829,59.0976955 55.1808512,57.9776118 55.1808512,57.9776118 C55.1808512,57.9776118 59.8891195,60.6762247 64.1098122,60.3439447 C69.4835122,59.9216224 69.2274951,57.73139 69.2274951,57.73139" id="Fill-425" fill="none"></path>
                                <path d="M58.4014024,55.6821972 C58.5417732,55.3671819 58.9129049,55.2253454 59.2284732,55.3663851 C59.5464341,55.5087529 59.6857415,55.8779529 59.5456366,56.1934993 C59.4036707,56.5093114 59.0344,56.6516792 58.7167049,56.5085146 C58.3995415,56.3682717 58.2597024,55.9988061 58.4014024,55.6821972" id="Fill-427" fill="#FFFFFF" fill-rule="evenodd"></path>
                                <path d="M71.1355268,58.425964 C71.1355268,58.425964 69.9208415,57.8939442 69.173261,57.9409574 C68.5365415,57.9826584 67.551022,58.527162 65.8849171,58.7340734 C63.5600268,59.0206682 62.3453415,58.9906541 61.347061,58.9085802 C60.0855854,58.8039292 59.368578,58.7223865 59.368578,58.7223865 C59.368578,58.7223865 61.6211561,58.9455002 64.7619512,58.6825448 C68.1494585,58.3994029 69.0876561,57.5491805 69.4077439,57.6485192 C70.4046951,57.9611439 71.1355268,58.425964 71.1355268,58.425964" id="Fill-428" fill="#1A1918" fill-rule="evenodd"></path>
                                <path d="M72.0984488,57.80523 C72.0984488,57.80523 71.4917707,57.4679033 70.630139,57.3555497 C70.0774293,57.2822409 69.0323585,57.80523 69.0323585,57.80523 L68.5181976,57.9821272 C68.5181976,57.9821272 69.9264244,57.2543517 70.1388415,57.1799805 C70.3520561,57.1053436 71.0703927,57.0636426 72.0984488,57.80523" id="Fill-429" fill="#1A1918" fill-rule="evenodd"></path>
                                <path d="M72.5695415,56.8867454 C72.5695415,56.8867454 72.1795341,56.5624337 71.5082537,56.5778392 C70.949961,56.5884636 69.7007146,57.2490395 69.7007146,57.2490395 C69.7007146,57.2490395 70.6593829,56.5759799 70.8510634,56.4572516 C71.0435415,56.3385232 71.9748268,56.1602979 72.5695415,56.8867454" id="Fill-430" fill="#1A1918" fill-rule="evenodd"></path>
                                <path d="M66.1837366,51.1240381 C66.1837366,51.1240381 65.9083122,51.8666879 65.8604585,52.1867497 C65.8118073,52.5070772 66.1837366,52.6717564 66.1837366,52.6717564 L64.9352878,52.4810473 C64.9352878,52.4810473 65.3859098,52.5684335 65.5988585,52.2969785 C65.8107439,52.0241955 66.1837366,51.1240381 66.1837366,51.1240381" id="Fill-431" fill="#1A1918" fill-rule="evenodd"></path>
                                <path d="M65.0012195,50.5391616 C65.0012195,50.5391616 64.704261,51.4855354 64.6582683,52.0050715 C64.6138707,52.5246076 65.1142073,52.6149155 65.1142073,52.6149155 L63.7386805,52.4119883 C63.7386805,52.4119883 64.2786293,52.4746726 64.4937049,51.902811 C64.7085146,51.3320119 65.0012195,50.5391616 65.0012195,50.5391616" id="Fill-432" fill="#1A1918" fill-rule="evenodd"></path>
                                <path d="M62.546061,52.5307166 C62.546061,52.5307166 63.0987707,52.3060093 63.2106951,51.938403 C63.3231512,51.5697342 63.4002488,50.9901699 63.4002488,50.9901699 C63.4002488,50.9901699 63.3457488,51.6194036 63.3965268,51.999228 C63.4483683,52.3774588 63.9364756,52.4412056 63.9364756,52.4412056 L62.546061,52.5307166" id="Fill-433" fill="#1A1918" fill-rule="evenodd"></path>
                                <path d="M66.0699512,52.3915362 C66.0699512,52.3915362 66.7800463,52.4680323 67.0873732,52.1846249 C67.3043098,51.9843538 67.9864902,51.2074401 67.9864902,51.2074401 C67.9864902,51.2074401 67.3059049,52.1017541 67.4375024,52.4157069 C67.5635171,52.7126605 68.085122,52.927009 68.085122,52.927009 L66.0699512,52.3915362" id="Fill-434" fill="#2E2324" fill-rule="evenodd"></path>
                                <path d="M69.7326171,52.3793181 C69.7326171,52.3793181 68.9975317,52.778001 68.6971171,52.8255454 C68.3964366,52.8741523 67.3726341,52.7227538 67.3726341,52.7227538 L69.1006829,53.4361863 C69.1006829,53.4361863 68.897039,53.2194473 68.9813146,53.0268789 C69.0658561,52.8367011 69.7326171,52.3793181 69.7326171,52.3793181" id="Fill-435" fill="#2E2324" fill-rule="evenodd"></path>
                                <path d="M62.9036341,52.479188 C62.9036341,52.479188 62.1528634,52.4497051 61.913861,52.3421325 C61.6344488,52.215967 61.3914585,51.5777026 61.3914585,51.5777026 C61.3914585,51.5777026 61.5783537,52.1702818 61.5262463,52.4223472 C61.4895585,52.6111969 61.1684073,52.7957969 61.1684073,52.7957969 L62.9036341,52.479188" id="Fill-436" fill="#1A1918" fill-rule="evenodd"></path>
                                <path d="M61.4855707,52.6467889 C61.4855707,52.6467889 61.0607366,52.7447995 60.8520415,52.66246 C60.3774927,52.4746726 59.9691415,52.0154303 59.9691415,52.0154303 C59.9691415,52.0154303 60.2086756,52.2831667 60.4814415,52.6853025 C60.5766171,52.8255454 60.2411098,53.0462686 60.2411098,53.0462686 L61.4855707,52.6467889" id="Fill-437" fill="#1A1918" fill-rule="evenodd"></path>
                                <path d="M63.910422,58.8318184 C63.910422,58.8318184 63.5969805,58.8254438 63.4874488,59.1760509 C63.4542171,59.279905 63.3603707,59.9311845 63.3603707,59.9311845 C63.3603707,59.9311845 63.4212512,59.1598486 63.3138463,59.0238555 C63.2061756,58.8886593 63.0216732,58.8413804 63.0216732,58.8413804 L63.910422,58.8318184" id="Fill-438" fill="#1A1918" fill-rule="evenodd"></path>
                                <path d="M64.5540537,58.7980858 C64.5540537,58.7980858 64.2786293,58.8073822 64.3320659,59.2602498 C64.3434976,59.3680881 64.3581195,60.0809893 64.3581195,60.0809893 C64.3581195,60.0809893 64.2438024,59.0286366 64.1130024,58.9162829 C63.981139,58.8026012 63.7915854,58.7895862 63.7915854,58.7895862 L64.5540537,58.7980858" id="Fill-439" fill="#1A1918" fill-rule="evenodd"></path>
                                <path d="M54.8102512,56.2235134 C54.8102512,56.2235134 59.6599537,52.6794591 64.4264439,53.3174579 C70.0691878,54.0725914 70.3608293,55.6253563 70.7909805,55.5894988 C72.077978,55.4784732 73.1650537,55.1132573 73.1650537,55.1132573 C73.1650537,55.1132573 71.3742634,55.2319857 71.246122,55.0712907 C71.1264878,54.9212202 71.1482878,54.829053 71.6294829,54.6723422 C72.0545829,54.5347555 72.6144707,54.3140323 72.6144707,54.3140323 C72.6144707,54.3140323 72.068939,54.4210737 71.6970098,54.5119129 C70.8827,54.7055437 70.5113024,54.5695506 70.2502341,54.4072619 C69.7605317,54.1026055 70.5203415,53.9073811 71.0632146,53.6234424 C71.4994805,53.3936884 71.9474439,52.9942087 71.9474439,52.9942087 C71.9474439,52.9942087 70.9425171,53.7246404 69.6778512,53.6404415 C69.0618683,53.5992717 68.7109415,53.0313943 68.235861,52.8667152 C66.4650098,52.2544807 63.1221659,51.5312205 58.5018951,53.6481443 C55.9061,54.8375526 54.8102512,56.2235134 54.8102512,56.2235134" id="Fill-440" fill="#1A1918" fill-rule="evenodd"></path>
                                <path d="M71.3070024,16.2734179 C71.3070024,16.2734179 64.706122,32.0441011 74.9484,35.1259914 C89.5493488,39.5194714 88.5906805,51.0929616 88.5906805,51.0929616 C88.5906805,51.0929616 90.3195268,37.757139 80.9550976,33.2606018 C67.8846683,26.9847331 71.3070024,16.2734179 71.3070024,16.2734179" id="Fill-441" fill="none"></path>
                                <path d="M42.4126976,79.7240227 C42.4126976,79.7240227 43.3551488,80.4693286 45.5362122,80.5567148 C47.5362293,80.6363983 48.784678,80.4329398 48.784678,80.4329398 C48.784678,80.4329398 47.269578,81.3883444 45.4319976,81.3883444 C43.5936195,81.3883444 42.1962927,80.5357315 42.1962927,80.5357315 C42.1962927,80.5357315 42.6166073,80.3211174 42.4126976,79.7240227" id="Fill-443" fill="#EA908F" fill-rule="evenodd"></path>
                                <path d="M31.6541317,90.8643005 C31.6541317,90.8643005 43.2208927,121.196603 48.6855146,126.128743 C51.8933049,129.023643 42.5219634,129.141309 41.3043537,125.682782 C40.0862122,122.224786 31.6541317,90.8643005 31.6541317,90.8643005" id="Fill-444" fill="#F7D1AE" fill-rule="evenodd"></path>
                                <path d="M51.9486024,134.456195 C51.9486024,134.456195 55.2850659,128.041412 57.1481683,127.197299 C59.0118024,126.353185 79.8528683,126.184788 79.8528683,126.184788 C79.8528683,126.184788 61.4156512,127.693992 59.368578,128.289227 C57.3217707,128.884728 51.9486024,134.456195 51.9486024,134.456195" id="Fill-445" fill="#F7D1AE" fill-rule="evenodd"></path>
                                <path d="M46.6187683,134.456195 C46.6187683,134.456195 41.6917024,129.695375 40.5022732,129.695375 C39.3123122,129.695375 22.8732512,128.177139 23.1773878,128.289227 C23.4815244,128.402909 38.8000122,129.847039 40.5022732,130.987309 C42.2048,132.128642 46.6187683,134.456195 46.6187683,134.456195" id="Fill-446" fill="#F7D1AE" fill-rule="evenodd"></path>
                                <path d="M26.9224683,127.147432 C26.9224683,127.147432 25.1548073,153.14097 25.900261,153.373646 C26.6454488,153.606322 16.7487805,153.237122 16.7487805,153.237122 L20.3027122,127.342922 L26.9224683,127.147432" id="Fill-558" fill="#BE242A" fill-rule="evenodd"></path>
                                <path d="M76.0796073,118.640692 C76.0796073,118.640692 77.1167024,126.070908 75.3256463,141.192702 C74.674039,146.694845 70.503061,153.237122 70.503061,153.237122 L84.6828976,153.203389 C84.6828976,153.203389 85.1832341,142.800449 84.0514951,131.805992 C82.920022,120.8118 83.6162927,117.400286 83.6162927,117.400286 L76.0796073,118.640692" id="Fill-559" fill="#BE242A" fill-rule="evenodd"></path>
                            </g>
                        </g>
                    </g>
                </g>
            </g>
        </g>
    </g>
</svg>