<?xml version="1.0" encoding="UTF-8"?>
<svg width="36px" height="36px" viewBox="0 0 36 36" version="1.1" xmlns="http://www.w3.org/2000/svg" xmlns:xlink="http://www.w3.org/1999/xlink">
    <!-- Generator: Sketch 39.1 (31720) - http://www.bohemiancoding.com/sketch -->
    <title>checked</title>
    <desc>Created with Sketch.</desc>
    <defs></defs>
    <g id="Page-1" stroke="none" stroke-width="1" fill="none" fill-rule="evenodd">
        <path d="M17.602,0.801 C7.84,0.801 0,8.641 0,18.403 C0,28.16 7.84,36 17.602,36 C27.359,36 35.199,28.16 35.199,18.403 C35.199,8.641 27.359,0.801 17.602,0.801 L17.602,0.801 Z M27.762,12.879 L14.961,26.16 C14.801,26.321 14.641,26.403 14.398,26.403 C14.16,26.403 13.922,26.321 13.84,26.16 L7.602,19.442 L7.441,19.281 C7.281,19.121 7.199,18.879 7.199,18.723 C7.199,18.563 7.281,18.321 7.441,18.16 L8.559,17.039 C8.879,16.723 9.359,16.723 9.68,17.039 L9.762,17.121 L14.16,21.84 C14.32,22 14.559,22 14.719,21.84 L25.441,10.723 L25.52,10.723 C25.84,10.403 26.32,10.403 26.641,10.723 L27.762,11.84 C28.078,12.082 28.078,12.563 27.762,12.879 L27.762,12.879 Z" id="checked" fill="#4CAF54"></path>
    </g>
</svg>