<?xml version="1.0" encoding="UTF-8"?>
<svg width="140px" height="140px" viewBox="0 0 140 140" version="1.1" xmlns="http://www.w3.org/2000/svg" xmlns:xlink="http://www.w3.org/1999/xlink">
    <!-- Generator: Sketch 41.1 (35376) - http://www.bohemiancoding.com/sketch -->
    <title>avatar-4</title>
    <desc>Created with Sketch.</desc>
    <defs>
        <circle id="path-1" cx="70" cy="70" r="70"></circle>
    </defs>
    <g id="Page-1" stroke="none" stroke-width="1" fill="none" fill-rule="evenodd">
        <g id="avatar-4">
            <mask id="mask-2" fill="white">
                <use xlink:href="#path-1"></use>
            </mask>
            <use id="Mask" fill="#FFE1D6" xlink:href="#path-1"></use>
            <g id="Group-5" mask="url(#mask-2)">
                <g transform="translate(19.000000, 2.000000)">
                    <path d="M45.1881818,136.872909 C48.0365455,133.384364 47.5567273,130.172 45.0074545,129.164 C42.6109091,128.215818 38.3981818,129.701091 35.3563636,130.194909 C19.7565455,132.725091 8.14545455,122.830909 10.7112727,106.373273 C12.2512727,96.4918182 19.7145455,87.444 25.6861818,77.9838182 C25.7510909,78.2689091 25.8172727,78.5527273 25.8821818,78.8352727 C20.2350909,87.4376364 13.8625455,95.7829091 12.4536364,104.825636 C9.88909091,121.284545 21.5001818,131.177455 37.1,128.648545 C40.1405455,128.154727 44.4716364,126.412364 46.7498182,127.616364 C51.3545455,130.053636 47.4841818,135.765636 45.1881818,136.872909" id="Fill-966" fill="#0A0A08"></path>
                    <path d="M31.7252727,61.5783636 C24.1690909,70.1641818 14.9558182,77.2354545 10.7621818,86.2654545 C3.59290909,101.703636 12.0616364,113.561636 26.8265455,118.129455 C31.0558182,119.439091 36.9332727,119.638909 40.3645455,122.113091 C45.7189091,125.973273 46.5652727,131.862182 36.1098182,133.768727 C40.8430909,130.41 41.3470909,126.255818 38.5241818,124.129091 C35.8730909,122.132182 30.1292727,122.533091 26.1825455,122.105455 C5.93854545,119.907455 -5.09981818,103.640727 3.72272727,84.0725455 C9.01981818,72.324 21.3907273,63.6389091 32.0472727,53.9330909 C31.9403636,56.4810909 31.8321818,59.0303636 31.7252727,61.5783636" id="Fill-967" fill="#0A0A08"></path>
                    <path d="M34.2961818,44.0961818 C7.45690909,70.3525455 -9.61418182,112.215091 42.5536364,120.650727 C29.6634545,90.8650909 33.9016364,71.2638182 34.2961818,44.0961818" id="Fill-968" fill="#0A0A08"></path>
                    <path d="M38.836,106.162 L66.5216364,106.162 C64.5705455,116.660727 64.3096364,126.988909 66.5216364,137.072727 C57.2930909,139.725091 48.0645455,139.413273 38.836,137.072727 C40.04,127.491636 39.7154545,116.992909 38.836,106.162" id="Fill-969" fill="#F7C995"></path>
                    <path d="M38.836,106.162 L66.5216364,106.162 C65.6638182,110.778182 65.1318182,115.361273 64.9943636,119.906182 C61.1163636,122.623455 56.882,124.538909 52.6794545,124.558 C48.1956364,124.579636 43.6647273,122.390545 39.5716364,119.364 C39.466,115.048182 39.1987273,110.633091 38.836,106.162" id="Fill-970" fill="#EB9166"></path>
                    <path d="M60.6887273,17.7176364 C82.6496364,23.1292727 89.9729091,49.9901818 88.6963636,74.5283636 C87.9798182,88.2814545 84.0763636,95.6098182 77.6121818,104.008545 C72.3698182,110.817636 62.44,121.079636 52.6794545,121.124182 C42.9303636,121.17 32.9572727,110.778182 27.7454545,104.008545 C21.2812727,95.6110909 17.3778182,88.2814545 16.6612727,74.5283636 C15.3834545,49.9863636 22.7105455,23.1241818 44.6765455,17.7163636 C49.9367273,16.4207273 55.4285455,16.4207273 60.6887273,17.7176364" id="Fill-971" fill="#F7C995"></path>
                    <path d="M46.3832727,88.7129091 C50.1836364,90.0989091 54.8774545,90.0989091 58.6778182,88.7129091 C57.2154545,94.5941818 47.8456364,94.5941818 46.3832727,88.7129091" id="Fill-972" fill="#EB9166"></path>
                    <path d="M41.7123636,104.149818 C44.8305455,105.655455 45.0367273,108.334545 47.0043636,109.467273 C49.6185455,110.971636 55.2376364,110.971636 57.8530909,109.467273 C59.8207273,108.334545 60.0281818,105.655455 63.1450909,104.149818 C56.2494545,103.378545 48.608,103.378545 41.7123636,104.149818" id="Fill-973" fill="#E25D74"></path>
                    <path d="M52.4287273,100.082182 C50.5934545,100.082182 50.82,99.2205455 50.0207273,99.4458182 C47.3543636,100.198 42.168,105.929091 39.5958182,102.151636 C40.9067273,106.098364 43.8556364,106.313455 49.3538182,105.143818 C50.0932727,104.987273 54.7641818,104.987273 55.5036364,105.143818 C61.0030909,106.313455 63.9507273,106.098364 65.2616364,102.151636 C62.6894545,105.929091 57.5043636,100.198 54.8367273,99.4458182 C54.0374545,99.2205455 54.264,100.082182 52.4287273,100.082182" id="Fill-974" fill="#BA3147"></path>
                    <path d="M25.382,67.2572727 C28.938,74.9814545 33.6738182,74.6798182 40.0578182,73.5063636 C41.1345455,73.3090909 42.1438182,73.122 43.5756364,73.4847273 C41.146,63.2278182 32.2865455,60.7574545 25.382,67.2572727" id="Fill-975" fill="#FFFFFF"></path>
                    <path d="M25.382,67.2572727 C33.8723636,62.0441818 39.6772727,65.4347273 43.0576364,73.178 C42.0483636,62.8129091 30.2145455,58.646 25.382,67.2572727" id="Fill-976" fill="#EB9166"></path>
                    <path d="M25.382,67.2572727 C28.2087273,75.2194545 33.5478182,74.9865455 40.0578182,73.5063636 C41.1256364,73.2632727 42.1438182,73.122 43.5756364,73.4847273 C42.6732727,72.9718182 41.6118182,72.9896364 39.9190909,73.1601818 C35.4861818,73.6094545 29.6469091,74.1032727 25.382,67.2572727" id="Fill-977" fill="#EB9166"></path>
                    <path d="M36.5476364,73.1309091 C36.5247273,73.1334545 36.5018182,73.136 36.4789091,73.1385455 C35.2367273,73.0049091 34.0314545,72.7376364 32.8885455,72.3290909 C31.5878182,71.5018182 30.6421818,70.1298182 30.4156364,68.488 C30.296,67.6276364 30.3876364,66.7850909 30.6510909,66.0112727 C31.2823636,65.9081818 32.0116364,65.8432727 32.956,65.814 C36.2549091,65.7058182 38.9250909,66.8767273 41.0543636,69.1485455 C40.502,71.1950909 38.7723636,72.8229091 36.5476364,73.1309091" id="Fill-978" fill="#56302E"></path>
                    <path d="M36.1963636,70.7318182 C34.6041818,70.952 33.1252727,69.832 32.9050909,68.2385455 C32.7905455,67.4112727 33.0374545,66.6158182 33.5236364,66.01 C35.4798182,66.0150909 37.1954545,66.5076364 38.6909091,67.4456364 C38.9072727,69.0365455 37.7885455,70.5103636 36.1963636,70.7318182" id="Fill-979" fill="#0A0A08"></path>
                    <path d="M28.1412727,62.5952727 C27.9401818,63.5307273 28.9176364,64.5578182 29.4687273,64.8989091 C28.0521818,65.4118182 26.8290909,64.3796364 26.2856364,63.434 C26.3785455,64.5081818 26.9207273,65.2336364 27.7709091,65.6421818 C26.5312727,66.2785455 25.34,65.2641818 24.6972727,64.5043636 C24.9149091,65.5123636 25.4990909,66.1512727 26.3314545,66.4656364 C25.55,66.8958182 24.6056364,66.7570909 23.786,66.4516364 C24.0036364,66.9836364 24.5521818,67.2814545 24.8270909,67.3145455 C24.6870909,67.3527273 24.5012727,67.4710909 24.3243636,67.5881818 C25.256,67.3641818 25.7141818,67.9267273 26.2207273,68.6318182 C29.54,73.2492727 34.1294545,74.2254545 39.9992727,73.2861818 C41.0823636,73.1130909 42.6618182,72.8534545 43.7538182,74.4189091 C42.5714545,68.0858182 38.262,63.9609091 32.8452727,64.2065455 C30.8343636,64.2969091 28.7496364,64.0614545 28.1412727,62.5952727 Z M27.7021818,67.8032727 C33.6509091,65.3201818 39.8478182,66.7723636 42.8056364,72.9272727 C41.9096364,72.5429091 41.2783636,72.4958182 39.7447273,72.6510909 C34.7212727,73.1601818 30.5174545,72.0198182 27.7021818,67.8032727 L27.7021818,67.8032727 Z" id="Fill-980" fill="#0A0A08"></path>
                    <path d="M34.8129091,66.9810909 C35.3258182,66.9810909 35.7432727,67.3985455 35.7432727,67.9127273 C35.7432727,68.4269091 35.3258182,68.8443636 34.8129091,68.8443636 C34.2974545,68.8443636 33.8812727,68.4269091 33.8812727,67.9127273 C33.8812727,67.3985455 34.2974545,66.9810909 34.8129091,66.9810909" id="Fill-981" fill="#FFFFFF"></path>
                    <path d="M44.9310909,65.6981818 C44.2590909,59.346 37.6154545,59.122 32.5436364,58.6905455 C28.2507273,58.3265455 24.0570909,58.7045455 20.4934545,59.7710909 C24.9747273,59.4541818 28.5090909,59.5598182 32.4074545,60.3654545 C36.5018182,61.2105455 42.1654545,62.272 44.9310909,65.6981818" id="Fill-982" fill="#0A0A08"></path>
                    <path d="M79.6790909,67.2572727 C76.1230909,74.9814545 71.3872727,74.6798182 65.0032727,73.5063636 C63.9265455,73.3090909 62.9185455,73.122 61.4867273,73.4847273 C63.9150909,63.2278182 72.7745455,60.7574545 79.6790909,67.2572727" id="Fill-983" fill="#FFFFFF"></path>
                    <path d="M79.6790909,67.2572727 C71.1887273,62.0441818 65.3838182,65.4347273 62.0034545,73.178 C63.0127273,62.8129091 74.8465455,58.646 79.6790909,67.2572727" id="Fill-984" fill="#EB9166"></path>
                    <path d="M79.6790909,67.2572727 C76.8523636,75.2194545 71.5132727,74.9865455 65.0032727,73.5063636 C63.9354545,73.2632727 62.9185455,73.122 61.4867273,73.4847273 C62.3878182,72.9718182 63.4505455,72.9896364 65.142,73.1601818 C69.5749091,73.6094545 75.4141818,74.1032727 79.6790909,67.2572727" id="Fill-985" fill="#EB9166"></path>
                    <path d="M68.5134545,73.1309091 C68.5363636,73.1334545 68.5592727,73.136 68.5821818,73.1385455 C69.8243636,73.0049091 71.0296364,72.7376364 72.1725455,72.3290909 C73.4732727,71.5018182 74.4189091,70.1298182 74.6454545,68.488 C74.7650909,67.6276364 74.6734545,66.7850909 74.41,66.0112727 C73.7787273,65.9081818 73.0494545,65.8432727 72.1050909,65.814 C68.8061818,65.7058182 66.136,66.8767273 64.0067273,69.1485455 C64.5590909,71.1950909 66.2887273,72.8229091 68.5134545,73.1309091" id="Fill-986" fill="#56302E"></path>
                    <path d="M68.8647273,70.7318182 C70.4569091,70.952 71.9358182,69.832 72.156,68.2385455 C72.2705455,67.4112727 72.0236364,66.6158182 71.5374545,66.01 C69.5812727,66.0150909 67.8656364,66.5076364 66.3701818,67.4456364 C66.1550909,69.0365455 67.2725455,70.5103636 68.8647273,70.7318182" id="Fill-987" fill="#0A0A08"></path>
                    <path d="M76.9198182,62.5952727 C77.1209091,63.5307273 76.1447273,64.5578182 75.5923636,64.8989091 C77.0089091,65.4118182 78.232,64.3796364 78.7754545,63.434 C78.6825455,64.5081818 78.1403636,65.2336364 77.2901818,65.6421818 C78.5298182,66.2785455 79.7210909,65.2641818 80.3638182,64.5043636 C80.1461818,65.5123636 79.562,66.1512727 78.7296364,66.4656364 C79.5110909,66.8958182 80.4554545,66.7570909 81.2750909,66.4516364 C81.0574545,66.9836364 80.5089091,67.2814545 80.234,67.3145455 C80.374,67.3527273 80.5598182,67.4710909 80.7367273,67.5881818 C79.8050909,67.3641818 79.3469091,67.9267273 78.8403636,68.6318182 C75.5210909,73.2492727 70.9316364,74.2254545 65.0618182,73.2861818 C63.9787273,73.1130909 62.3992727,72.8534545 61.3072727,74.4189091 C62.4896364,68.0858182 66.7990909,63.9609091 72.2158182,64.2065455 C74.2267273,64.2969091 76.3114545,64.0614545 76.9198182,62.5952727 Z M77.3589091,67.8032727 C71.4101818,65.3201818 65.2132727,66.7723636 62.2554545,72.9272727 C63.1514545,72.5429091 63.7827273,72.4958182 65.3163636,72.6510909 C70.3398182,73.1601818 74.5436364,72.0198182 77.3589091,67.8032727 L77.3589091,67.8032727 Z" id="Fill-988" fill="#0A0A08"></path>
                    <path d="M70.2481818,66.9810909 C69.7352727,66.9810909 69.3178182,67.3985455 69.3178182,67.9127273 C69.3178182,68.4269091 69.7352727,68.8443636 70.2481818,68.8443636 C70.7636364,68.8443636 71.1798182,68.4269091 71.1798182,67.9127273 C71.1798182,67.3985455 70.7636364,66.9810909 70.2481818,66.9810909" id="Fill-989" fill="#FFFFFF"></path>
                    <path d="M60.13,65.6981818 C60.802,59.346 67.4456364,59.122 72.5174545,58.6905455 C76.8103636,58.3265455 81.004,58.7045455 84.5676364,59.7710909 C80.0863636,59.4541818 76.552,59.5598182 72.6536364,60.3654545 C68.5592727,61.2105455 62.8956364,62.272 60.13,65.6981818" id="Fill-990" fill="#0A0A08"></path>
                    <path d="M60.354,30.7109091 C84.4263636,38.5076364 84.5294545,63.2698182 92.3541818,79.4792727 C95.536,86.0707273 99.1543636,89.6076364 102.594545,91.0292727 C107.157273,92.9167273 114.363455,91.5218182 114.713455,84.3690909 C113.127636,90.8676364 106.932,91.2838182 103.309818,89.4689091 C100.376182,87.9989091 97.0721818,84.6643636 93.6612727,78.6990909 C85.4050909,64.2536364 87.878,39.4087273 62.1485455,28.9583636 C61.0056364,29.3516364 60.5512727,29.7996364 60.354,30.7109091" id="Fill-991" fill="#0A0A08"></path>
                    <path d="M60.7065455,23.646 C83.2210909,35.1909091 81.3107273,59.0010909 86.4423636,76.2554545 C88.5296364,83.2707273 91.5358182,87.3409091 94.7036364,89.2932727 C98.9061818,91.8858182 106.243455,91.6618182 107.731273,84.658 C105.127273,90.818 98.9443636,90.2376364 95.6594545,87.8665455 C92.9981818,85.9472727 91.3169091,81.6034545 88.9050909,75.1685455 C83.0645455,59.5890909 90.1943636,34.034 66.4669091,19.6038182 C65.2756364,19.81 61.0463636,22.778 60.7065455,23.646" id="Fill-992" fill="#0A0A08"></path>
                    <path d="M21.056,90.3789091 C2.92090909,75.558 -3.32818182,52.0138182 6.03272727,29.8149091 C17.7201818,2.10127273 48.4909091,-4.60854545 69.4527273,4.00654545 C86.9476364,11.1974545 93.5365455,32.7256364 96.7756364,47.4078182 C99.4369091,59.4821818 98.1018182,74.858 93.576,86.4601818 C89.838,96.0463636 83.8141818,105.133636 77.0509091,112.826 C74.2152727,116.053636 70.3614545,120.187455 68.6954545,124.456182 C68.6903636,124.859636 68.7094545,125.245273 68.7501818,125.611818 C69.0849091,128.682909 71.6023636,131.255091 75.9487273,130.880909 C72.5021818,132.872727 69.51,131.261455 67.8809091,128.807636 C67.9063636,129.428727 68.0005455,130.051091 68.1761818,130.664545 C68.8481818,133.024182 72.0770909,135.732545 76.6805455,134.015636 C72.2870909,136.550909 67.9929091,133.742 66.9085455,130.920364 C62.5634545,119.599455 69.3967273,114.677818 77.6121818,104.008545 C84.0763636,95.6098182 87.9798182,88.2801818 88.6963636,74.5283636 C89.2945455,63.0038182 79.8827273,33.2576364 71.0512727,25.4303636 C56.9341818,39.3183636 36.7589091,53.1745455 27.4489091,61.9614545 C22.3758182,68.7794545 14.9812727,80.6641818 21.056,90.3789091" id="Fill-993" fill="#0A0A08"></path>
                </g>
            </g>
        </g>
    </g>
</svg>