<?xml version="1.0" encoding="UTF-8"?>
<svg width="140px" height="140px" viewBox="0 0 140 140" version="1.1" xmlns="http://www.w3.org/2000/svg" xmlns:xlink="http://www.w3.org/1999/xlink">
    <!-- Generator: Sketch 41.1 (35376) - http://www.bohemiancoding.com/sketch -->
    <title>avatar-3</title>
    <desc>Created with Sketch.</desc>
    <defs>
        <circle id="path-1" cx="70" cy="70" r="70"></circle>
    </defs>
    <g id="Page-1" stroke="none" stroke-width="1" fill="none" fill-rule="evenodd">
        <g id="avatar-3">
            <mask id="mask-2" fill="white">
                <use xlink:href="#path-1"></use>
            </mask>
            <use id="Mask" fill="#FFE1D6" xlink:href="#path-1"></use>
            <g id="Group-3" mask="url(#mask-2)">
                <g transform="translate(1.000000, 3.000000)">
                    <path d="M60.987543,95.3186667 C52.4597017,88.3422222 40.0453213,79.4261111 31.51748,72.4496667 C31.749055,89.4947778 3.10849616,102.686222 15.9884771,122.366444 C4.97947513,134.365 9.4186086,159.682111 34.4323844,164.055222 C27.4201954,160.705111 24.3827646,153.929111 26.5955923,145.439556 C30.1451837,131.811778 59.3040295,135.796222 60.987543,95.3186667" id="Fill-1189" fill="#BE6037"></path>
                    <path d="M68.689556,0.694222222 C9.03632606,0.694222222 14.6051534,101.218333 68.6858802,113.076333 C121.350201,102.220556 128.650327,0.694222222 68.689556,0.694222222" id="Fill-1190" fill="#BE6037"></path>
                    <path d="M49.9221788,85.8183333 L87.4508067,85.8183333 C85.5320425,101.682778 84.0298681,117.509333 87.4508067,132.877556 C78.5541608,144.074333 63.3645562,140.598333 49.9221788,132.877556 C52.8811927,117.191556 51.6975872,101.504333 49.9221788,85.8183333" id="Fill-1191" fill="#F7C995"></path>
                    <path d="M49.9221788,85.8183333 L87.4508067,85.8183333 C86.4019803,94.4936667 85.4769056,103.158 85.4131918,111.742889 C81.7888593,114.726333 78.2245647,116.943444 75.9443474,118.526222 C74.2620591,119.693444 71.4745823,120.061333 68.6858802,120.061333 C65.8984033,120.061333 63.1097012,119.694667 61.4286382,118.526222 C59.0981851,116.909222 55.4272925,114.628556 51.7220925,111.547333 C51.6865598,102.971 50.8925884,94.3934444 49.9221788,85.8183333" id="Fill-1192" fill="#EB9166"></path>
                    <path d="M36.4834772,43.571 C36.1011947,48.3083333 36.0460578,53.0322222 36.2188201,57.4847778 C37.1389938,81.3865556 37.1218401,88.1381111 42.1527763,97.4184444 C47.1837126,106.698778 56.8718794,112.394333 61.4286382,115.557444 C63.1097012,116.724667 65.8984033,117.093778 68.6858802,117.093778 C71.4745823,117.093778 74.2620591,116.724667 75.9443474,115.557444 C80.499881,112.394333 90.189273,106.698778 95.218984,97.4184444 C100.24992,88.1381111 100.233992,81.3865556 101.154165,57.4847778 C101.342856,52.5934444 101.258313,47.3782222 100.766982,42.1752222 C92.4621388,34.0926667 82.653896,25.8671111 69.4038852,30.1607778 C53.743779,24.1682222 44.7662656,34.43 36.4834772,43.571" id="Fill-1193" fill="#F7C995"></path>
                    <path d="M64.692743,90.6595556 C63.6806745,90.0496667 61.4960278,89.1 61.1897116,86.9464444 C65.6080156,89.4385556 71.7637447,89.4385556 76.1832739,86.9464444 C75.8769578,89.1 73.6923111,90.0496667 72.6802426,90.6595556 C69.514159,92.5662222 67.8576013,92.5662222 64.692743,90.6595556" id="Fill-1194" fill="#EB9166"></path>
                    <path d="M62.1147864,99.2273333 C63.4907585,99.044 65.3654132,97.7961111 68.6858802,97.7961111 C72.0075724,97.7961111 73.8810019,99.044 75.2581992,99.2273333 C73.2732706,99.6612222 71.5529992,100.400667 68.6858802,100.400667 C65.8187611,100.400667 64.0997149,99.6612222 62.1147864,99.2273333" id="Fill-1195" fill="#FFFFFF"></path>
                    <path d="M68.6858802,106.467778 C62.3034771,106.467778 59.9987545,104.605111 58.0677376,98.5416667 C60.0710451,98.681 61.1701074,98.7616667 63.1525854,99.0831111 C64.9157411,99.3715556 66.2512795,100.080444 68.6858802,100.080444 C71.1217061,100.080444 72.4572444,99.3715556 74.2204001,99.0831111 C76.2016529,98.7616667 77.3019405,98.681 79.305248,98.5416667 C77.3730058,104.605111 75.0695085,106.467778 68.6858802,106.467778" id="Fill-1196" fill="#B9362B"></path>
                    <path d="M68.6858802,106.467778 C62.9626694,106.467778 60.5194919,104.970556 58.6828204,100.289444 C60.5721783,104.003778 63.2064971,105.233333 68.6858802,105.233333 C74.1664885,105.233333 76.8008073,104.003778 78.6901652,100.289444 C76.8534937,104.970556 74.4103161,106.467778 68.6858802,106.467778" id="Fill-1197" fill="#852024"></path>
                    <path d="M68.6858802,98.1163333 C66.1838899,98.1163333 64.7736104,99.0574444 63.7370366,99.1955556 C62.210357,99.3996667 59.3934738,99.583 57.4808358,98.989 C56.694216,98.7457778 54.8109844,97.4746667 54.8109844,96.5518889 C54.8109844,96.2646667 55.0462352,96.0287778 55.3341724,96.0287778 C55.6221095,96.0287778 55.8573603,96.2646667 55.8573603,96.5518889 C55.8573603,97.0713333 55.7764929,97.9941111 56.9159889,97.7325556 C59.9117607,97.0456667 63.4564511,94.127 66.4730524,94.8285556 C67.448363,95.0546667 68.0671216,95.3321111 68.6858802,95.3321111 C69.305864,95.3321111 69.9233974,95.0546667 70.8987079,94.8285556 C73.9165345,94.127 77.4599996,97.0456667 80.4569967,97.7325556 C81.5964927,97.9941111 81.5156253,97.0713333 81.5156253,96.5518889 C81.5156253,96.2646667 81.7508761,96.0287778 82.0388132,96.0287778 C82.3267504,96.0287778 82.5620012,96.2646667 82.5620012,96.5518889 C82.5620012,97.4746667 80.6787696,98.7457778 79.8921497,98.989 C77.9795118,99.583 75.1614033,99.3996667 73.6359489,99.1955556 C72.5993751,99.0574444 71.1890956,98.1163333 68.6858802,98.1163333" id="Fill-1198" fill="#AA252A"></path>
                    <path d="M68.6858802,98.1163333 C66.1838899,98.1163333 64.7736104,99.0574444 63.7370366,99.1955556 C62.210357,99.3996667 59.3934738,99.583 57.4808358,98.989 C57.0544438,98.8582222 56.3082577,98.4243333 55.7127791,97.9097778 C60.4962119,100.774667 64.5555134,97.559 68.6858802,97.559 C72.8174722,97.559 76.8755484,100.774667 81.6589812,97.9097778 C81.0647279,98.4243333 80.3173165,98.8582222 79.8921497,98.989 C77.9795118,99.583 75.1614033,99.3996667 73.6359489,99.1955556 C72.5993751,99.0574444 71.1890956,98.1163333 68.6858802,98.1163333" id="Fill-1199" fill="#852024"></path>
                    <path d="M68.6858802,32.0503333 C61.4102593,25.806 53.9545245,30.6961111 47.0991693,36.0298889 C33.9716849,46.2452222 33.0527365,70.3437778 26.1152886,84.5288889 C19.42902,98.1982222 3.10236984,100.921333 0.211970767,87.9425556 C4.52490198,99.5108889 18.8923541,96.7792222 24.1034042,83.589 C30.3289734,67.8345556 30.3522534,41.3563333 45.8690037,31.4942222 C53.6947684,26.5185556 59.9766997,24.2183333 68.6858802,24.2818889 L68.6858802,32.0503333" id="Fill-1200" fill="#BE6037"></path>
                    <path d="M68.6858802,32.0515556 C37.4367331,25.2645556 33.4056127,104.902111 1.65288188,101.707222 C35.4469034,98.8313333 32.5172959,17.9336667 68.6858802,29.6413333 C68.6858802,32.1407778 68.6858802,29.5508889 68.6858802,32.0515556" id="Fill-1201" fill="#BE6037"></path>
                    <path d="M91.0457329,39.7918889 C103.779907,40.073 132.115375,82.3948889 103.869352,101.259889 C133.229141,84.1707778 105.948626,39.4814444 93.0956005,39.1208889 C92.7071917,39.2834444 91.4341418,39.6293333 91.0457329,39.7918889" id="Fill-1202" fill="#BE6037"></path>
                    <path d="M94.7423561,66.0586667 C91.3042638,73.5093333 86.7254501,73.2172222 80.5513421,72.0866667 C79.5110925,71.896 78.5345566,71.7175556 77.1500077,72.0671111 C79.4988398,62.172 88.0671148,59.7898889 94.7423561,66.0586667" id="Fill-1203" fill="#FFFFFF"></path>
                    <path d="M94.7423561,66.0586667 C86.5318583,61.0316667 80.9189214,64.3011111 77.6523661,71.7701111 C78.6264515,61.7735556 90.0704224,57.7536667 94.7423561,66.0586667" id="Fill-1204" fill="#FFFFFF"></path>
                    <path d="M94.7423561,66.0586667 C92.0100161,73.7378889 86.8467513,73.5142222 80.5513421,72.0866667 C79.5196693,71.8532222 78.5345566,71.7175556 77.1500077,72.0671111 C78.022396,71.5721111 79.0491677,71.588 80.6861212,71.753 C84.9720966,72.1856667 90.6193409,72.6623333 94.7423561,66.0586667" id="Fill-1205" fill="#FFFFFF"></path>
                    <path d="M83.9465501,71.7248889 C83.9686049,71.7273333 83.9894344,71.7285556 84.0114892,71.7322222 C85.2134737,71.6038889 86.3799255,71.346 87.4838889,70.9524444 C88.7422356,70.1531111 89.6562829,68.8294444 89.8756053,67.2466667 C89.9907802,66.4167778 89.9025611,65.6027778 89.6489313,64.856 C89.0375243,64.757 88.331772,64.6971111 87.4201751,64.6665556 C84.2295862,64.5626667 81.6467286,65.692 79.5882841,67.8846667 C80.1212742,69.8573333 81.7937603,71.4266667 83.9465501,71.7248889" id="Fill-1206" fill="#56302E"></path>
                    <path d="M84.2859484,69.41 C85.8248807,69.6226667 87.2547644,68.5434444 87.4691857,67.0058889 C87.5794595,66.2077778 87.3405329,65.4402222 86.8688061,64.856 C84.9794481,64.8608889 83.3204399,65.3363333 81.8734025,66.2407778 C81.6638823,67.7758889 82.7457909,69.1973333 84.2859484,69.41" id="Fill-1207" fill="#0A0A08"></path>
                    <path d="M92.0749552,61.5621111 C92.2697722,62.4641111 91.3250933,63.4541111 90.7908779,63.7841111 C92.1619489,64.2791111 93.3443292,63.283 93.8687425,62.3712222 C93.7792981,63.4088889 93.2536597,64.1067778 92.4327324,64.5015556 C93.6322664,65.1151111 94.7840151,64.1373333 95.4052242,63.4027778 C95.1944787,64.3756667 94.6284065,64.9916667 93.8246329,65.2947778 C94.5806212,65.7115556 95.4934433,65.5758889 96.2861894,65.2825556 C96.0754439,65.7946667 95.5449044,66.0818889 95.279022,66.1136667 C95.4150263,66.1503333 95.5939149,66.2664444 95.765452,66.3788889 C94.8648825,66.1625556 94.422562,66.7052222 93.9324562,67.3847778 C90.7222631,71.8385556 86.2843549,72.7808889 80.6089295,71.8752222 C79.5613283,71.7077778 78.0334234,71.4572222 76.9772454,72.9666667 C78.1204172,66.858 82.2875419,62.8796667 87.5267731,63.1167778 C89.4700427,63.2047778 91.4856029,62.9762222 92.0749552,61.5621111 Z M93.0502657,66.4717778 C90.8166085,65.5416667 90.0961529,65.1407778 87.345434,65.0515556 C82.9381574,64.9073333 80.036731,67.0804444 77.8937433,71.5281111 C78.7612306,71.1577778 79.3714123,71.1125556 80.8552077,71.2628889 C85.7121563,71.753 90.3289532,70.5393333 93.0502657,66.4717778 L93.0502657,66.4717778 Z" id="Fill-1208" fill="#0A0A08"></path>
                    <path d="M85.6239373,65.7934444 C85.1264799,65.7934444 84.7233679,66.1955556 84.7233679,66.6905556 C84.7233679,67.188 85.1264799,67.5901111 85.6239373,67.5901111 C86.1213947,67.5901111 86.5245067,67.188 86.5245067,66.6905556 C86.5245067,66.1955556 86.1213947,65.7934444 85.6239373,65.7934444" id="Fill-1209" fill="#FFFFFF"></path>
                    <path d="M75.4542415,65.7115556 C75.5669659,63.5628889 76.591287,60.3215556 77.3926101,59.9573333 C81.9077099,57.8966667 88.4469468,57.4615556 93.7780729,57.5214444 C94.96903,57.5348889 97.2100389,57.926 99.470652,58.839 C96.5998571,58.3366667 95.0400954,58.2217778 93.7952266,58.3036667 C87.6039648,58.7106667 83.3277915,60.2213333 78.3299374,62.3076667 C77.827579,62.5178889 76.5202217,63.8391111 75.4542415,65.7115556" id="Fill-1210" fill="#0A0A08"></path>
                    <path d="M42.6306295,66.0586667 C46.0699471,73.5093333 50.6475354,73.2172222 56.8216435,72.0866667 C57.8631184,71.896 58.838429,71.7175556 60.2217526,72.0671111 C57.8741458,62.172 49.307096,59.7898889 42.6306295,66.0586667" id="Fill-1211" fill="#FFFFFF"></path>
                    <path d="M42.6306295,66.0586667 C50.8411272,61.0316667 56.4540642,64.3011111 59.7218447,71.7701111 C58.7465341,61.7735556 47.3025632,57.7536667 42.6306295,66.0586667" id="Fill-1212" fill="#FFFFFF"></path>
                    <path d="M42.6306295,66.0586667 C45.3629694,73.7378889 50.5262343,73.5142222 56.8216435,72.0866667 C57.8533163,71.8532222 58.838429,71.7175556 60.2217526,72.0671111 C59.3518148,71.5721111 58.3238179,71.588 56.6868644,71.753 C52.400889,72.1856667 46.75487,72.6623333 42.6306295,66.0586667" id="Fill-1213" fill="#FFFFFF"></path>
                    <path d="M53.4276607,71.7248889 C53.4043807,71.7273333 53.3835512,71.7285556 53.3614964,71.7322222 C52.1595119,71.6038889 50.9942853,71.346 49.8890967,70.9524444 C48.63075,70.1531111 47.7167026,68.8294444 47.4973803,67.2466667 C47.3822054,66.4167778 47.4704245,65.6027778 47.7240542,64.856 C48.3354612,64.757 49.0412136,64.6971111 49.9540357,64.6665556 C53.1433993,64.5626667 55.726257,65.692 57.7847015,67.8846667 C57.2517114,69.8573333 55.5792253,71.4266667 53.4276607,71.7248889" id="Fill-1214" fill="#56302E"></path>
                    <path d="M53.0882624,69.41 C51.5468796,69.6226667 50.1182212,68.5434444 49.9050251,67.0058889 C49.7935261,66.2077778 50.0324526,65.4402222 50.5029542,64.856 C52.3947627,64.8608889 54.0525456,65.3363333 55.4995831,66.2407778 C55.707878,67.7758889 54.6271947,69.1973333 53.0882624,69.41" id="Fill-1215" fill="#0A0A08"></path>
                    <path d="M45.2980304,61.5621111 C45.1032134,62.4641111 46.0491176,63.4541111 46.5833329,63.7841111 C45.2110366,64.2791111 44.0286563,63.283 43.5030179,62.3712222 C43.5936874,63.4088889 44.1181007,64.1067778 44.9402532,64.5015556 C43.7419444,65.1151111 42.5889705,64.1373333 41.9677614,63.4027778 C42.1785069,64.3756667 42.7433538,64.9916667 43.5483526,65.2947778 C42.7923644,65.7115556 41.8795423,65.5758889 41.0867962,65.2825556 C41.2975417,65.7946667 41.8280812,66.0818889 42.0939636,66.1136667 C41.9579593,66.1503333 41.7778454,66.2664444 41.6075336,66.3788889 C42.508103,66.1625556 42.9516488,66.7052222 43.4417546,67.3847778 C46.6507225,71.8385556 51.0886307,72.7808889 56.7652813,71.8752222 C57.8128825,71.7077778 59.3395622,71.4572222 60.3957402,72.9666667 C59.2525684,66.858 55.0854437,62.8796667 49.8462124,63.1167778 C47.9029429,63.2047778 45.8873827,62.9762222 45.2980304,61.5621111 Z M44.3227198,66.4717778 C46.5563771,65.5416667 47.2768327,65.1407778 50.0287769,65.0515556 C54.4336029,64.9073333 57.3362546,67.0804444 59.4792423,71.5281111 C58.611755,71.1577778 58.0015733,71.1125556 56.5177779,71.2628889 C51.6608292,71.753 47.0452577,70.5393333 44.3227198,66.4717778 L44.3227198,66.4717778 Z" id="Fill-1216" fill="#0A0A08"></path>
                    <path d="M51.7490483,65.7934444 C52.2465057,65.7934444 52.6496177,66.1955556 52.6496177,66.6905556 C52.6496177,67.188 52.2465057,67.5901111 51.7490483,67.5901111 C51.2515909,67.5901111 50.8484788,67.188 50.8484788,66.6905556 C50.8484788,66.1955556 51.2515909,65.7934444 51.7490483,65.7934444" id="Fill-1217" fill="#FFFFFF"></path>
                    <path d="M61.918744,65.7115556 C61.8060197,63.5628889 60.7816985,60.3215556 59.9816008,59.9573333 C55.4652757,57.8966667 48.9260388,57.4615556 43.5949127,57.5214444 C42.4039556,57.5348889 40.1629467,57.926 37.9023336,58.839 C40.7731284,58.3366667 42.3328902,58.2217778 43.577759,58.3036667 C49.7690208,58.7106667 54.045194,60.2213333 59.0442734,62.3076667 C59.5466319,62.5178889 60.8527639,63.8391111 61.918744,65.7115556" id="Fill-1218" fill="#0A0A08"></path>
                    <path d="M68.6858802,32.0503333 C80.2572786,26.9475556 78.5137271,44.5658889 85.367857,49.8996667 C122.510527,78.7991111 106.938639,103.934111 90.7761747,121.859222 C115.462805,105.828556 122.862178,55.6612222 91.5039819,31.4942222 C84.1609714,25.8341111 77.3962858,24.3173333 68.6858802,24.3808889 L68.6858802,32.0503333" id="Fill-1219" fill="#BE6037"></path>
                </g>
            </g>
        </g>
    </g>
</svg>