<?xml version="1.0" encoding="UTF-8"?>
<svg width="140px" height="140px" viewBox="0 0 140 140" version="1.1" xmlns="http://www.w3.org/2000/svg" xmlns:xlink="http://www.w3.org/1999/xlink">
    <!-- Generator: Sketch 41.1 (35376) - http://www.bohemiancoding.com/sketch -->
    <title>avatar-1</title>
    <desc>Created with Sketch.</desc>
    <defs>
        <circle id="path-1" cx="70" cy="70" r="70"></circle>
    </defs>
    <g id="Page-1" stroke="none" stroke-width="1" fill="none" fill-rule="evenodd">
        <g id="avatar-1">
            <mask id="mask-2" fill="white">
                <use xlink:href="#path-1"></use>
            </mask>
            <use id="Mask" fill="#FFE1D6" xlink:href="#path-1"></use>
            <g id="Group-2" mask="url(#mask-2)">
                <g transform="translate(14.549550, 4.000000)">
                    <path d="M41.6216216,50.6572973 C26.7084685,69.58 4.29963964,82.5545946 11.8117117,104.308829 C15.2259459,114.195856 31.196036,118.137297 40.1156757,116.310991 C30.5477477,119.686126 13.5459459,118.948288 8.07585586,105.793333 C-0.0390990991,86.2740541 16.4972973,65.6536937 33.2266667,46.6452252 C35.1967568,46.6590991 39.5165766,49.6899099 41.6216216,50.6572973" id="Fill-47" fill="#AA8669"></path>
                    <path d="M79.094955,31.6223423 C84.1261261,52.8455856 103.164865,78.6787387 89.4612613,98.1917117 C82.5520721,108.030811 66.6387387,105.146306 58.4304505,101.207387 C66.890991,106.808649 82.1484685,110.737477 91.0088288,99.5778378 C104.660721,82.3868468 88.7801802,52.0106306 84.974955,31.2969369 C83.0616216,30.8315315 81.3715315,31.1972973 79.094955,31.6223423" id="Fill-48" fill="#AA8669"></path>
                    <path d="M76.5396396,19.7172973 C83.8902703,43.7455856 108.527748,76.8927928 92.0367568,100.376216 C83.7225225,112.215676 63.8387387,108.193514 53.9618018,103.452432 C64.1427027,110.192613 82.5041441,114.91982 93.1655856,101.492432 C109.594775,80.8052252 92.0102703,41.0061261 85.9045045,19.3275676 C83.6014414,18.7663063 79.2778378,19.2064865 76.5396396,19.7172973" id="Fill-49" fill="#AA8669"></path>
                    <path d="M36.3545946,67.001982 C-1.21207207,78.4302703 12.9922523,126.402342 40.0412613,124.221622 C43.6308108,122.906126 47.2190991,121.591892 50.8073874,120.276396 C45.9893694,102.519099 41.1726126,84.7592793 36.3545946,67.001982" id="Fill-50" fill="#AA8669"></path>
                    <path d="M39.7940541,94.1481081 L72.1794595,94.1481081 C69.9672072,106.480721 69.3365766,127.295315 75.1093694,136.756036 C61.9304505,141.24991 48.9432432,140.609189 36.0935135,136.293153 C44.012973,129.402883 41.7111712,106.224685 39.7940541,94.1481081" id="Fill-51" fill="#F7C995"></path>
                    <path d="M39.7940541,94.1493694 L72.1794595,94.1493694 C71.2385586,99.3974775 70.5827027,106.179279 70.5852252,112.971171 C59.2225225,118.562342 53.4345946,119.475495 41.6266667,113.213333 C41.4715315,106.251171 40.6,99.2221622 39.7940541,94.1493694" id="Fill-52" fill="#DC9A68"></path>
                    <path d="M55.947027,116.106667 C63.2812613,116.106667 79.5326126,102.467387 83.2848649,95.987027 C86.5477477,90.352973 88.8596396,78.5727928 88.8596396,69.1536937 C88.8596396,41.7679279 86.5023423,14.0176577 55.947027,14.0176577 C25.392973,14.0176577 23.0356757,41.7679279 23.0356757,69.1536937 C23.0356757,78.5727928 25.3475676,90.352973 28.6104505,95.987027 C32.3627027,102.467387 48.6140541,116.106667 55.947027,116.106667" id="Fill-53" fill="#F7C995"></path>
                    <path d="M60.538018,87.0434234 C59.809009,88.8962162 58.0016216,90.2142342 55.8953153,90.2142342 C53.7902703,90.2142342 51.9816216,88.8962162 51.2538739,87.0434234 C52.6299099,87.5365766 54.2127928,87.8203604 55.8953153,87.8203604 C57.5790991,87.8203604 59.161982,87.5365766 60.538018,87.0434234" id="Fill-54" fill="#DA845B"></path>
                    <path d="M47.3742342,112.900541 C39.8772973,108.464685 31.22,100.494775 28.6104505,95.987027 C25.6414414,90.8612613 23.4607207,80.6488288 23.0924324,71.7569369 C27.3378378,86.0520721 35.087027,99.8048649 47.3742342,112.900541" id="Fill-55" fill="#F5C18E"></path>
                    <path d="M64.5210811,112.900541 C72.018018,108.464685 80.6753153,100.494775 83.2848649,95.987027 C86.2538739,90.8612613 88.4333333,80.6488288 88.8028829,71.7569369 C84.5574775,86.0520721 76.8082883,99.8048649 64.5210811,112.900541" id="Fill-56" fill="#F5C18E"></path>
                    <path d="M55.947027,0.760540541 C92.0354955,0.760540541 93.8214414,36.6673874 93.8214414,55.3403604 C93.8214414,74.0133333 91.5183784,74.7347748 87.5731532,82.5558559 C88.3879279,78.1288288 88.8596396,73.4016216 88.8596396,69.154955 C88.8596396,41.7679279 81.8268468,19.5028829 55.947027,30.8718919 C30.1353153,19.4499099 23.0356757,41.7679279 23.0356757,69.154955 C23.0356757,73.4016216 23.5061261,78.1288288 24.3221622,82.5571171 C20.3756757,74.7347748 18.0738739,74.0133333 18.0738739,55.3403604 C18.0738739,36.6661261 19.8598198,0.760540541 55.947027,0.760540541" id="Fill-57" fill="#AA8669"></path>
                    <path d="M63.1891892,98.081982 C61.652973,97.6733333 60.0776577,97.0906306 58.5048649,96.7816216 C57.6320721,96.6113514 56.9610811,97.0994595 55.8953153,97.0994595 C54.8308108,97.0994595 54.1585586,96.6113514 53.2882883,96.7816216 C51.7142342,97.0906306 50.1376577,97.6733333 48.6027027,98.081982 C49.5335135,98.2963964 50.4643243,98.4994595 51.403964,98.6583784 C52.8897297,98.9106306 54.3893694,99.1553153 55.8953153,99.1553153 C57.4025225,99.1553153 58.9021622,98.9106306 60.3879279,98.6583784 C61.3275676,98.4994595 62.2596396,98.2963964 63.1891892,98.081982" id="Fill-58" fill="#0A0A08"></path>
                    <path d="M61.6454054,97.632973 C60.6061261,97.3163964 59.5542342,96.9872072 58.5036036,96.7816216 C57.6333333,96.6126126 56.9610811,97.0994595 55.8953153,97.0994595 C54.8308108,97.0994595 54.1585586,96.6126126 53.2882883,96.7816216 C52.4016216,96.9556757 51.5162162,97.2167568 50.6358559,97.4841441 C50.7481081,97.8675676 50.8603604,98.2421622 50.9612613,98.5789189 C51.1100901,98.6066667 51.2563964,98.6331532 51.403964,98.6583784 C52.8897297,98.9106306 54.3906306,99.1553153 55.8953153,99.1553153 C57.4025225,99.1553153 58.9021622,98.9106306 60.3879279,98.6583784 C60.7246847,98.6016216 61.0601802,98.5372973 61.3956757,98.4704505 C61.4738739,98.2068468 61.5596396,97.9243243 61.6454054,97.632973" id="Fill-59" fill="#FFFFFF"></path>
                    <path d="M45.0535135,97.5118919 C47.0046847,99.1515315 48.5989189,102.385405 50.9032432,103.468829 C52.4104505,104.178919 54.2304505,103.656757 55.8953153,103.656757 C57.5614414,103.656757 59.3827027,104.178919 60.8886486,103.468829 C63.192973,102.385405 64.7884685,99.1515315 66.7383784,97.5118919 L64.685045,97.5118919 C63.0668468,97.8663063 61.4625225,98.2938739 59.8304505,98.5700901 C58.5300901,98.7908108 57.2158559,99.0064865 55.8953153,99.0064865 C54.5772973,99.0064865 53.2618018,98.7908108 51.9614414,98.5700901 C50.3293694,98.2938739 48.725045,97.8663063 47.1081081,97.5118919 L45.0535135,97.5118919" id="Fill-60" fill="#E26060"></path>
                    <path d="M55.8953153,93.5502703 C55.1246847,93.5502703 54.4410811,93.1618018 53.6704505,93.1945946 C51.0243243,93.3043243 45.2515315,97.9873874 43.2864865,95.3702703 C43.761982,97.1095495 44.7684685,98.2383784 46.3236036,98.4212613 C48.6140541,98.6936937 51.1151351,97.416036 53.6111712,96.9279279 C54.3742342,96.7765766 54.9632432,97.2041441 55.8953153,97.2041441 C56.8299099,97.2041441 57.4176577,96.7765766 58.1807207,96.9279279 C60.6767568,97.416036 63.1778378,98.6936937 65.4682883,98.4212613 C67.0234234,98.2383784 68.0311712,97.1095495 68.5054054,95.3702703 C66.4041441,98.1299099 60.6906306,93.4745946 58.1214414,93.1945946 C57.3545946,93.1100901 56.6672072,93.5502703 55.8953153,93.5502703" id="Fill-61" fill="#C44A4A"></path>
                    <path d="M82.2077477,62.025045 C76.2659459,65.5275676 70.3228829,69.0300901 64.3810811,72.5338739 C67.6515315,71.9587387 72.350991,73.4583784 75.961982,71.8628829 C79.572973,70.2686486 81.2845045,66.5163964 82.2077477,62.025045" id="Fill-62" fill="#0A0A08"></path>
                    <path d="M82.2077477,62.025045 C80.9363964,64.2196396 79.0634234,69.4778378 75.7753153,71.096036 C72.1882883,72.8618018 67.4522523,71.2587387 64.3810811,72.5338739 C66.2401802,63.3922523 70.9333333,58.6524324 82.2077477,62.025045" id="Fill-63" fill="#FFFFFF"></path>
                    <path d="M73.6790991,62.3151351 C71.1956757,61.961982 68.8976577,63.6873874 68.5445045,66.1695495 C68.1900901,68.6517117 69.9167568,70.950991 72.3989189,71.3041441 C74.8810811,71.6572973 77.1790991,69.9318919 77.5335135,67.4484685 C77.8866667,64.9675676 76.1612613,62.6695495 73.6790991,62.3151351" id="Fill-64" fill="#0A0A08"></path>
                    <path d="M73.727027,63.7958559 C71.9108108,63.5372973 70.2282883,64.7998198 69.9697297,66.6147748 C69.7111712,68.4322523 70.9736937,70.1147748 72.7899099,70.3720721 C74.6061261,70.6306306 76.2873874,69.3681081 76.5459459,67.5518919 C76.8057658,65.7356757 75.5432432,64.0544144 73.727027,63.7958559" id="Fill-65" fill="#8BAED1"></path>
                    <path d="M73.5605405,64.9562162 C72.3863063,64.7884685 71.2978378,65.607027 71.1313514,66.78 C70.9636036,67.9567568 71.7809009,69.043964 72.9551351,69.2117117 C74.1306306,69.3794595 75.2190991,68.5621622 75.3868468,67.3866667 C75.5533333,66.2111712 74.736036,65.123964 73.5605405,64.9562162" id="Fill-66" fill="#0A0A08"></path>
                    <path d="M75.3830631,65.8189189 C74.5720721,65.7054054 73.8190991,66.2691892 73.7043243,67.0801802 C73.5882883,67.8911712 74.1533333,68.6441441 74.9643243,68.7589189 C75.7765766,68.8736937 76.527027,68.3099099 76.6430631,67.4989189 C76.7578378,66.6866667 76.1940541,65.934955 75.3830631,65.8189189" id="Fill-67" fill="#FFFFFF"></path>
                    <path d="M82.2077477,62.025045 C74.6010811,61.0538739 68.5281081,63.5776577 64.3810811,72.5338739 C66.0396396,62.5118919 73.2956757,56.4754955 82.2077477,62.025045" id="Fill-68" fill="#EA8F90"></path>
                    <path d="M83.6493694,62.189009 C79.6120721,62.6443243 69.2356757,62.6897297 64.2486486,72.969009 C66.0345946,64.8338739 74.8873874,59.3927928 83.6493694,62.189009" id="Fill-69" fill="#0A0A08"></path>
                    <path d="M85.7443243,51.1390991 C76.7036036,52.6677477 68.2632432,57.6118919 64.4252252,64.2789189 C64.0405405,63.4893694 63.2938739,62.2432432 63.9837838,60.7007207 C64.9562162,58.5288288 74.9138739,49.9446847 85.7443243,51.1390991" id="Fill-70" fill="#8A6A4E"></path>
                    <path d="M29.5841441,62.025045 C35.5259459,65.5275676 41.4677477,69.0300901 47.4108108,72.5338739 C44.1403604,71.9587387 39.4409009,73.4583784 35.8299099,71.8628829 C32.2189189,70.2686486 30.5073874,66.5163964 29.5841441,62.025045" id="Fill-71" fill="#0A0A08"></path>
                    <path d="M29.5841441,62.025045 C30.8554955,64.2196396 32.7284685,69.4778378 36.0165766,71.096036 C39.6036036,72.8618018 44.3396396,71.2587387 47.4108108,72.5338739 C45.5517117,63.3922523 40.8572973,58.6524324 29.5841441,62.025045" id="Fill-72" fill="#FFFFFF"></path>
                    <path d="M38.1127928,62.3151351 C40.594955,61.961982 42.8942342,63.6873874 43.2473874,66.1695495 C43.6005405,68.6517117 41.8751351,70.950991 39.392973,71.3041441 C36.9108108,71.6572973 34.6115315,69.9318919 34.2583784,67.4484685 C33.9052252,64.9675676 35.6306306,62.6695495 38.1127928,62.3151351" id="Fill-73" fill="#0A0A08"></path>
                    <path d="M38.0648649,63.7958559 C39.8810811,63.5372973 41.5636036,64.7998198 41.8221622,66.6147748 C42.0807207,68.4322523 40.8169369,70.1147748 39.001982,70.3720721 C37.1845045,70.6306306 35.5032432,69.3681081 35.2446847,67.5518919 C34.9861261,65.7356757 36.2486486,64.0544144 38.0648649,63.7958559" id="Fill-74" fill="#8BAED1"></path>
                    <path d="M38.2313514,64.9562162 C39.4055856,64.7884685 40.4940541,65.607027 40.6605405,66.78 C40.8282883,67.9567568 40.010991,69.043964 38.8367568,69.2117117 C37.6612613,69.3794595 36.5727928,68.5621622 36.405045,67.3866667 C36.2385586,66.2111712 37.0545946,65.123964 38.2313514,64.9562162" id="Fill-75" fill="#0A0A08"></path>
                    <path d="M36.4088288,65.8189189 C37.2198198,65.7054054 37.9715315,66.2691892 38.0875676,67.0801802 C38.2036036,67.8911712 37.6385586,68.6441441 36.8275676,68.7589189 C36.0153153,68.8736937 35.2648649,68.3099099 35.1488288,67.4989189 C35.0327928,66.6866667 35.5978378,65.934955 36.4088288,65.8189189" id="Fill-76" fill="#FFFFFF"></path>
                    <path d="M29.5841441,62.025045 C37.1908108,61.0538739 43.2637838,63.5776577 47.4108108,72.5338739 C45.750991,62.5118919 38.4962162,56.4754955 29.5841441,62.025045" id="Fill-77" fill="#EA8F90"></path>
                    <path d="M28.1425225,62.189009 C32.1798198,62.6443243 42.5562162,62.6897297 47.541982,72.969009 C45.7572973,64.8338739 36.9045045,59.3927928 28.1425225,62.189009" id="Fill-78" fill="#0A0A08"></path>
                    <path d="M26.0463063,51.1390991 C35.087027,52.6677477 43.5286486,57.6118919 47.3666667,64.2789189 C47.7513514,63.4893694 48.498018,62.2432432 47.8081081,60.7007207 C46.8356757,58.5288288 36.878018,49.9446847 26.0463063,51.1390991" id="Fill-79" fill="#8A6A4E"></path>
                    <path d="M50.7682883,25.5531532 C47.7992793,30.3030631 45.5668468,37.2627027 42.4326126,41.9041441 C36.0052252,51.4241441 27.212973,55.323964 20.0691892,62.1461261 C9.25009009,72.4809009 2.38882883,86.8100901 5.46756757,101.902342 C8.34324324,116.000721 24.3726126,121.414054 35.3077477,120.734234 C23.8428829,123.906306 6.22810811,119.117297 1.39495495,102.664144 C-6.04900901,77.3178378 22.1086486,43.4933333 31.9351351,21.7353153 C38.2124324,23.0079279 44.4897297,24.2792793 50.7682883,25.5531532" id="Fill-80" fill="#AA8669"></path>
                </g>
            </g>
        </g>
    </g>
</svg>