<?xml version="1.0" encoding="UTF-8"?>
<svg width="140px" height="140px" viewBox="0 0 140 140" version="1.1" xmlns="http://www.w3.org/2000/svg" xmlns:xlink="http://www.w3.org/1999/xlink">
    <!-- Generator: Sketch 41.1 (35376) - http://www.bohemiancoding.com/sketch -->
    <title>avatar-2</title>
    <desc>Created with Sketch.</desc>
    <defs>
        <circle id="path-1" cx="70" cy="70" r="70"></circle>
    </defs>
    <g id="Page-1" stroke="none" stroke-width="1" fill="none" fill-rule="evenodd">
        <g id="avatar-2">
            <mask id="mask-2" fill="white">
                <use xlink:href="#path-1"></use>
            </mask>
            <use id="Mask" fill="#FFE1D6" xlink:href="#path-1"></use>
            <g id="Group" mask="url(#mask-2)">
                <g transform="translate(20.000000, 5.000000)">
                    <path d="M46.3781818,51.1063636 C128.642182,51.1063636 127.536182,118.372545 75.5541818,133.977455 C53.592,129.473273 18.1274545,123.835091 5.64454545,104.835818 C-7.644,84.6121818 3.95945455,51.1063636 46.3781818,51.1063636" id="Fill-279" stroke="none" fill="#0A0A08" fill-rule="evenodd"></path>
                    <path d="M33.2003636,97.6703636 L65.1534545,97.6703636 C63.6618182,110.510909 62.8243636,123.103273 65.1534545,134.508182 C54.5032727,136.893273 43.8518182,136.893273 33.2003636,134.508182 C34.9007273,126.197273 34.3636364,112.664364 33.2003636,97.6703636" id="Fill-280" stroke="none" fill="#F7C995" fill-rule="evenodd"></path>
                    <path d="M33.2003636,97.6703636 L65.1534545,97.6703636 C64.4814545,103.452364 63.9418182,109.183455 63.7649091,114.779636 C52.7774545,118.420909 45.3829091,118.37 34.1867273,114.567091 C34.0225455,109.319636 33.6610909,103.610182 33.2003636,97.6703636" id="Fill-281" stroke="none" fill="#CB8159" fill-rule="evenodd"></path>
                    <path d="M48.2936364,114.299818 C38.6629091,113.765273 23.9565455,104.604182 18.6887273,97.16 C14.9265455,91.8425455 11.438,74.13 11.2203636,61.6407273 C10.8449091,40.082 15.3809091,7.84509091 48.3203636,7.30672727 C48.8727273,7.29781818 49.4263636,7.29781818 49.98,7.30672727 C82.9690909,7.80945455 87.5101818,40.0692727 87.1347273,61.6407273 C86.9170909,74.13 83.4285455,91.8425455 79.6663636,97.16 C74.3883636,104.615636 59.6412727,113.795818 50.0105455,114.302364 C49.4403636,114.332909 48.8663636,114.331636 48.2936364,114.299818" id="Fill-282" stroke="none" fill="#F7C995" fill-rule="evenodd"></path>
                    <path d="M39.0663636,111.941455 C30.982,108.633636 22.442,102.463455 18.6887273,97.16 C16.3367273,93.8369091 14.0929091,85.6710909 12.6878182,76.9656364 C11.844,71.7423636 11.3018182,66.3230909 11.2203636,61.6407273 C11.2050909,60.7841818 11.2,59.9072727 11.2012727,59.0189091 C14.0725455,84.8921818 28.4085455,102.739636 39.0663636,111.941455" id="Fill-283" stroke="none" fill="#E5A877" fill-rule="evenodd"></path>
                    <path d="M59.2887273,111.941455 C67.3730909,108.633636 75.9130909,102.463455 79.6663636,97.16 C83.4285455,91.8425455 86.9170909,74.13 87.1347273,61.6407273 C87.15,60.7841818 87.1563636,59.9072727 87.1538182,59.0189091 C84.2825455,84.8921818 69.9465455,102.739636 59.2887273,111.941455" id="Fill-284" stroke="none" fill="#E5A877" fill-rule="evenodd"></path>
                    <path d="M23.2845455,61.9474545 C26.8570909,69.706 31.612,69.4018182 38.0252727,68.2232727 C39.1070909,68.0247273 40.1201818,67.8389091 41.5583636,68.2041818 C39.1185455,57.9001818 30.2196364,55.4196364 23.2845455,61.9474545" id="Fill-285" stroke="none" fill="#FFFFFF" fill-rule="evenodd"></path>
                    <path d="M23.2845455,61.9474545 C31.8130909,56.7114545 37.6434545,60.116 41.0378182,67.8949091 C40.0247273,57.484 28.1374545,53.298 23.2845455,61.9474545" id="Fill-286" stroke="none" fill="#FFFFFF" fill-rule="evenodd"></path>
                    <path d="M23.2845455,61.9474545 C26.1227273,69.944 31.486,69.7098182 38.0252727,68.2232727 C39.0981818,67.9801818 40.1201818,67.8389091 41.5583636,68.2041818 C40.6521818,67.6874545 39.5856364,67.7052727 37.8865455,67.8770909 C33.4345455,68.3276364 27.5685455,68.824 23.2845455,61.9474545" id="Fill-287" stroke="none" fill="#FFFFFF" fill-rule="evenodd"></path>
                    <path d="M34.4985455,67.8465455 C34.4769091,67.8490909 34.454,67.8516364 34.4310909,67.8541818 C33.1825455,67.7205455 31.9721818,67.4532727 30.8241818,67.0421818 C29.5170909,66.2098182 28.5676364,64.8327273 28.3398182,63.1832727 C28.2201818,62.3190909 28.3130909,61.4727273 28.5765455,60.6950909 C29.2103636,60.592 29.9434545,60.5283636 30.8916364,60.4965455 C34.2058182,60.3896364 36.8874545,61.5656364 39.0256364,63.8476364 C38.472,65.9018182 36.7347273,67.536 34.4985455,67.8465455" id="Fill-288" stroke="none" fill="#56302E" fill-rule="evenodd"></path>
                    <path d="M34.1472727,65.4372727 C32.5474545,65.6587273 31.0621818,64.5336364 30.8394545,62.9325455 C30.7261818,62.1027273 30.9730909,61.3034545 31.4630909,60.6950909 C33.4269091,60.6989091 35.1489091,61.1952727 36.652,62.1370909 C36.8696364,63.7343636 35.7458182,65.2145455 34.1472727,65.4372727" id="Fill-289" stroke="none" fill="#0A0A08" fill-rule="evenodd"></path>
                    <path d="M26.0565455,57.2638182 C25.8541818,58.2030909 26.8354545,59.2352727 27.3903636,59.5789091 C25.9649091,60.0930909 24.7367273,59.0570909 24.192,58.1076364 C24.2849091,59.1869091 24.8309091,59.9149091 25.6849091,60.3247273 C24.4389091,60.9649091 23.2412727,59.9467273 22.596,59.1818182 C22.8149091,60.1936364 23.4029091,60.8363636 24.2378182,61.152 C23.4525455,61.5847273 22.5043636,61.4447273 21.6821818,61.138 C21.8998182,61.6725455 22.4509091,61.9716364 22.7270909,62.0047273 C22.5858182,62.0429091 22.4,62.1625455 22.2218182,62.2809091 C23.1572727,62.0543636 23.618,62.6194545 24.1270909,63.3283636 C27.4603636,67.9649091 32.0701818,68.9461818 37.9667273,68.0043636 C39.0549091,67.83 40.6407273,67.5690909 41.7378182,69.1396364 C40.5503636,62.7798182 36.2218182,58.6370909 30.7809091,58.884 C28.7610909,58.9756364 26.6674545,58.7376364 26.0565455,57.2638182 Z M25.0421818,62.3776364 C27.3636364,61.4090909 28.1107273,60.9916364 30.9692727,60.8987273 C35.546,60.7485455 38.5598182,63.0114545 40.7858182,67.6416364 C39.886,67.2572727 39.2509091,67.2101818 37.7109091,67.3654545 C32.6658182,67.8770909 27.8701818,66.612 25.0421818,62.3776364 L25.0421818,62.3776364 Z" id="Fill-290" stroke="none" fill="#0A0A08" fill-rule="evenodd"></path>
                    <path d="M32.7561818,61.67 C33.2729091,61.67 33.6916364,62.0887273 33.6916364,62.6054545 C33.6916364,63.1221818 33.2729091,63.5409091 32.7561818,63.5409091 C32.2407273,63.5409091 31.8207273,63.1221818 31.8207273,62.6054545 C31.8207273,62.0887273 32.2407273,61.67 32.7561818,61.67" id="Fill-291" stroke="none" fill="#FFFFFF" fill-rule="evenodd"></path>
                    <path d="M43.3198182,61.586 C43.2027273,59.3472727 42.1387273,55.9732727 41.3076364,55.594 C36.6163636,53.4469091 29.8238182,52.9950909 24.2874545,53.0561818 C23.0490909,53.0701818 20.7212727,53.4774545 18.3743636,54.4281818 C21.3550909,53.9063636 22.9752727,53.7867273 24.2683636,53.872 C30.6994545,54.2958182 35.1412727,55.8676364 40.3327273,58.0401818 C40.8558182,58.2590909 42.2138182,59.6349091 43.3198182,61.586" id="Fill-292" stroke="none" fill="#0A0A08" fill-rule="evenodd"></path>
                    <path d="M75.3976364,61.9474545 C71.8263636,69.706 67.0701818,69.4018182 60.6569091,68.2232727 C59.5750909,68.0247273 58.562,67.8389091 57.1238182,68.2041818 C59.5636364,57.9001818 68.4625455,55.4196364 75.3976364,61.9474545" id="Fill-293" stroke="none" fill="#FFFFFF" fill-rule="evenodd"></path>
                    <path d="M75.3976364,61.9474545 C66.8690909,56.7114545 61.0387273,60.116 57.6443636,67.8949091 C58.6574545,57.484 70.5447273,53.298 75.3976364,61.9474545" id="Fill-294" stroke="none" fill="#FFFFFF" fill-rule="evenodd"></path>
                    <path d="M75.3976364,61.9474545 C72.5594545,69.944 67.1961818,69.7098182 60.6569091,68.2232727 C59.584,67.9801818 58.562,67.8389091 57.1238182,68.2041818 C58.03,67.6874545 59.0965455,67.7052727 60.7969091,67.8770909 C65.2489091,68.3276364 71.1149091,68.824 75.3976364,61.9474545" id="Fill-295" stroke="none" fill="#FFFFFF" fill-rule="evenodd"></path>
                    <path d="M64.1836364,67.8465455 C64.2052727,67.8490909 64.2281818,67.8516364 64.2510909,67.8541818 C65.4996364,67.7205455 66.7112727,67.4532727 67.858,67.0421818 C69.1650909,66.2098182 70.1145455,64.8327273 70.3423636,63.1832727 C70.462,62.3190909 70.3703636,61.4727273 70.1069091,60.6950909 C69.4718182,60.592 68.7387273,60.5283636 67.7918182,60.4965455 C64.4776364,60.3896364 61.7947273,61.5656364 59.6565455,63.8476364 C60.2101818,65.9018182 61.9474545,67.536 64.1836364,67.8465455" id="Fill-296" stroke="none" fill="#56302E" fill-rule="evenodd"></path>
                    <path d="M64.5361818,65.4372727 C66.1347273,65.6587273 67.62,64.5336364 67.8427273,62.9325455 C67.9572727,62.1027273 67.7090909,61.3034545 67.2190909,60.6950909 C65.2552727,60.6989091 63.5332727,61.1952727 62.0301818,62.1370909 C61.8125455,63.7343636 62.9363636,65.2145455 64.5361818,65.4372727" id="Fill-297" stroke="none" fill="#0A0A08" fill-rule="evenodd"></path>
                    <path d="M72.6269091,57.2638182 C72.8292727,58.2030909 71.8467273,59.2352727 71.2930909,59.5789091 C72.7172727,60.0930909 73.9454545,59.0570909 74.4901818,58.1076364 C74.3972727,59.1869091 73.8512727,59.9149091 72.9985455,60.3247273 C74.2432727,60.9649091 75.4396364,59.9467273 76.0861818,59.1818182 C75.8672727,60.1936364 75.2792727,60.8363636 74.4443636,61.152 C75.2283636,61.5847273 76.1778182,61.4447273 77.0012727,61.138 C76.7823636,61.6725455 76.2312727,61.9716364 75.9550909,62.0047273 C76.0963636,62.0429091 76.2834545,62.1625455 76.4603636,62.2809091 C75.5249091,62.0543636 75.0654545,62.6194545 74.5563636,63.3283636 C71.2218182,67.9649091 66.612,68.9461818 60.7154545,68.0043636 C59.6285455,67.83 58.0414545,67.5690909 56.9443636,69.1396364 C58.1318182,62.7798182 62.4603636,58.6370909 67.9025455,58.884 C69.9210909,58.9756364 72.0147273,58.7376364 72.6269091,57.2638182 Z M73.64,62.3776364 C71.3198182,61.4090909 70.5714545,60.9916364 67.7129091,60.8987273 C63.1361818,60.7485455 60.1223636,63.0114545 57.8963636,67.6416364 C58.7961818,67.2572727 59.4312727,67.2101818 60.9712727,67.3654545 C66.0176364,67.8770909 70.812,66.612 73.64,62.3776364 L73.64,62.3776364 Z" id="Fill-298" stroke="none" fill="#0A0A08" fill-rule="evenodd"></path>
                    <path d="M65.926,61.67 C65.4092727,61.67 64.9905455,62.0887273 64.9905455,62.6054545 C64.9905455,63.1221818 65.4092727,63.5409091 65.926,63.5409091 C66.4427273,63.5409091 66.8614545,63.1221818 66.8614545,62.6054545 C66.8614545,62.0887273 66.4427273,61.67 65.926,61.67" id="Fill-299" stroke="none" fill="#FFFFFF" fill-rule="evenodd"></path>
                    <path d="M55.3623636,61.586 C55.4794545,59.3472727 56.5434545,55.9732727 57.3745455,55.594 C62.0658182,53.4469091 68.8583636,52.9950909 74.396,53.0561818 C75.6330909,53.0701818 77.9609091,53.4774545 80.3090909,54.4281818 C77.3270909,53.9063636 75.7069091,53.7867273 74.4138182,53.872 C67.9827273,54.2958182 63.5409091,55.8676364 58.3494545,58.0401818 C57.8276364,58.2590909 56.4696364,59.6349091 55.3623636,61.586" id="Fill-300" stroke="none" fill="#0A0A08" fill-rule="evenodd"></path>
                    <path d="M49.1603636,97.4183636 C47.222,97.4183636 45.2645455,97.3127273 43.3452727,97.5901818 C41.8103636,97.8116364 40.3696364,98.4670909 38.8818182,98.9061818 C42.2176364,101.937818 43.0334545,103.672545 49.1603636,103.672545 C55.2872727,103.672545 56.1030909,101.937818 59.4389091,98.9061818 C57.9510909,98.4670909 56.5103636,97.8116364 54.9754545,97.5901818 C53.0561818,97.3127273 51.0987273,97.4183636 49.1603636,97.4183636" id="Fill-301" stroke="none" fill="#E26060" fill-rule="evenodd"></path>
                    <path d="M47.1863636,93.8025455 C41.0187273,94.5610909 36.8085455,100.102545 35.3474545,96.054 C35.3347273,97.7161818 35.9774545,98.5638182 37.0592727,99.0652727 C38.4274545,99.6978182 43.1429091,98.3041818 45.7570909,98.2838182 C46.592,98.2761818 48.3521818,98.7623636 49.1603636,98.7623636 C49.9685455,98.7623636 51.7287273,98.2761818 52.5636364,98.2838182 C55.1778182,98.3041818 59.8932727,99.6978182 61.2614545,99.0652727 C62.3432727,98.5638182 62.986,97.7161818 62.9732727,96.054 C61.5121818,100.102545 57.302,94.5610909 51.1343636,93.8025455 C50.7996364,93.7618182 49.9761818,94.2772727 49.1603636,94.2772727 C48.3445455,94.2772727 47.5210909,93.7605455 47.1863636,93.8025455" id="Fill-302" stroke="none" fill="#C44849" fill-rule="evenodd"></path>
                    <path d="M55.6665455,86.0338182 C54.6114545,88.5907273 52.0914545,90.3992727 49.1603636,90.3992727 C46.2292727,90.3992727 43.7092727,88.5907273 42.6541818,86.0338182 C44.422,87.0469091 46.6912727,87.6565455 49.1603636,87.6565455 C51.6294545,87.6565455 53.8987273,87.0469091 55.6665455,86.0338182" id="Fill-303" stroke="none" fill="#E5A877" fill-rule="evenodd"></path>
                    <path d="M49.1781818,26.8761818 C42.5409091,25.7052727 34.4692727,22.3223636 27.7556364,26.7501818 C21.056,31.1690909 22.7550909,36.722 19.9983636,45.1703636 C18.6747273,49.2252727 14.9672727,52.3218182 14.0114545,56.4785455 C12.4778182,63.1476364 14.5930909,66.2734545 12.6865455,76.9669091 C9.83054545,55.6207273 5.50709091,39.9750909 16.5390909,19.936 C21.8845455,10.2250909 30.4041818,0.674545455 49.1781818,0.674545455 C67.9509091,0.674545455 76.4705455,10.2250909 81.816,19.936 C92.8467273,39.9750909 89.0018182,56.3881818 85.722,76.9923636 C83.8154545,66.3014545 85.8772727,63.1476364 84.3436364,56.4785455 C83.3878182,52.3218182 79.6803636,49.2252727 78.3567273,45.1703636 C75.5987273,36.722 77.2990909,31.1690909 70.5994545,26.7501818 C63.8858182,22.3223636 55.8141818,25.7052727 49.1781818,26.8761818" id="Fill-304" stroke="none" fill="#0A0A08" fill-rule="evenodd"></path>
                    <path d="M37.8292727,9.63454545 C3.60690909,28.8870909 8.32236364,108.338364 26.5401818,137.476182 C12.8558182,100.948909 12.2105455,40.8443636 37.8292727,9.63454545 Z" id="Fill-305" stroke="none" fill="#0A0A08" fill-rule="evenodd"></path>
                    <path d="M37.8292727,9.63454545 C3.60690909,28.8870909 8.32236364,108.338364 26.5401818,137.476182 C12.8558182,100.948909 12.2105455,40.8443636 37.8292727,9.63454545 Z" id="Stroke-306" stroke="#1B1A18" stroke-width="0.216" fill="none"></path>
                    <path d="M37.9807273,14.8438182 C7.63127273,37.968 24.0723636,128.536545 37.6778182,153.064545 C23.9934545,116.537273 12.362,46.0536364 37.9807273,14.8438182 Z" id="Fill-307" stroke="none" fill="#0A0A08" fill-rule="evenodd"></path>
                    <path d="M37.9807273,14.8438182 C7.63127273,37.968 24.0723636,128.536545 37.6778182,153.064545 C23.9934545,116.537273 12.362,46.0536364 37.9807273,14.8438182 Z" id="Stroke-308" stroke="#1B1A18" stroke-width="0.216" fill="none"></path>
                </g>
            </g>
        </g>
    </g>
</svg>