<?xml version="1.0" encoding="UTF-8"?>
<svg width="140px" height="140px" viewBox="0 0 140 140" version="1.1" xmlns="http://www.w3.org/2000/svg" xmlns:xlink="http://www.w3.org/1999/xlink">
    <!-- Generator: Sketch 41.1 (35376) - http://www.bohemiancoding.com/sketch -->
    <title>avatar-9</title>
    <desc>Created with Sketch.</desc>
    <defs>
        <circle id="path-1" cx="70" cy="70" r="70"></circle>
    </defs>
    <g id="Page-1" stroke="none" stroke-width="1" fill="none" fill-rule="evenodd">
        <g id="avatar-9">
            <mask id="mask-2" fill="white">
                <use xlink:href="#path-1"></use>
            </mask>
            <use id="Mask" fill="#FFE1D6" xlink:href="#path-1"></use>
            <g id="Group-10" mask="url(#mask-2)">
                <g transform="translate(24.000000, 1.000000)">
                    <path d="M29.6786,107.126571 L62.0195143,107.126571 C59.8093143,119.439314 59.1802857,140.225514 64.9435143,149.673229 C51.7842857,154.1612 38.8142571,153.521114 25.9830571,149.211286 C33.8913714,142.328829 31.5939429,119.183771 29.6786,107.126571" id="Fill-807" fill="#F7C995"></path>
                    <path d="M29.9218571,107.126571 L62.2615429,107.126571 C61.3229143,112.366429 60.6668571,119.139543 60.6705429,125.922486 C49.3234571,131.503886 43.5430286,132.417943 31.7524286,126.163286 C31.5976286,119.212029 30.7265714,112.191971 29.9218571,107.126571" id="Fill-808" fill="#DC9A68"></path>
                    <path d="M46.053,129.051657 C53.3752857,129.051657 69.6047143,115.431714 73.3518571,108.962057 C75.1332857,105.884486 76.6309143,100.972657 77.6223714,95.6136286 C78.0781714,96.1935143 78.6138286,96.5154 79.2109143,96.5154 C81.6004857,96.5154 84.1055429,91.3750571 84.7874,85.0737143 C85.4692571,78.7736 84.0772857,73.6332571 81.6877143,73.6332571 C80.7232857,73.6332571 79.7392,74.4711429 78.8644571,75.884 C78.3914571,50.7326857 74.2253714,27.1060286 46.053,27.1060286 C17.8806286,27.1060286 13.7145429,50.7339143 13.2415429,75.884 C12.3668,74.4711429 11.3827143,73.6332571 10.4182857,73.6332571 C8.02871429,73.6332571 6.63551429,78.7736 7.31737143,85.0737143 C7.99922857,91.3750571 10.5042857,96.5154 12.8938571,96.5154 C13.4921714,96.5154 14.0278286,96.1935143 14.4836286,95.6136286 C15.4750857,100.971429 16.9727143,105.884486 18.7541429,108.962057 C22.5012857,115.431714 38.7294857,129.051657 46.053,129.051657" id="Fill-809" fill="#F7C995"></path>
                    <path d="M50.6368,100.030343 C49.9094857,101.880571 48.1047143,103.196371 46.0014,103.196371 C43.8980857,103.196371 42.0933143,101.880571 41.3647714,100.030343 C42.7395429,100.523 44.3207143,100.805571 46.0014,100.805571 C47.6820857,100.805571 49.2632571,100.523 50.6368,100.030343" id="Fill-810" fill="#DA845B"></path>
                    <path d="M53.2843714,111.053086 C51.7511143,110.646429 50.1773143,110.062857 48.6059714,109.755714 C47.7361429,109.584943 47.0653429,110.072686 46.0014,110.072686 C44.9374571,110.072686 44.2666571,109.584943 43.3968286,109.755714 C41.8254857,110.062857 40.2516857,110.646429 38.7184286,111.053086 C39.6472286,111.266857 40.5772571,111.469571 41.5171143,111.629286 C43,111.881143 44.4976286,112.125629 46.0014,112.125629 C47.5064,112.125629 49.0040286,111.881143 50.4869143,111.629286 C51.4255429,111.469571 52.3555714,111.266857 53.2843714,111.053086" id="Fill-811" fill="#0A0A08"></path>
                    <path d="M51.7425143,110.605886 C50.7043714,110.288914 49.6551714,109.960886 48.6059714,109.755714 C47.7361429,109.584943 47.0653429,110.071457 46.0014,110.071457 C44.9374571,110.071457 44.2666571,109.584943 43.3968286,109.755714 C42.5122571,109.928943 41.6276857,110.1894 40.7492571,110.457229 C40.8610571,110.839314 40.9728571,111.2128 41.0736,111.549429 C41.2210286,111.577686 41.3684571,111.603486 41.5158857,111.629286 C42.9987714,111.881143 44.4976286,112.125629 46.0014,112.125629 C47.5064,112.125629 49.0040286,111.881143 50.4869143,111.629286 C50.8235429,111.571543 51.1589429,111.508886 51.4931143,111.441314 C51.5717429,111.1784 51.6565143,110.895829 51.7425143,110.605886" id="Fill-812" fill="#FFFFFF"></path>
                    <path d="M35.1752286,110.485486 C37.1212857,112.120714 38.7147429,115.350629 41.0158571,116.433 C42.5196286,117.141886 44.3379143,116.619743 46.0014,116.619743 C47.6648857,116.619743 49.4819429,117.141886 50.9869429,116.433 C53.2880571,115.350629 54.8815143,112.120714 56.8275714,110.485486 L54.7770857,110.485486 C53.1627429,110.836857 51.5606857,111.2644 49.9303714,111.540829 C48.6317714,111.761971 47.3196571,111.976971 46.0014,111.976971 C44.6843714,111.976971 43.3710286,111.761971 42.0724286,111.540829 C40.4421143,111.2644 38.8412857,110.836857 37.2257143,110.485486 L35.1752286,110.485486" id="Fill-813" fill="#B9362B"></path>
                    <path d="M46.0014,106.527029 C45.2310857,106.527029 44.5492286,106.140029 43.7789143,106.171971 C41.1362571,106.282543 35.3730286,110.959714 33.4085429,108.345314 C33.884,110.082514 34.8889714,111.209114 36.4431143,111.392171 C38.7307143,111.663686 41.2271714,110.388429 43.7199429,109.900686 C44.4828857,109.7508 45.0701429,110.177114 46.0014,110.177114 C46.9338857,110.177114 47.5211429,109.7508 48.2828571,109.900686 C50.7756286,110.388429 53.2720857,111.663686 55.5609143,111.392171 C57.1138286,111.209114 58.1188,110.082514 58.5930286,108.345314 C56.4946286,111.101 50.7891429,106.453314 48.2238857,106.171971 C47.4584857,106.088429 46.7717143,106.527029 46.0014,106.527029" id="Fill-814" fill="#852024"></path>
                    <path d="M20.2259714,77.4639429 C22.1167429,90.2103714 34.5253143,86.1794286 37.9911143,89.1955714 C37.1790286,81.2209143 32.6726286,77.9062286 25.6353714,77.7784571 C24.0922857,77.7514286 21.3009714,78.1347429 20.2259714,77.4639429" id="Fill-815" fill="#0A0A08"></path>
                    <path d="M23.3649714,79.9554857 C24.4178571,89.0960571 35.5966286,86.0799143 37.9911143,89.1955714 C34.6592286,79.8314 30.1724857,79.8019143 23.3649714,79.9554857" id="Fill-816" fill="#FFFFFF"></path>
                    <path d="M26.9683714,85.6511429 C28.4205429,86.4632286 30.1356286,86.8662 31.7917429,87.1696571 C33.4650571,86.7507143 34.7992857,85.4570286 35.2759714,83.8046 C32.9294,80.6852571 30.0803429,80.0218286 26.4892286,79.9358286 C26.0334286,80.6729714 25.7729714,81.5415714 25.7729714,82.4691429 C25.7729714,83.6866571 26.2238571,84.7997429 26.9683714,85.6511429" id="Fill-817" fill="#AACDE3"></path>
                    <path d="M33.0498,81.6288 C31.9404,80.8670857 30.7327143,80.4346286 29.4083143,80.1962857 C28.5962286,80.6312 28.0433714,81.4887429 28.0433714,82.4691429 C28.0433714,83.8881429 29.2006857,85.0442286 30.6184571,85.0442286 C32.0362286,85.0442286 33.1935429,83.8881429 33.1935429,82.4691429 C33.1935429,82.1755143 33.1419429,81.8929429 33.0498,81.6288" id="Fill-818" fill="#0A0A08"></path>
                    <path d="M28.1736,85.0245714 C27.3123714,85.0245714 26.6108571,84.3218286 26.6108571,83.4630571 C26.6108571,82.6018286 27.3123714,81.8990857 28.1736,81.8990857 C29.0336,81.8990857 29.7363429,82.6018286 29.7363429,83.4630571 C29.7363429,84.3218286 29.0336,85.0245714 28.1736,85.0245714" id="Fill-819" fill="#FFFFFF"></path>
                    <path d="M38.4972857,79.0524857 C28.8431714,68.8418286 24.4608571,68.4622 17.8179714,69.7952 C23.6352571,67.0505714 28.8689714,66.8589143 37.6102571,75.4810286 C39.0046857,76.8570286 38.9924,77.8386571 38.4972857,79.0524857" id="Fill-820" fill="#0A0A08"></path>
                    <path d="M71.7780571,77.4639429 C69.8872857,90.2103714 57.4787143,86.1794286 54.0116857,89.1955714 C54.8237714,81.2209143 59.3314,77.9062286 66.3686571,77.7784571 C67.9105143,77.7514286 70.7030571,78.1347429 71.7780571,77.4639429" id="Fill-821" fill="#0A0A08"></path>
                    <path d="M68.6390571,79.9554857 C67.5861714,89.0960571 56.4074,86.0799143 54.0116857,89.1955714 C57.3435714,79.8314 61.8315429,79.8019143 68.6390571,79.9554857" id="Fill-822" fill="#FFFFFF"></path>
                    <path d="M65.0356571,85.6511429 C63.5822571,86.4632286 61.8671714,86.8662 60.2122857,87.1696571 C58.5377429,86.7507143 57.2035143,85.4570286 56.7280571,83.8046 C59.0746286,80.6852571 61.9236857,80.0218286 65.5135714,79.9358286 C65.9693714,80.6729714 66.2310571,81.5415714 66.2310571,82.4691429 C66.2310571,83.6866571 65.7801714,84.7997429 65.0356571,85.6511429" id="Fill-823" fill="#AACDE3"></path>
                    <path d="M58.953,81.6288 C60.0624,80.8670857 61.2713143,80.4346286 62.5957143,80.1962857 C63.4078,80.6312 63.9606571,81.4887429 63.9606571,82.4691429 C63.9606571,83.8881429 62.8033429,85.0442286 61.3855714,85.0442286 C59.9678,85.0442286 58.8104857,83.8881429 58.8104857,82.4691429 C58.8104857,82.1755143 58.8620857,81.8929429 58.953,81.6288" id="Fill-824" fill="#0A0A08"></path>
                    <path d="M63.8292,85.0245714 C64.6904286,85.0245714 65.3931714,84.3218286 65.3931714,83.4630571 C65.3931714,82.6018286 64.6904286,81.8990857 63.8292,81.8990857 C62.9692,81.8990857 62.2676857,82.6018286 62.2676857,83.4630571 C62.2676857,84.3218286 62.9692,85.0245714 63.8292,85.0245714" id="Fill-825" fill="#FFFFFF"></path>
                    <path d="M53.5067429,79.0524857 C63.1608571,68.8418286 67.5431714,68.4622 74.1848286,69.7952 C68.3687714,67.0505714 63.1350571,66.8589143 54.3925429,75.4810286 C52.9981143,76.8570286 53.0116286,77.8386571 53.5067429,79.0524857" id="Fill-826" fill="#0A0A08"></path>
                    <path d="M46.0063143,43.7433429 C42.6474,39.7185429 36.3681714,38.388 31.2757429,39.1251429 C22.5172571,40.3942571 22.2396,51.1147714 21.6842857,57.9984571 C20.0441429,60.2934286 16.8203714,62.6621143 16.1397429,65.3993714 C14.3964,72.4231143 14.706,79.8031429 13.9885143,87.0062571 C11.3384857,67.7656 -15.7478286,29.4034571 14.3583143,9.85197143 C10.0534,16.9690857 10.2708571,23.1180857 12.7144857,27.8198286 C13.072,27.3664857 13.4491714,26.9340286 13.8435429,26.5212286 C11.4896,19.6903714 12.7316857,11.2242857 20.8156857,5.45122857 C22.4238857,4.89345714 23.7372286,4.4782 25.0776,4.07031429 C17.6705429,10.2647714 16.4505714,17.2025143 18.2676286,23.0087429 C18.4015429,22.9276571 18.5354571,22.8465714 18.6718286,22.7679429 C16.8289714,15.1090286 20.3979714,5.75714286 34.0596857,0.199085714 C37.41,0.758085714 39.4543429,1.24705714 42.9705143,1.97314286 C44.6942,5.66622857 43.8403429,10.5104857 41.022,15.4874286 C41.8205714,15.2576857 42.6031714,15.0181143 43.3710286,14.7674857 C46.3871714,10.4994286 47.2238286,6.02005714 44.4730571,2.28765714 C46.6599143,3.23242857 48.8455429,4.17965714 51.0311714,5.12442857 C51.4292286,7.42922857 50.8849714,9.79668571 49.5728571,12.115 C52.3690857,10.5068 54.5891143,8.41331429 55.8729714,5.47702857 C96.2131143,19.9250286 84.6461143,61.4740857 78.0241143,87.0062571 C77.3066286,79.8031429 77.6162286,72.4231143 75.8716571,65.3993714 C75.1922571,62.6621143 71.9684857,60.2934286 70.3271143,57.9984571 C69.7349429,50.6393143 71.1035714,40.6289143 60.7368857,39.1251429 C55.6444571,38.388 49.364,39.7185429 46.0063143,43.7433429" id="Fill-827" fill="#0A0A08"></path>
                </g>
            </g>
        </g>
    </g>
</svg>