<?xml version="1.0" encoding="UTF-8"?>
<svg width="140px" height="140px" viewBox="0 0 140 140" version="1.1" xmlns="http://www.w3.org/2000/svg" xmlns:xlink="http://www.w3.org/1999/xlink">
    <!-- Generator: Sketch 41.1 (35376) - http://www.bohemiancoding.com/sketch -->
    <title>avatar-10</title>
    <desc>Created with Sketch.</desc>
    <defs>
        <circle id="path-1" cx="70" cy="70" r="70"></circle>
    </defs>
    <g id="Page-1" stroke="none" stroke-width="1" fill="none" fill-rule="evenodd">
        <g id="avatar-10">
            <mask id="mask-2" fill="white">
                <use xlink:href="#path-1"></use>
            </mask>
            <use id="Mask" fill="#FFE1D6" xlink:href="#path-1"></use>
            <g id="Group-12" mask="url(#mask-2)">
                <g transform="translate(22.000000, 7.000000)">
                    <path d="M107.742202,72.1398165 C105.016697,98.2478899 75.0168807,124.711743 82.3058716,133.954312 C46.133211,129.632294 19.7451376,118.741835 11.6379817,105.461101 C14.9825688,113.488624 19.2365138,120.54 23.793578,125.964037 C4.63027523,113.63633 -5.74513761,76.9383486 3.90201835,45.6746789 C9.02036697,25.4157798 22.813578,4.67522936 42.0950459,1.59009174 C83.5607339,-5.04256881 111.754679,33.7066055 107.742202,72.1398165" id="Fill-931" fill="#56302E"></path>
                    <path d="M30.2155963,102.393945 L63.4983486,102.393945 C60.2398165,113.877798 61.2699083,124.291743 63.4983486,134.407706 C51.787156,140.48422 40.6937615,140.551009 30.2155963,134.407706 C32.3900917,124.046422 32.8383486,113.438532 30.2155963,102.393945" id="Fill-932" fill="#F7C995"></path>
                    <path d="M30.2155963,102.393945 L63.4983486,102.393945 C61.8311927,108.270092 61.2866055,113.864954 61.4510092,119.285138 C52.4768807,115.955963 43.2240367,116.182018 32.0086239,119.077064 C32.0985321,113.613211 31.5616514,108.062018 30.2155963,102.393945" id="Fill-933" fill="#EB9166"></path>
                    <path d="M50.9792661,112.744954 C62.0354128,109.531376 70.3455046,97.9781651 72.1372477,94.5655046 C74.6893578,89.7053211 76.3937615,74.5737615 77.359633,66.3869725 C77.8233028,62.4618349 78.3422018,46.2757798 74.1961468,33.3521101 C71.8405505,26.0091743 67.1113761,11.6058716 46.8576147,11.6058716 C26.6038532,11.6058716 21.8746789,26.0091743 19.5190826,33.3521101 C15.3730275,46.2757798 15.8919266,62.4618349 16.3555963,66.3869725 C17.3214679,74.5737615 19.0258716,89.7053211 21.5779817,94.5655046 C23.373578,97.9858716 31.713211,109.578899 42.8027523,112.76422 C45.7555963,113.613211 48.0289908,113.601651 50.9792661,112.744954" id="Fill-934" fill="#F7C995"></path>
                    <path d="M55.8497248,110.741284 C64.4256881,106.185505 70.6190826,97.4554128 72.1372477,94.5655046 C74.6893578,89.7053211 76.3937615,74.5737615 77.359633,66.3869725 C77.4790826,65.38 77.6011009,63.5625688 77.6473394,61.2031193 C73.719633,78.880367 67.4350459,96.0656881 55.8497248,110.741284" id="Fill-935" fill="#EBB78B"></path>
                    <path d="M37.8655046,110.741284 C29.2895413,106.185505 23.0948624,97.4554128 21.5779817,94.5655046 C19.0258716,89.7053211 17.3214679,74.5737615 16.3555963,66.3869725 C16.2361468,65.38 16.1141284,63.5625688 16.0678899,61.2031193 C19.9955963,78.880367 26.2788991,96.0656881 37.8655046,110.741284" id="Fill-936" fill="#EBB78B"></path>
                    <path d="M40.9146789,82.7130275 C44.1937615,84.2144954 49.5882569,84.2144954 52.8686239,82.7130275 C51.1115596,88.047156 42.6717431,88.047156 40.9146789,82.7130275" id="Fill-937" fill="#EB9166"></path>
                    <polyline id="Fill-938" fill="#0A0A08" points="39.2937615 93.6445872 54.4214679 93.6445872 53.9282569 96.3944954 39.7869725 96.3944954 39.2937615 93.6445872"></polyline>
                    <polyline id="Fill-939" fill="#FFFFFF" points="41.3757798 93.6445872 52.3394495 93.6445872 51.9823853 96.3944954 41.732844 96.3944954 41.3757798 93.6445872"></polyline>
                    <path d="M41.732844,100.649725 C43.3781651,101.673394 44.8488073,101.11211 46.8576147,101.11211 C48.866422,101.11211 50.3357798,101.673394 51.9823853,100.649725 C54.0220183,99.3833028 54.7001835,96.3713761 56.5433028,94.9110092 C53.3644037,94.6798165 49.9363303,96.386789 46.8576147,96.4188991 C43.7788991,96.386789 40.3521101,94.6798165 37.1719266,94.9110092 C39.0137615,96.3713761 39.693211,99.3833028 41.732844,100.649725" id="Fill-940" fill="#DF5152"></path>
                    <path d="M44.5880734,90.287156 C43.3961468,90.213945 40.0965138,91.8965138 39.3913761,92.320367 C38.7170642,92.7262385 37.2772477,93.7242202 36.8482569,93.9361468 C34.2576147,95.2218349 35.0333945,92.6825688 33.9056881,93.0537615 C33.2686239,93.2644037 33.3122936,93.8205505 33.8427523,94.1955963 C34.7906422,94.8622018 36.1533945,95.3374312 37.6522936,95.2616514 C39.887156,95.1486239 42.1798165,94.2816514 43.9946789,93.8809174 C44.4801835,93.7730275 45.6695413,94.0941284 46.8576147,94.0941284 C48.0456881,94.0941284 49.2350459,93.7730275 49.7192661,93.8809174 C51.5354128,94.2816514 53.8280734,95.1486239 56.0629358,95.2616514 C57.5605505,95.3374312 58.9245872,94.8622018 59.8724771,94.1955963 C60.4029358,93.8205505 60.4466055,93.2644037 59.8095413,93.0537615 C58.6818349,92.6825688 59.4576147,95.2218349 56.8669725,93.9361468 C56.4379817,93.7242202 54.9981651,92.7262385 54.3225688,92.320367 C53.6187156,91.8965138 50.3100917,90.1253211 49.127156,90.287156 C48.1831193,90.4155963 47.7772477,90.6853211 46.8576147,90.6853211 C45.9379817,90.6853211 45.5154128,90.5055046 44.5880734,90.287156" id="Fill-941" fill="#C73435"></path>
                    <path d="M69.9755963,58.7152294 C63.0423853,57.5862385 59.2585321,62.799633 57.7108257,69.3038532 C63.4315596,68.5922936 71.4282569,68.6873394 69.9755963,58.7152294" id="Fill-942" fill="#FFFFFF"></path>
                    <path d="M71.4642202,57.4077064 C70.5869725,59.213578 67.8357798,59.8044037 66.9906422,58.2579817 C66.4794495,58.4288073 66.0684404,58.4519266 65.4326606,58.647156 C67.2924771,60.4851376 70.6216514,60.6354128 71.4642202,57.4077064" id="Fill-943" fill="#0A0A08"></path>
                    <path d="M74.0433028,58.313211 C72.9104587,59.9726606 70.1027523,60.1588991 69.4926606,58.507156 C68.9622018,58.6022018 68.5524771,58.5636697 67.8948624,58.6651376 C69.4656881,60.7522936 72.7370642,61.3842202 74.0433028,58.313211" id="Fill-944" fill="#0A0A08"></path>
                    <path d="M55.4644037,57.9677064 C54.7759633,59.0350459 54.7155963,61.453578 55.0366972,62.2691743 C61.679633,56.4855046 67.8344954,51.9900917 75.940367,53.266789 C68.1311927,49.2915596 63.2363303,52.3869725 55.4644037,57.9677064" id="Fill-945" fill="#0A0A08"></path>
                    <path d="M69.2319266,62.9794495 C68.9172477,61.8273394 68.2082569,60.833211 67.2577982,60.1537615 C63.5150459,60.8858716 61.0040367,61.8645872 59.2970642,65.7434862 C59.633578,66.907156 60.3733945,67.9 61.3546789,68.5678899 C65.5110092,67.8075229 67.8473394,66.8313761 69.2319266,62.9794495" id="Fill-946" fill="#752420"></path>
                    <path d="M64.253578,66.7029358 C65.5688073,66.7029358 66.6425688,65.6343119 66.6425688,64.3242202 C66.6425688,63.0141284 65.5688073,61.9455046 64.253578,61.9455046 C62.9383486,61.9455046 61.8658716,63.0141284 61.8658716,64.3242202 C61.8658716,65.6343119 62.9383486,66.7029358 64.253578,66.7029358" id="Fill-947" fill="#0A0A08"></path>
                    <path d="M65.6522936,63.5291743 C66.3689908,63.5291743 66.9546789,62.946055 66.9546789,62.2306422 C66.9546789,61.5165138 66.3689908,60.9333945 65.6522936,60.9333945 C64.9343119,60.9333945 64.3499083,61.5165138 64.3499083,62.2306422 C64.3499083,62.946055 64.9343119,63.5291743 65.6522936,63.5291743" id="Fill-948" fill="#FFFFFF"></path>
                    <path d="M63.0051376,69.2653211 C66.2354128,68.8633028 69.1381651,67.4183486 70.4611009,64.0724771 C71.2574312,62.0623853 71.5040367,59.1981651 71.4565138,56.8194495 C69.4258716,59.706789 59.7812844,54.7836697 57.3049541,70.0154128 C59.5295413,69.493945 61.4985321,69.4515596 63.0051376,69.2653211 Z M70.0834862,59.646422 C63.6858716,60.7689908 60.1768807,61.0823853 58.1963303,69.0893578 C65.606055,67.9102752 68.6475229,67.5866055 70.0834862,59.646422 L70.0834862,59.646422 Z" id="Fill-949" fill="#0A0A08"></path>
                    <path d="M71.113578,58.7357798 C70.2363303,60.5442202 67.486422,61.1350459 66.6412844,59.5886239 C66.1300917,59.7581651 65.7190826,59.7812844 65.0833028,59.9765138 C66.9418349,61.813211 70.2722936,61.9647706 71.113578,58.7357798" id="Fill-950" fill="#0A0A08"></path>
                    <path d="M68.5165138,59.506422 C67.6392661,61.313578 64.8880734,61.9044037 64.0429358,60.3579817 C63.5317431,60.5288073 63.1207339,60.5506422 62.4849541,60.747156 C64.3447706,62.5838532 67.673945,62.7354128 68.5165138,59.506422" id="Fill-951" fill="#0A0A08"></path>
                    <path d="M66.5809174,60.3952294 C65.7036697,62.2036697 62.9537615,62.7944954 62.1086239,61.246789 C61.5974312,61.4176147 61.1851376,61.4394495 60.5506422,61.6359633 C62.4091743,63.4726606 65.739633,63.6242202 66.5809174,60.3952294" id="Fill-952" fill="#0A0A08"></path>
                    <path d="M23.7524771,58.7152294 C30.6869725,57.5862385 34.4695413,62.799633 36.0172477,69.3038532 C30.2965138,68.5922936 22.2998165,68.6873394 23.7524771,58.7152294" id="Fill-953" fill="#FFFFFF"></path>
                    <path d="M22.2651376,57.4077064 C23.1423853,59.213578 25.8922936,59.8044037 26.7374312,58.2579817 C27.2486239,58.4288073 27.659633,58.4519266 28.2954128,58.647156 C26.4368807,60.4851376 23.106422,60.6354128 22.2651376,57.4077064" id="Fill-954" fill="#0A0A08"></path>
                    <path d="M19.6847706,58.313211 C20.8176147,59.9726606 23.6253211,60.1588991 24.2354128,58.507156 C24.7658716,58.6022018 25.1768807,58.5636697 25.833211,58.6651376 C24.2623853,60.7522936 20.9910092,61.3842202 19.6847706,58.313211" id="Fill-955" fill="#0A0A08"></path>
                    <path d="M38.2636697,57.9677064 C38.9521101,59.0350459 39.0124771,61.453578 38.6913761,62.2691743 C32.0484404,56.4855046 25.8948624,51.9900917 17.7877064,53.266789 C25.5968807,49.2915596 30.4917431,52.3869725 38.2636697,57.9677064" id="Fill-956" fill="#0A0A08"></path>
                    <path d="M24.4961468,62.9794495 C24.8108257,61.8273394 25.5211009,60.833211 26.4702752,60.1537615 C30.2130275,60.8858716 32.7253211,61.8645872 34.4310092,65.7434862 C34.0944954,66.907156 33.3546789,67.9 32.3733945,68.5678899 C28.2170642,67.8075229 25.8807339,66.8313761 24.4961468,62.9794495" id="Fill-957" fill="#752420"></path>
                    <path d="M29.4744954,66.7029358 C28.1592661,66.7029358 27.0855046,65.6343119 27.0855046,64.3242202 C27.0855046,63.0141284 28.1592661,61.9455046 29.4744954,61.9455046 C30.7897248,61.9455046 31.8622018,63.0141284 31.8622018,64.3242202 C31.8622018,65.6343119 30.7897248,66.7029358 29.4744954,66.7029358" id="Fill-958" fill="#0A0A08"></path>
                    <path d="M28.0757798,63.5291743 C27.3590826,63.5291743 26.7733945,62.946055 26.7733945,62.2306422 C26.7733945,61.5165138 27.3590826,60.9333945 28.0757798,60.9333945 C28.7937615,60.9333945 29.3794495,61.5165138 29.3794495,62.2306422 C29.3794495,62.946055 28.7937615,63.5291743 28.0757798,63.5291743" id="Fill-959" fill="#FFFFFF"></path>
                    <path d="M30.7229358,69.2653211 C27.4926606,68.8633028 24.5911927,67.4183486 23.2656881,64.0724771 C22.4719266,62.0623853 22.2240367,59.1981651 22.2715596,56.8194495 C24.3022018,59.706789 33.946789,54.7836697 36.4231193,70.0154128 C34.1985321,69.493945 32.2295413,69.4515596 30.7229358,69.2653211 Z M23.6458716,59.646422 C30.0434862,60.7689908 33.5524771,61.0823853 35.5317431,69.0893578 C28.1220183,67.9102752 25.0805505,67.5866055 23.6458716,59.646422 L23.6458716,59.646422 Z" id="Fill-960" fill="#0A0A08"></path>
                    <path d="M22.613211,58.7357798 C23.4917431,60.5442202 26.2416514,61.1350459 27.086789,59.5886239 C27.5979817,59.7581651 28.0102752,59.7812844 28.6447706,59.9765138 C26.7862385,61.813211 23.4557798,61.9647706 22.613211,58.7357798" id="Fill-961" fill="#0A0A08"></path>
                    <path d="M25.2115596,59.506422 C26.0900917,61.313578 28.84,61.9044037 29.6851376,60.3579817 C30.1963303,60.5288073 30.6086239,60.5506422 31.2431193,60.747156 C29.3833028,62.5838532 26.0541284,62.7354128 25.2115596,59.506422" id="Fill-962" fill="#0A0A08"></path>
                    <path d="M27.147156,60.3952294 C28.0244037,62.2036697 30.7743119,62.7944954 31.6207339,61.246789 C32.1306422,61.4176147 32.5429358,61.4394495 33.1774312,61.6359633 C31.3188991,63.4726606 27.9897248,63.6242202 27.147156,60.3952294" id="Fill-963" fill="#0A0A08"></path>
                    <path d="M31.0119266,10.3227523 C29.2150459,47.5653211 81.3592661,41.8766972 84.0179817,85.9150459 C95.820367,58.8629358 93.2027523,43.5425688 82.8658716,28.5291743 C76.3359633,21.846422 69.806055,15.1623853 63.2761468,8.47963303 C55.7084404,6.05981651 37.3491743,6.59798165 31.0119266,10.3227523" id="Fill-964" fill="#56302E"></path>
                    <path d="M37.020367,9.21559633 C28.1644037,29.1855046 14.5779817,32.6611009 21.6357798,74.8319266 C10.2444037,49.7924771 15.3961468,10.9058716 37.020367,9.21559633" id="Fill-965" fill="#56302E"></path>
                </g>
            </g>
        </g>
    </g>
</svg>