<?xml version="1.0" encoding="UTF-8" standalone="no"?>
<svg width="30px" height="29px" viewBox="0 0 30 29" version="1.1" xmlns="http://www.w3.org/2000/svg" xmlns:xlink="http://www.w3.org/1999/xlink">
    <!-- Generator: Sketch 3.6.1 (26313) - http://www.bohemiancoding.com/sketch -->
    <title>star copy 4</title>
    <desc>Created with Sketch.</desc>
    <defs></defs>
    <g id="Page-1" stroke="none" stroke-width="1" fill="none" fill-rule="evenodd">
        <g id="taurus-man-secrets" transform="translate(-410.000000, -3162.000000)" fill="#EECA1A">
            <g id="content" transform="translate(330.000000, 237.000000)">
                <g id="Group-7" transform="translate(80.000000, 2925.000000)">
                    <g id="star-copy-4">
                        <g id="Page-1">
                            <path d="M15.6326087,0.735652174 L19.435394,9.72248641 L29.1559647,10.5539266 C29.8283967,10.6133152 30.1061821,11.4600815 29.5889266,11.9007065 L22.2189946,18.2916848 L24.4259511,27.7957745 C24.5830435,28.4547962 23.8646332,28.9777989 23.2879891,28.6252989 L14.9295245,23.5830163 L6.57105978,28.6252989 C5.99441576,28.9701359 5.27600543,28.4547962 5.43309783,27.7957745 L7.64005435,18.2916848 L0.262459239,11.9007065 C-0.247133152,11.4524185 0.0306521739,10.6133152 0.703084239,10.5539266 L10.4236549,9.72248641 L14.2264402,0.735652174 C14.4869837,0.107282609 15.3701495,0.107282609 15.6326087,0.735652174 L15.6326087,0.735652174 Z" id="Fill-1"></path>
                        </g>
                    </g>
                </g>
            </g>
        </g>
    </g>
</svg>